<?xml version="1.0" standalone="no"?>
					<!DOCTYPE svg PUBLIC "-//W3C//DTD SVG 1.1//EN" "http://www.w3.org/Graphics/SVG/1.1/DTD/svg11.dtd">
					<svg xmlns="http://www.w3.org/2000/svg" version="1.1" height="1024px" width="768px"> 
					<text x="10" y="20" fill="black" font-family="Arial, Tahoma, Verdana" font-size="20">Programas de Pós-Graduação em Ciência da Informação</text>
			<text x="284" y="432" fill="black" font-family="Arial, Tahoma, Verdana" font-size="14">UFBA-PPGCI</text>
			<circle cx="640" cy="512" r="2" stroke="black" stroke-width="grey" fill="white" />
			<text x="626" y="505" fill="grey" font-family="Arial, Tahoma, Verdana" font-size="14">P01</text>
			<circle cx="615" cy="595" r="2" stroke="black" stroke-width="grey" fill="white" />
			<text x="601" y="588" fill="grey" font-family="Arial, Tahoma, Verdana" font-size="14">P02</text>
			<circle cx="544" cy="662" r="2" stroke="black" stroke-width="grey" fill="white" />
			<text x="530" y="655" fill="grey" font-family="Arial, Tahoma, Verdana" font-size="14">P03</text>
			<circle cx="441" cy="699" r="2" stroke="black" stroke-width="grey" fill="white" />
			<text x="427" y="692" fill="grey" font-family="Arial, Tahoma, Verdana" font-size="14">P04</text>
			<circle cx="327" cy="699" r="2" stroke="black" stroke-width="grey" fill="white" />
			<text x="313" y="692" fill="grey" font-family="Arial, Tahoma, Verdana" font-size="14">P05</text>
			<circle cx="224" cy="662" r="2" stroke="black" stroke-width="grey" fill="white" />
			<text x="210" y="655" fill="grey" font-family="Arial, Tahoma, Verdana" font-size="14">P06</text>
			<circle cx="153" cy="595" r="2" stroke="black" stroke-width="grey" fill="white" />
			<text x="139" y="588" fill="grey" font-family="Arial, Tahoma, Verdana" font-size="14">P07</text>
			<circle cx="128" cy="512" r="2" stroke="black" stroke-width="grey" fill="white" />
			<text x="114" y="505" fill="grey" font-family="Arial, Tahoma, Verdana" font-size="14">P08</text>
			<circle cx="153" cy="429" r="2" stroke="black" stroke-width="grey" fill="white" />
			<text x="139" y="422" fill="grey" font-family="Arial, Tahoma, Verdana" font-size="14">P09</text>
			<circle cx="224" cy="362" r="2" stroke="black" stroke-width="grey" fill="white" />
			<text x="210" y="355" fill="grey" font-family="Arial, Tahoma, Verdana" font-size="14">P10</text>
			<circle cx="327" cy="325" r="2" stroke="black" stroke-width="grey" fill="white" />
			<text x="313" y="318" fill="grey" font-family="Arial, Tahoma, Verdana" font-size="14">P11</text>
			<circle cx="441" cy="325" r="2" stroke="black" stroke-width="grey" fill="white" />
			<text x="427" y="318" fill="grey" font-family="Arial, Tahoma, Verdana" font-size="14">P12</text>
			<circle cx="544" cy="362" r="2" stroke="black" stroke-width="grey" fill="white" />
			<text x="530" y="355" fill="grey" font-family="Arial, Tahoma, Verdana" font-size="14">P13</text>
			<circle cx="615" cy="429" r="2" stroke="black" stroke-width="grey" fill="white" />
			<text x="601" y="422" fill="grey" font-family="Arial, Tahoma, Verdana" font-size="14">P14</text>
			<circle cx="384" cy="632" r="2" stroke="black" stroke-width="brown" fill="white" />
			<text x="376" y="630" fill="brown" font-family="Arial, Tahoma, Verdana" font-size="8">A01</text>
			<circle cx="421" cy="629" r="2" stroke="black" stroke-width="brown" fill="white" />
			<text x="413" y="627" fill="brown" font-family="Arial, Tahoma, Verdana" font-size="8">A02</text>
			<circle cx="456" cy="620" r="2" stroke="black" stroke-width="brown" fill="white" />
			<text x="448" y="618" fill="brown" font-family="Arial, Tahoma, Verdana" font-size="8">A03</text>
			<circle cx="488" cy="605" r="2" stroke="black" stroke-width="brown" fill="white" />
			<text x="480" y="603" fill="brown" font-family="Arial, Tahoma, Verdana" font-size="8">A04</text>
			<circle cx="514" cy="586" r="2" stroke="black" stroke-width="brown" fill="white" />
			<text x="506" y="584" fill="brown" font-family="Arial, Tahoma, Verdana" font-size="8">A05</text>
			<circle cx="534" cy="563" r="2" stroke="black" stroke-width="brown" fill="white" />
			<text x="526" y="561" fill="brown" font-family="Arial, Tahoma, Verdana" font-size="8">A06</text>
			<circle cx="545" cy="537" r="2" stroke="black" stroke-width="brown" fill="white" />
			<text x="537" y="535" fill="brown" font-family="Arial, Tahoma, Verdana" font-size="8">A07</text>
			<circle cx="549" cy="510" r="2" stroke="black" stroke-width="brown" fill="white" />
			<text x="541" y="508" fill="brown" font-family="Arial, Tahoma, Verdana" font-size="8">A08</text>
			<circle cx="544" cy="483" r="2" stroke="black" stroke-width="brown" fill="white" />
			<text x="536" y="481" fill="brown" font-family="Arial, Tahoma, Verdana" font-size="8">A09</text>
			<circle cx="531" cy="458" r="2" stroke="black" stroke-width="brown" fill="white" />
			<text x="523" y="456" fill="brown" font-family="Arial, Tahoma, Verdana" font-size="8">A10</text>
			<circle cx="510" cy="435" r="2" stroke="black" stroke-width="brown" fill="white" />
			<text x="502" y="433" fill="brown" font-family="Arial, Tahoma, Verdana" font-size="8">A11</text>
			<circle cx="483" cy="416" r="2" stroke="black" stroke-width="brown" fill="white" />
			<text x="475" y="414" fill="brown" font-family="Arial, Tahoma, Verdana" font-size="8">A12</text>
			<circle cx="451" cy="402" r="2" stroke="black" stroke-width="brown" fill="white" />
			<text x="443" y="400" fill="brown" font-family="Arial, Tahoma, Verdana" font-size="8">A13</text>
			<path d="M 224 362 q 0 0 160 270" stroke="brown" stroke-width="0.5" fill="none" /><path d="M 327 699 q 0 0 217 -337" stroke="blue" stroke-width="0.5" fill="none" /><path d="M 327 699 q 0 0 94 -70" stroke="brown" stroke-width="0.5" fill="none" /><path d="M 327 699 q 0 0 129 -79" stroke="brown" stroke-width="0.5" fill="none" /><path d="M 327 699 q 0 0 161 -94" stroke="brown" stroke-width="0.5" fill="none" /><path d="M 456 620 q 0 0 32 -15" stroke="brown" stroke-width="0.5" fill="none" /><path d="M 615 595 q 0 0 -462 -166" stroke="blue" stroke-width="1.19314718056" fill="none" /><path d="M 615 595 q 0 0 -101 -9" stroke="brown" stroke-width="1.19314718056" fill="none" /><path d="M 615 595 q 0 0 -81 -32" stroke="brown" stroke-width="1.19314718056" fill="none" /><path d="M 153 429 q 0 0 361 157" stroke="brown" stroke-width="1.88629436112" fill="none" /><path d="M 153 429 q 0 0 381 134" stroke="brown" stroke-width="1.88629436112" fill="none" /><path d="M 514 586 q 0 0 20 -23" stroke="brown" stroke-width="1.88629436112" fill="none" /><path d="M 544 362 q 0 0 1 175" stroke="brown" stroke-width="0.5" fill="none" /><path d="M 153 429 q 0 0 396 81" stroke="brown" stroke-width="0.5" fill="none" /><path d="M 640 512 q 0 0 -96 -29" stroke="brown" stroke-width="0.5" fill="none" /><path d="M 640 512 q 0 0 -109 -54" stroke="brown" stroke-width="0.5" fill="none" /><path d="M 640 512 q 0 0 -130 -77" stroke="brown" stroke-width="0.5" fill="none" /><path d="M 544 483 q 0 0 -13 -25" stroke="brown" stroke-width="0.5" fill="none" /><path d="M 544 483 q 0 0 -34 -48" stroke="brown" stroke-width="0.5" fill="none" /><path d="M 531 458 q 0 0 -21 -23" stroke="brown" stroke-width="0.5" fill="none" /><path d="M 153 429 q 0 0 330 -13" stroke="brown" stroke-width="0.5" fill="none" /><path d="M 153 429 q 0 0 298 -27" stroke="brown" stroke-width="0.5" fill="none" /><path d="M 483 416 q 0 0 -32 -14" stroke="brown" stroke-width="0.5" fill="none" /><path d="M 224 662 q 0 0 227 -260" stroke="brown" stroke-width="0.5" fill="none" /><text x="510" y="180" fill="black" font-family="Arial, Tahoma, Verdana" font-size="10">UFPR</text>
			<text x="510" y="480" fill="black" font-family="Arial, Tahoma, Verdana" font-size="10">UFSCAR</text>
			
					</svg>