<?xml version="1.0" standalone="no"?>
					<!DOCTYPE svg PUBLIC "-//W3C//DTD SVG 1.1//EN" "http://www.w3.org/Graphics/SVG/1.1/DTD/svg11.dtd">
					<svg xmlns="http://www.w3.org/2000/svg" version="1.1" height="1024px" width="768px"> 
					<text x="10" y="20" fill="black" font-family="Arial, Tahoma, Verdana" font-size="20">Programas de Pós-Graduação em Ciência da Informação</text>
			<text x="284" y="432" fill="black" font-family="Arial, Tahoma, Verdana" font-size="14">USP-PPGCI</text>
			<circle cx="640" cy="512" r="2" stroke="black" stroke-width="grey" fill="white" />
			<text x="626" y="505" fill="grey" font-family="Arial, Tahoma, Verdana" font-size="14">P01</text>
			<circle cx="625" cy="578" r="2" stroke="black" stroke-width="grey" fill="white" />
			<text x="611" y="571" fill="grey" font-family="Arial, Tahoma, Verdana" font-size="14">P02</text>
			<circle cx="580" cy="635" r="2" stroke="black" stroke-width="grey" fill="white" />
			<text x="566" y="628" fill="grey" font-family="Arial, Tahoma, Verdana" font-size="14">P03</text>
			<circle cx="512" cy="678" r="2" stroke="black" stroke-width="grey" fill="white" />
			<text x="498" y="671" fill="grey" font-family="Arial, Tahoma, Verdana" font-size="14">P04</text>
			<circle cx="428" cy="701" r="2" stroke="black" stroke-width="grey" fill="white" />
			<text x="414" y="694" fill="grey" font-family="Arial, Tahoma, Verdana" font-size="14">P05</text>
			<circle cx="340" cy="701" r="2" stroke="black" stroke-width="grey" fill="white" />
			<text x="326" y="694" fill="grey" font-family="Arial, Tahoma, Verdana" font-size="14">P06</text>
			<circle cx="256" cy="678" r="2" stroke="black" stroke-width="grey" fill="white" />
			<text x="242" y="671" fill="grey" font-family="Arial, Tahoma, Verdana" font-size="14">P07</text>
			<circle cx="188" cy="635" r="2" stroke="black" stroke-width="grey" fill="white" />
			<text x="174" y="628" fill="grey" font-family="Arial, Tahoma, Verdana" font-size="14">P08</text>
			<circle cx="143" cy="578" r="2" stroke="black" stroke-width="grey" fill="white" />
			<text x="129" y="571" fill="grey" font-family="Arial, Tahoma, Verdana" font-size="14">P09</text>
			<circle cx="128" cy="512" r="2" stroke="black" stroke-width="grey" fill="white" />
			<text x="114" y="505" fill="grey" font-family="Arial, Tahoma, Verdana" font-size="14">P10</text>
			<circle cx="143" cy="446" r="2" stroke="black" stroke-width="grey" fill="white" />
			<text x="129" y="439" fill="grey" font-family="Arial, Tahoma, Verdana" font-size="14">P11</text>
			<circle cx="188" cy="389" r="2" stroke="black" stroke-width="grey" fill="white" />
			<text x="174" y="382" fill="grey" font-family="Arial, Tahoma, Verdana" font-size="14">P12</text>
			<circle cx="256" cy="346" r="2" stroke="black" stroke-width="grey" fill="white" />
			<text x="242" y="339" fill="grey" font-family="Arial, Tahoma, Verdana" font-size="14">P13</text>
			<circle cx="340" cy="323" r="2" stroke="black" stroke-width="grey" fill="white" />
			<text x="326" y="316" fill="grey" font-family="Arial, Tahoma, Verdana" font-size="14">P14</text>
			<circle cx="428" cy="323" r="2" stroke="black" stroke-width="grey" fill="white" />
			<text x="414" y="316" fill="grey" font-family="Arial, Tahoma, Verdana" font-size="14">P15</text>
			<circle cx="512" cy="346" r="2" stroke="black" stroke-width="grey" fill="white" />
			<text x="498" y="339" fill="grey" font-family="Arial, Tahoma, Verdana" font-size="14">P16</text>
			<circle cx="580" cy="389" r="2" stroke="black" stroke-width="grey" fill="white" />
			<text x="566" y="382" fill="grey" font-family="Arial, Tahoma, Verdana" font-size="14">P17</text>
			<circle cx="625" cy="446" r="2" stroke="black" stroke-width="grey" fill="white" />
			<text x="611" y="439" fill="grey" font-family="Arial, Tahoma, Verdana" font-size="14">P18</text>
			<circle cx="384" cy="632" r="2" stroke="black" stroke-width="brown" fill="white" />
			<text x="376" y="630" fill="brown" font-family="Arial, Tahoma, Verdana" font-size="8">A01</text>
			<circle cx="421" cy="629" r="2" stroke="black" stroke-width="brown" fill="white" />
			<text x="413" y="627" fill="brown" font-family="Arial, Tahoma, Verdana" font-size="8">A02</text>
			<circle cx="456" cy="620" r="2" stroke="black" stroke-width="brown" fill="white" />
			<text x="448" y="618" fill="brown" font-family="Arial, Tahoma, Verdana" font-size="8">A03</text>
			<circle cx="488" cy="605" r="2" stroke="black" stroke-width="brown" fill="white" />
			<text x="480" y="603" fill="brown" font-family="Arial, Tahoma, Verdana" font-size="8">A04</text>
			<circle cx="384" cy="632" r="2" stroke="black" stroke-width="brown" fill="white" />
			<text x="376" y="630" fill="brown" font-family="Arial, Tahoma, Verdana" font-size="8">A05</text>
			<circle cx="514" cy="586" r="2" stroke="black" stroke-width="brown" fill="white" />
			<text x="506" y="584" fill="brown" font-family="Arial, Tahoma, Verdana" font-size="8">A06</text>
			<circle cx="534" cy="563" r="2" stroke="black" stroke-width="brown" fill="white" />
			<text x="526" y="561" fill="brown" font-family="Arial, Tahoma, Verdana" font-size="8">A07</text>
			<circle cx="545" cy="537" r="2" stroke="black" stroke-width="brown" fill="white" />
			<text x="537" y="535" fill="brown" font-family="Arial, Tahoma, Verdana" font-size="8">A08</text>
			<circle cx="549" cy="510" r="2" stroke="black" stroke-width="brown" fill="white" />
			<text x="541" y="508" fill="brown" font-family="Arial, Tahoma, Verdana" font-size="8">A09</text>
			<circle cx="544" cy="483" r="2" stroke="black" stroke-width="brown" fill="white" />
			<text x="536" y="481" fill="brown" font-family="Arial, Tahoma, Verdana" font-size="8">A10</text>
			<circle cx="384" cy="632" r="2" stroke="black" stroke-width="brown" fill="white" />
			<text x="376" y="630" fill="brown" font-family="Arial, Tahoma, Verdana" font-size="8">A11</text>
			<circle cx="531" cy="458" r="2" stroke="black" stroke-width="brown" fill="white" />
			<text x="523" y="456" fill="brown" font-family="Arial, Tahoma, Verdana" font-size="8">A12</text>
			<circle cx="510" cy="435" r="2" stroke="black" stroke-width="brown" fill="white" />
			<text x="502" y="433" fill="brown" font-family="Arial, Tahoma, Verdana" font-size="8">A13</text>
			<circle cx="483" cy="416" r="2" stroke="black" stroke-width="brown" fill="white" />
			<text x="475" y="414" fill="brown" font-family="Arial, Tahoma, Verdana" font-size="8">A14</text>
			<circle cx="451" cy="402" r="2" stroke="black" stroke-width="brown" fill="white" />
			<text x="443" y="400" fill="brown" font-family="Arial, Tahoma, Verdana" font-size="8">A15</text>
			<circle cx="415" cy="394" r="2" stroke="black" stroke-width="brown" fill="white" />
			<text x="407" y="392" fill="brown" font-family="Arial, Tahoma, Verdana" font-size="8">A16</text>
			<circle cx="378" cy="392" r="2" stroke="black" stroke-width="brown" fill="white" />
			<text x="370" y="390" fill="brown" font-family="Arial, Tahoma, Verdana" font-size="8">A17</text>
			<circle cx="341" cy="396" r="2" stroke="black" stroke-width="brown" fill="white" />
			<text x="333" y="394" fill="brown" font-family="Arial, Tahoma, Verdana" font-size="8">A18</text>
			<circle cx="307" cy="406" r="2" stroke="black" stroke-width="brown" fill="white" />
			<text x="299" y="404" fill="brown" font-family="Arial, Tahoma, Verdana" font-size="8">A19</text>
			<circle cx="276" cy="421" r="2" stroke="black" stroke-width="brown" fill="white" />
			<text x="268" y="419" fill="brown" font-family="Arial, Tahoma, Verdana" font-size="8">A20</text>
			<circle cx="251" cy="441" r="2" stroke="black" stroke-width="brown" fill="white" />
			<text x="243" y="439" fill="brown" font-family="Arial, Tahoma, Verdana" font-size="8">A21</text>
			<circle cx="232" cy="465" r="2" stroke="black" stroke-width="brown" fill="white" />
			<text x="224" y="463" fill="brown" font-family="Arial, Tahoma, Verdana" font-size="8">A22</text>
			<circle cx="222" cy="491" r="2" stroke="black" stroke-width="brown" fill="white" />
			<text x="214" y="489" fill="brown" font-family="Arial, Tahoma, Verdana" font-size="8">A23</text>
			<path d="M 625 578 q 0 0 -241 54" stroke="brown" stroke-width="1.19314718056" fill="none" /><path d="M 512 346 q 0 0 -91 283" stroke="brown" stroke-width="0.5" fill="none" /><path d="M 625 578 q 0 0 -169 42" stroke="brown" stroke-width="0.5" fill="none" /><path d="M 580 389 q 0 0 -92 216" stroke="brown" stroke-width="0.5" fill="none" /><path d="M 428 701 q 0 0 -44 -69" stroke="brown" stroke-width="0.5" fill="none" /><path d="M 428 323 q 0 0 -240 312" stroke="blue" stroke-width="1.19314718056" fill="none" /><path d="M 640 512 q 0 0 -15 66" stroke="blue" stroke-width="1.59861228867" fill="none" /><path d="M 640 512 q 0 0 -126 74" stroke="brown" stroke-width="1.19314718056" fill="none" /><path d="M 128 512 q 0 0 406 51" stroke="brown" stroke-width="0.5" fill="none" /><path d="M 128 512 q 0 0 417 25" stroke="brown" stroke-width="0.5" fill="none" /><path d="M 128 512 q 0 0 421 -2" stroke="brown" stroke-width="0.5" fill="none" /><path d="M 534 563 q 0 0 11 -26" stroke="brown" stroke-width="0.5" fill="none" /><path d="M 534 563 q 0 0 15 -53" stroke="brown" stroke-width="0.5" fill="none" /><path d="M 545 537 q 0 0 4 -27" stroke="brown" stroke-width="0.5" fill="none" /><path d="M 640 512 q 0 0 -96 -29" stroke="brown" stroke-width="0.5" fill="none" /><path d="M 640 512 q 0 0 -256 120" stroke="brown" stroke-width="0.5" fill="none" /><path d="M 544 483 q 0 0 -160 149" stroke="brown" stroke-width="0.5" fill="none" /><path d="M 143 578 q 0 0 388 -120" stroke="brown" stroke-width="0.5" fill="none" /><path d="M 143 578 q 0 0 437 57" stroke="blue" stroke-width="0.5" fill="none" /><path d="M 143 578 q 0 0 367 -143" stroke="brown" stroke-width="0.5" fill="none" /><path d="M 143 578 q 0 0 340 -162" stroke="brown" stroke-width="0.5" fill="none" /><path d="M 580 635 q 0 0 -70 -200" stroke="brown" stroke-width="0.5" fill="none" /><path d="M 580 635 q 0 0 -97 -219" stroke="brown" stroke-width="0.5" fill="none" /><path d="M 510 435 q 0 0 -27 -19" stroke="brown" stroke-width="0.5" fill="none" /><path d="M 580 635 q 0 0 -129 -233" stroke="brown" stroke-width="1.59861228867" fill="none" /><path d="M 340 701 q 0 0 75 -307" stroke="brown" stroke-width="0.5" fill="none" /><path d="M 625 578 q 0 0 -247 -186" stroke="brown" stroke-width="0.5" fill="none" /><path d="M 341 396 q 0 0 284 50" stroke="brown" stroke-width="1.19314718056" fill="none" /><path d="M 128 512 q 0 0 179 -106" stroke="brown" stroke-width="0.5" fill="none" /><path d="M 512 678 q 0 0 -236 -257" stroke="brown" stroke-width="0.5" fill="none" /><path d="M 128 512 q 0 0 123 -71" stroke="brown" stroke-width="0.5" fill="none" /><path d="M 188 635 q 0 0 44 -170" stroke="brown" stroke-width="0.5" fill="none" /><path d="M 625 446 q 0 0 -403 45" stroke="brown" stroke-width="0.5" fill="none" /><text x="510" y="180" fill="black" font-family="Arial, Tahoma, Verdana" font-size="10">UFPR</text>
			<text x="510" y="480" fill="black" font-family="Arial, Tahoma, Verdana" font-size="10">UFSCAR</text>
			
					</svg>