<?xml version="1.0" standalone="no"?>
					<!DOCTYPE svg PUBLIC "-//W3C//DTD SVG 1.1//EN" "http://www.w3.org/Graphics/SVG/1.1/DTD/svg11.dtd">
					<svg xmlns="http://www.w3.org/2000/svg" version="1.1" height="1024px" width="768px"> 
					<text x="10" y="20" fill="black" font-family="Arial, Tahoma, Verdana" font-size="20">Programas de Pós-Graduação em Ciência da Informação</text>
			<text x="284" y="432" fill="black" font-family="Arial, Tahoma, Verdana" font-size="14">UFMG-PGCI</text>
			<circle cx="640" cy="512" r="2" stroke="black" stroke-width="grey" fill="white" />
			<text x="626" y="505" fill="grey" font-family="Arial, Tahoma, Verdana" font-size="14">P01</text>
			<circle cx="632" cy="560" r="2" stroke="black" stroke-width="grey" fill="white" />
			<text x="618" y="553" fill="grey" font-family="Arial, Tahoma, Verdana" font-size="14">P02</text>
			<circle cx="608" cy="604" r="2" stroke="black" stroke-width="grey" fill="white" />
			<text x="594" y="597" fill="grey" font-family="Arial, Tahoma, Verdana" font-size="14">P03</text>
			<circle cx="571" cy="643" r="2" stroke="black" stroke-width="grey" fill="white" />
			<text x="557" y="636" fill="grey" font-family="Arial, Tahoma, Verdana" font-size="14">P04</text>
			<circle cx="521" cy="674" r="2" stroke="black" stroke-width="grey" fill="white" />
			<text x="507" y="667" fill="grey" font-family="Arial, Tahoma, Verdana" font-size="14">P05</text>
			<circle cx="463" cy="695" r="2" stroke="black" stroke-width="grey" fill="white" />
			<text x="449" y="688" fill="grey" font-family="Arial, Tahoma, Verdana" font-size="14">P06</text>
			<circle cx="400" cy="704" r="2" stroke="black" stroke-width="grey" fill="white" />
			<text x="386" y="697" fill="grey" font-family="Arial, Tahoma, Verdana" font-size="14">P07</text>
			<circle cx="336" cy="701" r="2" stroke="black" stroke-width="grey" fill="white" />
			<text x="322" y="694" fill="grey" font-family="Arial, Tahoma, Verdana" font-size="14">P08</text>
			<circle cx="275" cy="686" r="2" stroke="black" stroke-width="grey" fill="white" />
			<text x="261" y="679" fill="grey" font-family="Arial, Tahoma, Verdana" font-size="14">P09</text>
			<circle cx="221" cy="660" r="2" stroke="black" stroke-width="grey" fill="white" />
			<text x="207" y="653" fill="grey" font-family="Arial, Tahoma, Verdana" font-size="14">P10</text>
			<circle cx="177" cy="625" r="2" stroke="black" stroke-width="grey" fill="white" />
			<text x="163" y="618" fill="grey" font-family="Arial, Tahoma, Verdana" font-size="14">P11</text>
			<circle cx="146" cy="583" r="2" stroke="black" stroke-width="grey" fill="white" />
			<text x="132" y="576" fill="grey" font-family="Arial, Tahoma, Verdana" font-size="14">P12</text>
			<circle cx="130" cy="536" r="2" stroke="black" stroke-width="grey" fill="white" />
			<text x="116" y="529" fill="grey" font-family="Arial, Tahoma, Verdana" font-size="14">P13</text>
			<circle cx="130" cy="488" r="2" stroke="black" stroke-width="grey" fill="white" />
			<text x="116" y="481" fill="grey" font-family="Arial, Tahoma, Verdana" font-size="14">P14</text>
			<circle cx="146" cy="441" r="2" stroke="black" stroke-width="grey" fill="white" />
			<text x="132" y="434" fill="grey" font-family="Arial, Tahoma, Verdana" font-size="14">P15</text>
			<circle cx="177" cy="399" r="2" stroke="black" stroke-width="grey" fill="white" />
			<text x="163" y="392" fill="grey" font-family="Arial, Tahoma, Verdana" font-size="14">P16</text>
			<circle cx="221" cy="364" r="2" stroke="black" stroke-width="grey" fill="white" />
			<text x="207" y="357" fill="grey" font-family="Arial, Tahoma, Verdana" font-size="14">P17</text>
			<circle cx="275" cy="338" r="2" stroke="black" stroke-width="grey" fill="white" />
			<text x="261" y="331" fill="grey" font-family="Arial, Tahoma, Verdana" font-size="14">P18</text>
			<circle cx="336" cy="323" r="2" stroke="black" stroke-width="grey" fill="white" />
			<text x="322" y="316" fill="grey" font-family="Arial, Tahoma, Verdana" font-size="14">P19</text>
			<circle cx="400" cy="320" r="2" stroke="black" stroke-width="grey" fill="white" />
			<text x="386" y="313" fill="grey" font-family="Arial, Tahoma, Verdana" font-size="14">P20</text>
			<circle cx="463" cy="329" r="2" stroke="black" stroke-width="grey" fill="white" />
			<text x="449" y="322" fill="grey" font-family="Arial, Tahoma, Verdana" font-size="14">P21</text>
			<circle cx="521" cy="350" r="2" stroke="black" stroke-width="grey" fill="white" />
			<text x="507" y="343" fill="grey" font-family="Arial, Tahoma, Verdana" font-size="14">P22</text>
			<circle cx="571" cy="381" r="2" stroke="black" stroke-width="grey" fill="white" />
			<text x="557" y="374" fill="grey" font-family="Arial, Tahoma, Verdana" font-size="14">P23</text>
			<circle cx="608" cy="420" r="2" stroke="black" stroke-width="grey" fill="white" />
			<text x="594" y="413" fill="grey" font-family="Arial, Tahoma, Verdana" font-size="14">P24</text>
			<circle cx="632" cy="464" r="2" stroke="black" stroke-width="grey" fill="white" />
			<text x="618" y="457" fill="grey" font-family="Arial, Tahoma, Verdana" font-size="14">P25</text>
			<circle cx="384" cy="632" r="2" stroke="black" stroke-width="brown" fill="white" />
			<text x="376" y="630" fill="brown" font-family="Arial, Tahoma, Verdana" font-size="8">A01</text>
			<circle cx="421" cy="629" r="2" stroke="black" stroke-width="brown" fill="white" />
			<text x="413" y="627" fill="brown" font-family="Arial, Tahoma, Verdana" font-size="8">A02</text>
			<circle cx="456" cy="620" r="2" stroke="black" stroke-width="brown" fill="white" />
			<text x="448" y="618" fill="brown" font-family="Arial, Tahoma, Verdana" font-size="8">A03</text>
			<circle cx="488" cy="605" r="2" stroke="black" stroke-width="brown" fill="white" />
			<text x="480" y="603" fill="brown" font-family="Arial, Tahoma, Verdana" font-size="8">A04</text>
			<circle cx="514" cy="586" r="2" stroke="black" stroke-width="brown" fill="white" />
			<text x="506" y="584" fill="brown" font-family="Arial, Tahoma, Verdana" font-size="8">A05</text>
			<circle cx="534" cy="563" r="2" stroke="black" stroke-width="brown" fill="white" />
			<text x="526" y="561" fill="brown" font-family="Arial, Tahoma, Verdana" font-size="8">A06</text>
			<circle cx="545" cy="537" r="2" stroke="black" stroke-width="brown" fill="white" />
			<text x="537" y="535" fill="brown" font-family="Arial, Tahoma, Verdana" font-size="8">A07</text>
			<circle cx="549" cy="510" r="2" stroke="black" stroke-width="brown" fill="white" />
			<text x="541" y="508" fill="brown" font-family="Arial, Tahoma, Verdana" font-size="8">A08</text>
			<circle cx="544" cy="483" r="2" stroke="black" stroke-width="brown" fill="white" />
			<text x="536" y="481" fill="brown" font-family="Arial, Tahoma, Verdana" font-size="8">A09</text>
			<circle cx="531" cy="458" r="2" stroke="black" stroke-width="brown" fill="white" />
			<text x="523" y="456" fill="brown" font-family="Arial, Tahoma, Verdana" font-size="8">A10</text>
			<circle cx="510" cy="435" r="2" stroke="black" stroke-width="brown" fill="white" />
			<text x="502" y="433" fill="brown" font-family="Arial, Tahoma, Verdana" font-size="8">A11</text>
			<circle cx="384" cy="632" r="2" stroke="black" stroke-width="brown" fill="white" />
			<text x="376" y="630" fill="brown" font-family="Arial, Tahoma, Verdana" font-size="8">A12</text>
			<circle cx="483" cy="416" r="2" stroke="black" stroke-width="brown" fill="white" />
			<text x="475" y="414" fill="brown" font-family="Arial, Tahoma, Verdana" font-size="8">A13</text>
			<circle cx="451" cy="402" r="2" stroke="black" stroke-width="brown" fill="white" />
			<text x="443" y="400" fill="brown" font-family="Arial, Tahoma, Verdana" font-size="8">A14</text>
			<circle cx="415" cy="394" r="2" stroke="black" stroke-width="brown" fill="white" />
			<text x="407" y="392" fill="brown" font-family="Arial, Tahoma, Verdana" font-size="8">A15</text>
			<circle cx="378" cy="392" r="2" stroke="black" stroke-width="brown" fill="white" />
			<text x="370" y="390" fill="brown" font-family="Arial, Tahoma, Verdana" font-size="8">A16</text>
			<circle cx="341" cy="396" r="2" stroke="black" stroke-width="brown" fill="white" />
			<text x="333" y="394" fill="brown" font-family="Arial, Tahoma, Verdana" font-size="8">A17</text>
			<circle cx="307" cy="406" r="2" stroke="black" stroke-width="brown" fill="white" />
			<text x="299" y="404" fill="brown" font-family="Arial, Tahoma, Verdana" font-size="8">A18</text>
			<circle cx="276" cy="421" r="2" stroke="black" stroke-width="brown" fill="white" />
			<text x="268" y="419" fill="brown" font-family="Arial, Tahoma, Verdana" font-size="8">A19</text>
			<circle cx="251" cy="441" r="2" stroke="black" stroke-width="brown" fill="white" />
			<text x="243" y="439" fill="brown" font-family="Arial, Tahoma, Verdana" font-size="8">A20</text>
			<circle cx="232" cy="465" r="2" stroke="black" stroke-width="brown" fill="white" />
			<text x="224" y="463" fill="brown" font-family="Arial, Tahoma, Verdana" font-size="8">A21</text>
			<circle cx="222" cy="491" r="2" stroke="black" stroke-width="brown" fill="white" />
			<text x="214" y="489" fill="brown" font-family="Arial, Tahoma, Verdana" font-size="8">A22</text>
			<circle cx="219" cy="518" r="2" stroke="black" stroke-width="brown" fill="white" />
			<text x="211" y="516" fill="brown" font-family="Arial, Tahoma, Verdana" font-size="8">A23</text>
			<circle cx="225" cy="545" r="2" stroke="black" stroke-width="brown" fill="white" />
			<text x="217" y="543" fill="brown" font-family="Arial, Tahoma, Verdana" font-size="8">A24</text>
			<circle cx="240" cy="570" r="2" stroke="black" stroke-width="brown" fill="white" />
			<text x="232" y="568" fill="brown" font-family="Arial, Tahoma, Verdana" font-size="8">A25</text>
			<circle cx="261" cy="592" r="2" stroke="black" stroke-width="brown" fill="white" />
			<text x="253" y="590" fill="brown" font-family="Arial, Tahoma, Verdana" font-size="8">A26</text>
			<circle cx="289" cy="610" r="2" stroke="black" stroke-width="brown" fill="white" />
			<text x="281" y="608" fill="brown" font-family="Arial, Tahoma, Verdana" font-size="8">A27</text>
			<circle cx="384" cy="632" r="2" stroke="black" stroke-width="brown" fill="white" />
			<text x="376" y="630" fill="brown" font-family="Arial, Tahoma, Verdana" font-size="8">A28</text>
			<circle cx="322" cy="623" r="2" stroke="black" stroke-width="brown" fill="white" />
			<text x="314" y="621" fill="brown" font-family="Arial, Tahoma, Verdana" font-size="8">A29</text>
			<circle cx="358" cy="631" r="2" stroke="black" stroke-width="brown" fill="white" />
			<text x="350" y="629" fill="brown" font-family="Arial, Tahoma, Verdana" font-size="8">A30</text>
			<circle cx="396" cy="632" r="2" stroke="black" stroke-width="brown" fill="white" />
			<text x="388" y="630" fill="brown" font-family="Arial, Tahoma, Verdana" font-size="8">A31</text>
			<circle cx="432" cy="627" r="2" stroke="black" stroke-width="brown" fill="white" />
			<text x="424" y="625" fill="brown" font-family="Arial, Tahoma, Verdana" font-size="8">A32</text>
			<circle cx="467" cy="616" r="2" stroke="black" stroke-width="brown" fill="white" />
			<text x="459" y="614" fill="brown" font-family="Arial, Tahoma, Verdana" font-size="8">A33</text>
			<circle cx="497" cy="600" r="2" stroke="black" stroke-width="brown" fill="white" />
			<text x="489" y="598" fill="brown" font-family="Arial, Tahoma, Verdana" font-size="8">A34</text>
			<circle cx="521" cy="579" r="2" stroke="black" stroke-width="brown" fill="white" />
			<text x="513" y="577" fill="brown" font-family="Arial, Tahoma, Verdana" font-size="8">A35</text>
			<circle cx="538" cy="555" r="2" stroke="black" stroke-width="brown" fill="white" />
			<text x="530" y="553" fill="brown" font-family="Arial, Tahoma, Verdana" font-size="8">A36</text>
			<circle cx="384" cy="632" r="2" stroke="black" stroke-width="brown" fill="white" />
			<text x="376" y="630" fill="brown" font-family="Arial, Tahoma, Verdana" font-size="8">A37</text>
			<circle cx="547" cy="529" r="2" stroke="black" stroke-width="brown" fill="white" />
			<text x="539" y="527" fill="brown" font-family="Arial, Tahoma, Verdana" font-size="8">A38</text>
			<circle cx="548" cy="502" r="2" stroke="black" stroke-width="brown" fill="white" />
			<text x="540" y="500" fill="brown" font-family="Arial, Tahoma, Verdana" font-size="8">A39</text>
			<circle cx="541" cy="475" r="2" stroke="black" stroke-width="brown" fill="white" />
			<text x="533" y="473" fill="brown" font-family="Arial, Tahoma, Verdana" font-size="8">A40</text>
			<circle cx="525" cy="450" r="2" stroke="black" stroke-width="brown" fill="white" />
			<text x="517" y="448" fill="brown" font-family="Arial, Tahoma, Verdana" font-size="8">A41</text>
			<circle cx="503" cy="429" r="2" stroke="black" stroke-width="brown" fill="white" />
			<text x="495" y="427" fill="brown" font-family="Arial, Tahoma, Verdana" font-size="8">A42</text>
			<circle cx="474" cy="411" r="2" stroke="black" stroke-width="brown" fill="white" />
			<text x="466" y="409" fill="brown" font-family="Arial, Tahoma, Verdana" font-size="8">A43</text>
			<circle cx="440" cy="399" r="2" stroke="black" stroke-width="brown" fill="white" />
			<text x="432" y="397" fill="brown" font-family="Arial, Tahoma, Verdana" font-size="8">A44</text>
			<circle cx="404" cy="393" r="2" stroke="black" stroke-width="brown" fill="white" />
			<text x="396" y="391" fill="brown" font-family="Arial, Tahoma, Verdana" font-size="8">A45</text>
			<circle cx="367" cy="393" r="2" stroke="black" stroke-width="brown" fill="white" />
			<text x="359" y="391" fill="brown" font-family="Arial, Tahoma, Verdana" font-size="8">A46</text>
			<circle cx="330" cy="399" r="2" stroke="black" stroke-width="brown" fill="white" />
			<text x="322" y="397" fill="brown" font-family="Arial, Tahoma, Verdana" font-size="8">A47</text>
			<circle cx="297" cy="410" r="2" stroke="black" stroke-width="brown" fill="white" />
			<text x="289" y="408" fill="brown" font-family="Arial, Tahoma, Verdana" font-size="8">A48</text>
			<circle cx="267" cy="427" r="2" stroke="black" stroke-width="brown" fill="white" />
			<text x="259" y="425" fill="brown" font-family="Arial, Tahoma, Verdana" font-size="8">A49</text>
			<circle cx="244" cy="448" r="2" stroke="black" stroke-width="brown" fill="white" />
			<text x="236" y="446" fill="brown" font-family="Arial, Tahoma, Verdana" font-size="8">A50</text>
			<circle cx="228" cy="473" r="2" stroke="black" stroke-width="brown" fill="white" />
			<text x="220" y="471" fill="brown" font-family="Arial, Tahoma, Verdana" font-size="8">A51</text>
			<circle cx="220" cy="499" r="2" stroke="black" stroke-width="brown" fill="white" />
			<text x="212" y="497" fill="brown" font-family="Arial, Tahoma, Verdana" font-size="8">A52</text>
			<circle cx="220" cy="527" r="2" stroke="black" stroke-width="brown" fill="white" />
			<text x="212" y="525" fill="brown" font-family="Arial, Tahoma, Verdana" font-size="8">A53</text>
			<circle cx="229" cy="553" r="2" stroke="black" stroke-width="brown" fill="white" />
			<text x="221" y="551" fill="brown" font-family="Arial, Tahoma, Verdana" font-size="8">A54</text>
			<circle cx="246" cy="577" r="2" stroke="black" stroke-width="brown" fill="white" />
			<text x="238" y="575" fill="brown" font-family="Arial, Tahoma, Verdana" font-size="8">A55</text>
			<circle cx="269" cy="598" r="2" stroke="black" stroke-width="brown" fill="white" />
			<text x="261" y="596" fill="brown" font-family="Arial, Tahoma, Verdana" font-size="8">A56</text>
			<circle cx="299" cy="615" r="2" stroke="black" stroke-width="brown" fill="white" />
			<text x="291" y="613" fill="brown" font-family="Arial, Tahoma, Verdana" font-size="8">A57</text>
			<circle cx="333" cy="626" r="2" stroke="black" stroke-width="brown" fill="white" />
			<text x="325" y="624" fill="brown" font-family="Arial, Tahoma, Verdana" font-size="8">A58</text>
			<circle cx="370" cy="632" r="2" stroke="black" stroke-width="brown" fill="white" />
			<text x="362" y="630" fill="brown" font-family="Arial, Tahoma, Verdana" font-size="8">A59</text>
			<path d="M 275 338 q 0 0 109 294" stroke="brown" stroke-width="0.5" fill="none" /><path d="M 146 441 q 0 0 275 188" stroke="brown" stroke-width="0.5" fill="none" /><path d="M 608 604 q 0 0 -152 16" stroke="brown" stroke-width="0.5" fill="none" /><path d="M 608 604 q 0 0 -120 1" stroke="brown" stroke-width="0.5" fill="none" /><path d="M 608 604 q 0 0 -94 -18" stroke="brown" stroke-width="0.5" fill="none" /><path d="M 456 620 q 0 0 32 -15" stroke="brown" stroke-width="0.5" fill="none" /><path d="M 456 620 q 0 0 58 -34" stroke="brown" stroke-width="0.5" fill="none" /><path d="M 488 605 q 0 0 26 -19" stroke="brown" stroke-width="0.5" fill="none" /><path d="M 521 674 q 0 0 13 -111" stroke="brown" stroke-width="0.5" fill="none" /><path d="M 177 625 q 0 0 368 -88" stroke="brown" stroke-width="0.5" fill="none" /><path d="M 177 399 q 0 0 372 111" stroke="brown" stroke-width="1.59861228867" fill="none" /><path d="M 177 399 q 0 0 367 84" stroke="brown" stroke-width="0.5" fill="none" /><path d="M 549 510 q 0 0 -5 -27" stroke="brown" stroke-width="0.5" fill="none" /><path d="M 531 458 q 0 0 109 54" stroke="brown" stroke-width="1.19314718056" fill="none" /><path d="M 177 625 q 0 0 159 -302" stroke="blue" stroke-width="0.5" fill="none" /><path d="M 571 381 q 0 0 -61 54" stroke="brown" stroke-width="0.5" fill="none" /><path d="M 608 604 q 0 0 -224 28" stroke="brown" stroke-width="0.5" fill="none" /><path d="M 336 323 q 0 0 147 93" stroke="brown" stroke-width="1.19314718056" fill="none" /><path d="M 632 560 q 0 0 -181 -158" stroke="brown" stroke-width="1.19314718056" fill="none" /><path d="M 275 686 q 0 0 140 -292" stroke="brown" stroke-width="1.19314718056" fill="none" /><path d="M 275 686 q 0 0 103 -294" stroke="brown" stroke-width="0.5" fill="none" /><path d="M 415 394 q 0 0 -37 -2" stroke="brown" stroke-width="0.5" fill="none" /><path d="M 521 674 q 0 0 -185 -351" stroke="blue" stroke-width="1.19314718056" fill="none" /><path d="M 521 674 q 0 0 -38 -258" stroke="brown" stroke-width="0.5" fill="none" /><path d="M 400 704 q 0 0 -59 -308" stroke="brown" stroke-width="0.5" fill="none" /><path d="M 400 704 q 0 0 -93 -298" stroke="brown" stroke-width="0.5" fill="none" /><path d="M 400 704 q 0 0 -124 -283" stroke="brown" stroke-width="0.5" fill="none" /><path d="M 400 704 q 0 0 -64 -3" stroke="blue" stroke-width="0.5" fill="none" /><path d="M 400 704 q 0 0 121 -30" stroke="blue" stroke-width="0.5" fill="none" /><path d="M 400 704 q 0 0 208 -100" stroke="blue" stroke-width="0.5" fill="none" /><path d="M 400 704 q 0 0 -254 -121" stroke="blue" stroke-width="0.5" fill="none" /><path d="M 400 704 q 0 0 -149 -263" stroke="brown" stroke-width="0.5" fill="none" /><path d="M 341 396 q 0 0 -34 10" stroke="brown" stroke-width="0.5" fill="none" /><path d="M 341 396 q 0 0 -65 25" stroke="brown" stroke-width="0.5" fill="none" /><path d="M 341 396 q 0 0 -5 305" stroke="brown" stroke-width="0.5" fill="none" /><path d="M 341 396 q 0 0 180 278" stroke="brown" stroke-width="0.5" fill="none" /><path d="M 341 396 q 0 0 267 208" stroke="brown" stroke-width="0.5" fill="none" /><path d="M 341 396 q 0 0 -195 187" stroke="brown" stroke-width="0.5" fill="none" /><path d="M 341 396 q 0 0 -90 45" stroke="brown" stroke-width="0.5" fill="none" /><path d="M 307 406 q 0 0 -31 15" stroke="brown" stroke-width="0.5" fill="none" /><path d="M 307 406 q 0 0 29 295" stroke="brown" stroke-width="0.5" fill="none" /><path d="M 307 406 q 0 0 214 268" stroke="brown" stroke-width="0.5" fill="none" /><path d="M 307 406 q 0 0 301 198" stroke="brown" stroke-width="1.19314718056" fill="none" /><path d="M 307 406 q 0 0 -161 177" stroke="brown" stroke-width="0.5" fill="none" /><path d="M 307 406 q 0 0 -56 35" stroke="brown" stroke-width="0.5" fill="none" /><path d="M 276 421 q 0 0 60 280" stroke="brown" stroke-width="0.5" fill="none" /><path d="M 276 421 q 0 0 245 253" stroke="brown" stroke-width="0.5" fill="none" /><path d="M 276 421 q 0 0 332 183" stroke="brown" stroke-width="0.5" fill="none" /><path d="M 276 421 q 0 0 -130 162" stroke="brown" stroke-width="0.5" fill="none" /><path d="M 276 421 q 0 0 -25 20" stroke="brown" stroke-width="0.5" fill="none" /><path d="M 336 701 q 0 0 185 -27" stroke="blue" stroke-width="0.5" fill="none" /><path d="M 336 701 q 0 0 272 -97" stroke="blue" stroke-width="0.5" fill="none" /><path d="M 336 701 q 0 0 -190 -118" stroke="blue" stroke-width="0.5" fill="none" /><path d="M 336 701 q 0 0 -85 -260" stroke="brown" stroke-width="0.5" fill="none" /><path d="M 521 674 q 0 0 87 -70" stroke="blue" stroke-width="0.5" fill="none" /><path d="M 521 674 q 0 0 -375 -91" stroke="blue" stroke-width="0.5" fill="none" /><path d="M 521 674 q 0 0 -270 -233" stroke="brown" stroke-width="0.5" fill="none" /><path d="M 608 604 q 0 0 -462 -21" stroke="blue" stroke-width="0.5" fill="none" /><path d="M 608 604 q 0 0 -357 -163" stroke="brown" stroke-width="0.5" fill="none" /><path d="M 146 583 q 0 0 105 -142" stroke="brown" stroke-width="0.5" fill="none" /><path d="M 521 674 q 0 0 -289 -209" stroke="brown" stroke-width="0.5" fill="none" /><path d="M 608 604 q 0 0 -386 -113" stroke="brown" stroke-width="0.5" fill="none" /><path d="M 275 686 q 0 0 -56 -168" stroke="brown" stroke-width="1.19314718056" fill="none" /><path d="M 307 406 q 0 0 29 -83" stroke="brown" stroke-width="0.5" fill="none" /><path d="M 608 604 q 0 0 -272 -281" stroke="blue" stroke-width="0.5" fill="none" /><path d="M 225 545 q 0 0 346 98" stroke="brown" stroke-width="0.5" fill="none" /><path d="M 608 604 q 0 0 -387 -240" stroke="blue" stroke-width="0.5" fill="none" /><path d="M 275 686 q 0 0 333 -82" stroke="blue" stroke-width="0.5" fill="none" /><path d="M 275 686 q 0 0 -35 -116" stroke="brown" stroke-width="0.5" fill="none" /><path d="M 608 604 q 0 0 -368 -34" stroke="brown" stroke-width="0.5" fill="none" /><path d="M 177 625 q 0 0 98 -287" stroke="blue" stroke-width="1.19314718056" fill="none" /><path d="M 177 625 q 0 0 84 -33" stroke="brown" stroke-width="1.59861228867" fill="none" /><path d="M 275 338 q 0 0 -14 254" stroke="brown" stroke-width="1.19314718056" fill="none" /><path d="M 632 560 q 0 0 -343 50" stroke="brown" stroke-width="1.19314718056" fill="none" /><path d="M 632 560 q 0 0 -248 72" stroke="brown" stroke-width="0.5" fill="none" /><path d="M 451 402 q 0 0 -67 230" stroke="brown" stroke-width="0.5" fill="none" /><path d="M 146 583 q 0 0 176 40" stroke="brown" stroke-width="0.5" fill="none" /><path d="M 608 604 q 0 0 -250 27" stroke="brown" stroke-width="0.5" fill="none" /><path d="M 275 686 q 0 0 121 -54" stroke="brown" stroke-width="0.5" fill="none" /><path d="M 219 518 q 0 0 177 114" stroke="brown" stroke-width="0.5" fill="none" /><path d="M 177 399 q 0 0 255 228" stroke="brown" stroke-width="0.5" fill="none" /><path d="M 549 510 q 0 0 -117 117" stroke="brown" stroke-width="0.5" fill="none" /><path d="M 608 604 q 0 0 -141 12" stroke="brown" stroke-width="0.5" fill="none" /><path d="M 608 604 q 0 0 -111 -4" stroke="brown" stroke-width="0.5" fill="none" /><path d="M 467 616 q 0 0 30 -16" stroke="brown" stroke-width="0.5" fill="none" /><path d="M 521 674 q 0 0 0 -95" stroke="brown" stroke-width="0.5" fill="none" /><path d="M 336 323 q 0 0 202 232" stroke="brown" stroke-width="0.5" fill="none" /><path d="M 463 329 q 0 0 -79 303" stroke="brown" stroke-width="0.5" fill="none" /><path d="M 463 695 q 0 0 84 -166" stroke="brown" stroke-width="0.5" fill="none" /><path d="M 463 695 q 0 0 85 -193" stroke="brown" stroke-width="0.5" fill="none" /><path d="M 547 529 q 0 0 1 -27" stroke="brown" stroke-width="0.5" fill="none" /><path d="M 608 420 q 0 0 -67 55" stroke="brown" stroke-width="1.19314718056" fill="none" /><path d="M 571 381 q 0 0 -46 69" stroke="brown" stroke-width="0.5" fill="none" /><path d="M 571 381 q 0 0 -68 48" stroke="brown" stroke-width="0.5" fill="none" /><path d="M 525 450 q 0 0 -22 -21" stroke="brown" stroke-width="0.5" fill="none" /><path d="M 146 583 q 0 0 328 -172" stroke="brown" stroke-width="0.5" fill="none" /><path d="M 146 583 q 0 0 294 -184" stroke="brown" stroke-width="0.5" fill="none" /><path d="M 474 411 q 0 0 -34 -12" stroke="brown" stroke-width="0.5" fill="none" /><path d="M 177 399 q 0 0 227 -6" stroke="brown" stroke-width="0.5" fill="none" /><path d="M 275 686 q 0 0 365 -174" stroke="blue" stroke-width="1.19314718056" fill="none" /><path d="M 275 686 q 0 0 92 -293" stroke="brown" stroke-width="0.5" fill="none" /><path d="M 640 512 q 0 0 -273 -119" stroke="brown" stroke-width="0.5" fill="none" /><path d="M 330 399 q 0 0 -55 -61" stroke="brown" stroke-width="0.5" fill="none" /><path d="M 330 399 q 0 0 -33 11" stroke="brown" stroke-width="0.5" fill="none" /><path d="M 275 338 q 0 0 22 72" stroke="brown" stroke-width="0.5" fill="none" /><path d="M 336 323 q 0 0 -69 104" stroke="brown" stroke-width="0.5" fill="none" /><path d="M 275 338 q 0 0 -31 110" stroke="brown" stroke-width="1.19314718056" fill="none" /><path d="M 531 458 q 0 0 -256 228" stroke="brown" stroke-width="0.5" fill="none" /><path d="M 275 338 q 0 0 -47 135" stroke="brown" stroke-width="0.5" fill="none" /><path d="M 640 512 q 0 0 -420 -13" stroke="brown" stroke-width="0.5" fill="none" /><path d="M 220 527 q 0 0 301 147" stroke="brown" stroke-width="0.5" fill="none" /><path d="M 608 604 q 0 0 -379 -51" stroke="brown" stroke-width="0.5" fill="none" /><path d="M 130 488 q 0 0 116 89" stroke="brown" stroke-width="0.5" fill="none" /><path d="M 130 488 q 0 0 139 110" stroke="brown" stroke-width="0.5" fill="none" /><path d="M 130 488 q 0 0 169 127" stroke="brown" stroke-width="0.5" fill="none" /><path d="M 246 577 q 0 0 23 21" stroke="brown" stroke-width="0.5" fill="none" /><path d="M 246 577 q 0 0 53 38" stroke="brown" stroke-width="0.5" fill="none" /><path d="M 269 598 q 0 0 30 17" stroke="brown" stroke-width="0.5" fill="none" /><path d="M 333 626 q 0 0 3 -303" stroke="brown" stroke-width="0.5" fill="none" /><path d="M 521 674 q 0 0 -151 -42" stroke="brown" stroke-width="0.5" fill="none" /><text x="510" y="180" fill="black" font-family="Arial, Tahoma, Verdana" font-size="10">UFPR</text>
			<text x="510" y="480" fill="black" font-family="Arial, Tahoma, Verdana" font-size="10">UFSCAR</text>
			
					</svg>