<?xml version="1.0" standalone="no"?>
					<!DOCTYPE svg PUBLIC "-//W3C//DTD SVG 1.1//EN" "http://www.w3.org/Graphics/SVG/1.1/DTD/svg11.dtd">
					<svg xmlns="http://www.w3.org/2000/svg" version="1.1" height="1024px" width="768px"> 
					<text x="10" y="20" fill="black" font-family="Arial, Tahoma, Verdana" font-size="20">Programas de Pós-Graduação em Ciência da Informação</text>
			<text x="284" y="432" fill="black" font-family="Arial, Tahoma, Verdana" font-size="14">UEL-PPGCI</text>
			<circle cx="640" cy="512" r="2" stroke="black" stroke-width="grey" fill="white" />
			<text x="626" y="505" fill="grey" font-family="Arial, Tahoma, Verdana" font-size="14">P01</text>
			<circle cx="599" cy="616" r="2" stroke="black" stroke-width="grey" fill="white" />
			<text x="585" y="609" fill="grey" font-family="Arial, Tahoma, Verdana" font-size="14">P02</text>
			<circle cx="490" cy="687" r="2" stroke="black" stroke-width="grey" fill="white" />
			<text x="476" y="680" fill="grey" font-family="Arial, Tahoma, Verdana" font-size="14">P03</text>
			<circle cx="348" cy="702" r="2" stroke="black" stroke-width="grey" fill="white" />
			<text x="334" y="695" fill="grey" font-family="Arial, Tahoma, Verdana" font-size="14">P04</text>
			<circle cx="216" cy="657" r="2" stroke="black" stroke-width="grey" fill="white" />
			<text x="202" y="650" fill="grey" font-family="Arial, Tahoma, Verdana" font-size="14">P05</text>
			<circle cx="138" cy="566" r="2" stroke="black" stroke-width="grey" fill="white" />
			<text x="124" y="559" fill="grey" font-family="Arial, Tahoma, Verdana" font-size="14">P06</text>
			<circle cx="138" cy="458" r="2" stroke="black" stroke-width="grey" fill="white" />
			<text x="124" y="451" fill="grey" font-family="Arial, Tahoma, Verdana" font-size="14">P07</text>
			<circle cx="216" cy="367" r="2" stroke="black" stroke-width="grey" fill="white" />
			<text x="202" y="360" fill="grey" font-family="Arial, Tahoma, Verdana" font-size="14">P08</text>
			<circle cx="348" cy="322" r="2" stroke="black" stroke-width="grey" fill="white" />
			<text x="334" y="315" fill="grey" font-family="Arial, Tahoma, Verdana" font-size="14">P09</text>
			<circle cx="490" cy="337" r="2" stroke="black" stroke-width="grey" fill="white" />
			<text x="476" y="330" fill="grey" font-family="Arial, Tahoma, Verdana" font-size="14">P10</text>
			<circle cx="599" cy="408" r="2" stroke="black" stroke-width="grey" fill="white" />
			<text x="585" y="401" fill="grey" font-family="Arial, Tahoma, Verdana" font-size="14">P11</text>
			<circle cx="384" cy="632" r="2" stroke="black" stroke-width="brown" fill="white" />
			<text x="376" y="630" fill="brown" font-family="Arial, Tahoma, Verdana" font-size="8">A01</text>
			<circle cx="421" cy="629" r="2" stroke="black" stroke-width="brown" fill="white" />
			<text x="413" y="627" fill="brown" font-family="Arial, Tahoma, Verdana" font-size="8">A02</text>
			<circle cx="456" cy="620" r="2" stroke="black" stroke-width="brown" fill="white" />
			<text x="448" y="618" fill="brown" font-family="Arial, Tahoma, Verdana" font-size="8">A03</text>
			<circle cx="488" cy="605" r="2" stroke="black" stroke-width="brown" fill="white" />
			<text x="480" y="603" fill="brown" font-family="Arial, Tahoma, Verdana" font-size="8">A04</text>
			<circle cx="514" cy="586" r="2" stroke="black" stroke-width="brown" fill="white" />
			<text x="506" y="584" fill="brown" font-family="Arial, Tahoma, Verdana" font-size="8">A05</text>
			<circle cx="534" cy="563" r="2" stroke="black" stroke-width="brown" fill="white" />
			<text x="526" y="561" fill="brown" font-family="Arial, Tahoma, Verdana" font-size="8">A06</text>
			<circle cx="545" cy="537" r="2" stroke="black" stroke-width="brown" fill="white" />
			<text x="537" y="535" fill="brown" font-family="Arial, Tahoma, Verdana" font-size="8">A07</text>
			<circle cx="549" cy="510" r="2" stroke="black" stroke-width="brown" fill="white" />
			<text x="541" y="508" fill="brown" font-family="Arial, Tahoma, Verdana" font-size="8">A08</text>
			<circle cx="544" cy="483" r="2" stroke="black" stroke-width="brown" fill="white" />
			<text x="536" y="481" fill="brown" font-family="Arial, Tahoma, Verdana" font-size="8">A09</text>
			<circle cx="531" cy="458" r="2" stroke="black" stroke-width="brown" fill="white" />
			<text x="523" y="456" fill="brown" font-family="Arial, Tahoma, Verdana" font-size="8">A10</text>
			<circle cx="510" cy="435" r="2" stroke="black" stroke-width="brown" fill="white" />
			<text x="502" y="433" fill="brown" font-family="Arial, Tahoma, Verdana" font-size="8">A11</text>
			<circle cx="483" cy="416" r="2" stroke="black" stroke-width="brown" fill="white" />
			<text x="475" y="414" fill="brown" font-family="Arial, Tahoma, Verdana" font-size="8">A12</text>
			<circle cx="451" cy="402" r="2" stroke="black" stroke-width="brown" fill="white" />
			<text x="443" y="400" fill="brown" font-family="Arial, Tahoma, Verdana" font-size="8">A13</text>
			<circle cx="415" cy="394" r="2" stroke="black" stroke-width="brown" fill="white" />
			<text x="407" y="392" fill="brown" font-family="Arial, Tahoma, Verdana" font-size="8">A14</text>
			<circle cx="378" cy="392" r="2" stroke="black" stroke-width="brown" fill="white" />
			<text x="370" y="390" fill="brown" font-family="Arial, Tahoma, Verdana" font-size="8">A15</text>
			<path d="M 599 408 q 0 0 -215 224" stroke="brown" stroke-width="1.59861228867" fill="none" /><path d="M 599 408 q 0 0 -178 221" stroke="brown" stroke-width="0.5" fill="none" /><path d="M 599 408 q 0 0 -143 212" stroke="brown" stroke-width="0.5" fill="none" /><path d="M 599 408 q 0 0 -111 197" stroke="brown" stroke-width="0.5" fill="none" /><path d="M 599 408 q 0 0 -85 178" stroke="brown" stroke-width="0.5" fill="none" /><path d="M 456 620 q 0 0 32 -15" stroke="brown" stroke-width="0.5" fill="none" /><path d="M 456 620 q 0 0 58 -34" stroke="brown" stroke-width="0.5" fill="none" /><path d="M 488 605 q 0 0 26 -19" stroke="brown" stroke-width="0.5" fill="none" /><path d="M 599 408 q 0 0 -65 155" stroke="brown" stroke-width="0.5" fill="none" /><path d="M 599 408 q 0 0 -54 129" stroke="brown" stroke-width="0.5" fill="none" /><path d="M 138 458 q 0 0 411 52" stroke="brown" stroke-width="1.19314718056" fill="none" /><path d="M 138 458 q 0 0 406 25" stroke="brown" stroke-width="0.5" fill="none" /><path d="M 549 510 q 0 0 -5 -27" stroke="brown" stroke-width="0.5" fill="none" /><path d="M 599 408 q 0 0 -68 50" stroke="brown" stroke-width="0.5" fill="none" /><path d="M 138 458 q 0 0 372 -23" stroke="brown" stroke-width="0.5" fill="none" /><path d="M 599 408 q 0 0 -116 8" stroke="brown" stroke-width="1.19314718056" fill="none" /><path d="M 599 408 q 0 0 -148 -6" stroke="brown" stroke-width="0.5" fill="none" /><path d="M 490 337 q 0 0 -75 57" stroke="brown" stroke-width="0.5" fill="none" /><path d="M 490 337 q 0 0 -112 55" stroke="brown" stroke-width="0.5" fill="none" /><text x="510" y="180" fill="black" font-family="Arial, Tahoma, Verdana" font-size="10">UFPR</text>
			<text x="510" y="480" fill="black" font-family="Arial, Tahoma, Verdana" font-size="10">UFSCAR</text>
			
					</svg>