<?xml version="1.0" standalone="no"?>
					<!DOCTYPE svg PUBLIC "-//W3C//DTD SVG 1.1//EN" "http://www.w3.org/Graphics/SVG/1.1/DTD/svg11.dtd">
					<svg xmlns="http://www.w3.org/2000/svg" version="1.1" height="1024px" width="768px"> 
					<text x="10" y="20" fill="black" font-family="Arial, Tahoma, Verdana" font-size="20">Programas de Pós-Graduação em Ciência da Informação</text>
			<text x="284" y="432" fill="black" font-family="Arial, Tahoma, Verdana" font-size="14">UNESP-PPGI</text>
			<circle cx="640" cy="512" r="2" stroke="black" stroke-width="grey" fill="white" />
			<text x="626" y="505" fill="grey" font-family="Arial, Tahoma, Verdana" font-size="14">P01</text>
			<circle cx="631" cy="564" r="2" stroke="black" stroke-width="grey" fill="white" />
			<text x="617" y="557" fill="grey" font-family="Arial, Tahoma, Verdana" font-size="14">P02</text>
			<circle cx="603" cy="612" r="2" stroke="black" stroke-width="grey" fill="white" />
			<text x="589" y="605" fill="grey" font-family="Arial, Tahoma, Verdana" font-size="14">P03</text>
			<circle cx="559" cy="652" r="2" stroke="black" stroke-width="grey" fill="white" />
			<text x="545" y="645" fill="grey" font-family="Arial, Tahoma, Verdana" font-size="14">P04</text>
			<circle cx="502" cy="682" r="2" stroke="black" stroke-width="grey" fill="white" />
			<text x="488" y="675" fill="grey" font-family="Arial, Tahoma, Verdana" font-size="14">P05</text>
			<circle cx="436" cy="700" r="2" stroke="black" stroke-width="grey" fill="white" />
			<text x="422" y="693" fill="grey" font-family="Arial, Tahoma, Verdana" font-size="14">P06</text>
			<circle cx="367" cy="704" r="2" stroke="black" stroke-width="grey" fill="white" />
			<text x="353" y="697" fill="grey" font-family="Arial, Tahoma, Verdana" font-size="14">P07</text>
			<circle cx="298" cy="693" r="2" stroke="black" stroke-width="grey" fill="white" />
			<text x="284" y="686" fill="grey" font-family="Arial, Tahoma, Verdana" font-size="14">P08</text>
			<circle cx="236" cy="669" r="2" stroke="black" stroke-width="grey" fill="white" />
			<text x="222" y="662" fill="grey" font-family="Arial, Tahoma, Verdana" font-size="14">P09</text>
			<circle cx="185" cy="633" r="2" stroke="black" stroke-width="grey" fill="white" />
			<text x="171" y="626" fill="grey" font-family="Arial, Tahoma, Verdana" font-size="14">P10</text>
			<circle cx="149" cy="588" r="2" stroke="black" stroke-width="grey" fill="white" />
			<text x="135" y="581" fill="grey" font-family="Arial, Tahoma, Verdana" font-size="14">P11</text>
			<circle cx="130" cy="538" r="2" stroke="black" stroke-width="grey" fill="white" />
			<text x="116" y="531" fill="grey" font-family="Arial, Tahoma, Verdana" font-size="14">P12</text>
			<circle cx="130" cy="486" r="2" stroke="black" stroke-width="grey" fill="white" />
			<text x="116" y="479" fill="grey" font-family="Arial, Tahoma, Verdana" font-size="14">P13</text>
			<circle cx="149" cy="436" r="2" stroke="black" stroke-width="grey" fill="white" />
			<text x="135" y="429" fill="grey" font-family="Arial, Tahoma, Verdana" font-size="14">P14</text>
			<circle cx="185" cy="391" r="2" stroke="black" stroke-width="grey" fill="white" />
			<text x="171" y="384" fill="grey" font-family="Arial, Tahoma, Verdana" font-size="14">P15</text>
			<circle cx="236" cy="355" r="2" stroke="black" stroke-width="grey" fill="white" />
			<text x="222" y="348" fill="grey" font-family="Arial, Tahoma, Verdana" font-size="14">P16</text>
			<circle cx="298" cy="331" r="2" stroke="black" stroke-width="grey" fill="white" />
			<text x="284" y="324" fill="grey" font-family="Arial, Tahoma, Verdana" font-size="14">P17</text>
			<circle cx="367" cy="320" r="2" stroke="black" stroke-width="grey" fill="white" />
			<text x="353" y="313" fill="grey" font-family="Arial, Tahoma, Verdana" font-size="14">P18</text>
			<circle cx="436" cy="324" r="2" stroke="black" stroke-width="grey" fill="white" />
			<text x="422" y="317" fill="grey" font-family="Arial, Tahoma, Verdana" font-size="14">P19</text>
			<circle cx="502" cy="342" r="2" stroke="black" stroke-width="grey" fill="white" />
			<text x="488" y="335" fill="grey" font-family="Arial, Tahoma, Verdana" font-size="14">P20</text>
			<circle cx="559" cy="372" r="2" stroke="black" stroke-width="grey" fill="white" />
			<text x="545" y="365" fill="grey" font-family="Arial, Tahoma, Verdana" font-size="14">P21</text>
			<circle cx="603" cy="412" r="2" stroke="black" stroke-width="grey" fill="white" />
			<text x="589" y="405" fill="grey" font-family="Arial, Tahoma, Verdana" font-size="14">P22</text>
			<circle cx="631" cy="460" r="2" stroke="black" stroke-width="grey" fill="white" />
			<text x="617" y="453" fill="grey" font-family="Arial, Tahoma, Verdana" font-size="14">P23</text>
			<circle cx="384" cy="632" r="2" stroke="black" stroke-width="brown" fill="white" />
			<text x="376" y="630" fill="brown" font-family="Arial, Tahoma, Verdana" font-size="8">A01</text>
			<circle cx="421" cy="629" r="2" stroke="black" stroke-width="brown" fill="white" />
			<text x="413" y="627" fill="brown" font-family="Arial, Tahoma, Verdana" font-size="8">A02</text>
			<circle cx="384" cy="632" r="2" stroke="black" stroke-width="brown" fill="white" />
			<text x="376" y="630" fill="brown" font-family="Arial, Tahoma, Verdana" font-size="8">A03</text>
			<circle cx="384" cy="632" r="2" stroke="black" stroke-width="brown" fill="white" />
			<text x="376" y="630" fill="brown" font-family="Arial, Tahoma, Verdana" font-size="8">A04</text>
			<circle cx="456" cy="620" r="2" stroke="black" stroke-width="brown" fill="white" />
			<text x="448" y="618" fill="brown" font-family="Arial, Tahoma, Verdana" font-size="8">A05</text>
			<circle cx="488" cy="605" r="2" stroke="black" stroke-width="brown" fill="white" />
			<text x="480" y="603" fill="brown" font-family="Arial, Tahoma, Verdana" font-size="8">A06</text>
			<circle cx="514" cy="586" r="2" stroke="black" stroke-width="brown" fill="white" />
			<text x="506" y="584" fill="brown" font-family="Arial, Tahoma, Verdana" font-size="8">A07</text>
			<circle cx="384" cy="632" r="2" stroke="black" stroke-width="brown" fill="white" />
			<text x="376" y="630" fill="brown" font-family="Arial, Tahoma, Verdana" font-size="8">A08</text>
			<circle cx="421" cy="629" r="2" stroke="black" stroke-width="brown" fill="white" />
			<text x="413" y="627" fill="brown" font-family="Arial, Tahoma, Verdana" font-size="8">A09</text>
			<circle cx="384" cy="632" r="2" stroke="black" stroke-width="brown" fill="white" />
			<text x="376" y="630" fill="brown" font-family="Arial, Tahoma, Verdana" font-size="8">A10</text>
			<circle cx="421" cy="629" r="2" stroke="black" stroke-width="brown" fill="white" />
			<text x="413" y="627" fill="brown" font-family="Arial, Tahoma, Verdana" font-size="8">A11</text>
			<circle cx="456" cy="620" r="2" stroke="black" stroke-width="brown" fill="white" />
			<text x="448" y="618" fill="brown" font-family="Arial, Tahoma, Verdana" font-size="8">A12</text>
			<circle cx="534" cy="563" r="2" stroke="black" stroke-width="brown" fill="white" />
			<text x="526" y="561" fill="brown" font-family="Arial, Tahoma, Verdana" font-size="8">A13</text>
			<circle cx="488" cy="605" r="2" stroke="black" stroke-width="brown" fill="white" />
			<text x="480" y="603" fill="brown" font-family="Arial, Tahoma, Verdana" font-size="8">A14</text>
			<circle cx="545" cy="537" r="2" stroke="black" stroke-width="brown" fill="white" />
			<text x="537" y="535" fill="brown" font-family="Arial, Tahoma, Verdana" font-size="8">A15</text>
			<circle cx="549" cy="510" r="2" stroke="black" stroke-width="brown" fill="white" />
			<text x="541" y="508" fill="brown" font-family="Arial, Tahoma, Verdana" font-size="8">A16</text>
			<circle cx="514" cy="586" r="2" stroke="black" stroke-width="brown" fill="white" />
			<text x="506" y="584" fill="brown" font-family="Arial, Tahoma, Verdana" font-size="8">A17</text>
			<circle cx="544" cy="483" r="2" stroke="black" stroke-width="brown" fill="white" />
			<text x="536" y="481" fill="brown" font-family="Arial, Tahoma, Verdana" font-size="8">A18</text>
			<circle cx="531" cy="458" r="2" stroke="black" stroke-width="brown" fill="white" />
			<text x="523" y="456" fill="brown" font-family="Arial, Tahoma, Verdana" font-size="8">A19</text>
			<circle cx="510" cy="435" r="2" stroke="black" stroke-width="brown" fill="white" />
			<text x="502" y="433" fill="brown" font-family="Arial, Tahoma, Verdana" font-size="8">A20</text>
			<circle cx="483" cy="416" r="2" stroke="black" stroke-width="brown" fill="white" />
			<text x="475" y="414" fill="brown" font-family="Arial, Tahoma, Verdana" font-size="8">A21</text>
			<circle cx="384" cy="632" r="2" stroke="black" stroke-width="brown" fill="white" />
			<text x="376" y="630" fill="brown" font-family="Arial, Tahoma, Verdana" font-size="8">A22</text>
			<circle cx="421" cy="629" r="2" stroke="black" stroke-width="brown" fill="white" />
			<text x="413" y="627" fill="brown" font-family="Arial, Tahoma, Verdana" font-size="8">A23</text>
			<circle cx="451" cy="402" r="2" stroke="black" stroke-width="brown" fill="white" />
			<text x="443" y="400" fill="brown" font-family="Arial, Tahoma, Verdana" font-size="8">A24</text>
			<circle cx="415" cy="394" r="2" stroke="black" stroke-width="brown" fill="white" />
			<text x="407" y="392" fill="brown" font-family="Arial, Tahoma, Verdana" font-size="8">A25</text>
			<circle cx="378" cy="392" r="2" stroke="black" stroke-width="brown" fill="white" />
			<text x="370" y="390" fill="brown" font-family="Arial, Tahoma, Verdana" font-size="8">A26</text>
			<circle cx="341" cy="396" r="2" stroke="black" stroke-width="brown" fill="white" />
			<text x="333" y="394" fill="brown" font-family="Arial, Tahoma, Verdana" font-size="8">A27</text>
			<circle cx="307" cy="406" r="2" stroke="black" stroke-width="brown" fill="white" />
			<text x="299" y="404" fill="brown" font-family="Arial, Tahoma, Verdana" font-size="8">A28</text>
			<circle cx="534" cy="563" r="2" stroke="black" stroke-width="brown" fill="white" />
			<text x="526" y="561" fill="brown" font-family="Arial, Tahoma, Verdana" font-size="8">A29</text>
			<circle cx="276" cy="421" r="2" stroke="black" stroke-width="brown" fill="white" />
			<text x="268" y="419" fill="brown" font-family="Arial, Tahoma, Verdana" font-size="8">A30</text>
			<circle cx="251" cy="441" r="2" stroke="black" stroke-width="brown" fill="white" />
			<text x="243" y="439" fill="brown" font-family="Arial, Tahoma, Verdana" font-size="8">A31</text>
			<circle cx="232" cy="465" r="2" stroke="black" stroke-width="brown" fill="white" />
			<text x="224" y="463" fill="brown" font-family="Arial, Tahoma, Verdana" font-size="8">A32</text>
			<circle cx="222" cy="491" r="2" stroke="black" stroke-width="brown" fill="white" />
			<text x="214" y="489" fill="brown" font-family="Arial, Tahoma, Verdana" font-size="8">A33</text>
			<circle cx="456" cy="620" r="2" stroke="black" stroke-width="brown" fill="white" />
			<text x="448" y="618" fill="brown" font-family="Arial, Tahoma, Verdana" font-size="8">A34</text>
			<circle cx="219" cy="518" r="2" stroke="black" stroke-width="brown" fill="white" />
			<text x="211" y="516" fill="brown" font-family="Arial, Tahoma, Verdana" font-size="8">A35</text>
			<circle cx="225" cy="545" r="2" stroke="black" stroke-width="brown" fill="white" />
			<text x="217" y="543" fill="brown" font-family="Arial, Tahoma, Verdana" font-size="8">A36</text>
			<circle cx="240" cy="570" r="2" stroke="black" stroke-width="brown" fill="white" />
			<text x="232" y="568" fill="brown" font-family="Arial, Tahoma, Verdana" font-size="8">A37</text>
			<circle cx="261" cy="592" r="2" stroke="black" stroke-width="brown" fill="white" />
			<text x="253" y="590" fill="brown" font-family="Arial, Tahoma, Verdana" font-size="8">A38</text>
			<circle cx="289" cy="610" r="2" stroke="black" stroke-width="brown" fill="white" />
			<text x="281" y="608" fill="brown" font-family="Arial, Tahoma, Verdana" font-size="8">A39</text>
			<circle cx="322" cy="623" r="2" stroke="black" stroke-width="brown" fill="white" />
			<text x="314" y="621" fill="brown" font-family="Arial, Tahoma, Verdana" font-size="8">A40</text>
			<path d="M 502 342 q 0 0 -118 290" stroke="brown" stroke-width="0.5" fill="none" /><path d="M 149 588 q 0 0 272 41" stroke="brown" stroke-width="0.5" fill="none" /><path d="M 149 588 q 0 0 149 -257" stroke="blue" stroke-width="0.5" fill="none" /><path d="M 149 588 q 0 0 353 94" stroke="blue" stroke-width="0.5" fill="none" /><path d="M 149 588 q 0 0 235 44" stroke="brown" stroke-width="0.5" fill="none" /><path d="M 298 331 q 0 0 204 351" stroke="blue" stroke-width="0.5" fill="none" /><path d="M 298 331 q 0 0 86 301" stroke="brown" stroke-width="0.5" fill="none" /><path d="M 502 682 q 0 0 -118 -50" stroke="brown" stroke-width="0.5" fill="none" /><path d="M 502 682 q 0 0 -118 -50" stroke="brown" stroke-width="1.88629436112" fill="none" /><path d="M 236 669 q 0 0 367 -257" stroke="blue" stroke-width="0.5" fill="none" /><path d="M 236 669 q 0 0 220 -49" stroke="brown" stroke-width="0.5" fill="none" /><path d="M 236 669 q 0 0 252 -64" stroke="brown" stroke-width="0.5" fill="none" /><path d="M 603 412 q 0 0 -147 208" stroke="brown" stroke-width="1.59861228867" fill="none" /><path d="M 603 412 q 0 0 -115 193" stroke="brown" stroke-width="1.19314718056" fill="none" /><path d="M 456 620 q 0 0 32 -15" stroke="brown" stroke-width="0.5" fill="none" /><path d="M 603 612 q 0 0 -89 -26" stroke="brown" stroke-width="0.5" fill="none" /><path d="M 236 669 q 0 0 148 -37" stroke="brown" stroke-width="0.5" fill="none" /><path d="M 236 669 q 0 0 185 -40" stroke="brown" stroke-width="1.19314718056" fill="none" /><path d="M 384 632 q 0 0 37 -3" stroke="brown" stroke-width="0.5" fill="none" /><path d="M 603 412 q 0 0 37 100" stroke="blue" stroke-width="0.5" fill="none" /><path d="M 640 512 q 0 0 -184 108" stroke="brown" stroke-width="0.5" fill="none" /><path d="M 631 460 q 0 0 -247 172" stroke="brown" stroke-width="1.19314718056" fill="none" /><path d="M 502 682 q 0 0 -81 -53" stroke="brown" stroke-width="1.19314718056" fill="none" /><path d="M 502 682 q 0 0 -46 -62" stroke="brown" stroke-width="1.19314718056" fill="none" /><path d="M 421 629 q 0 0 35 -9" stroke="brown" stroke-width="0.5" fill="none" /><path d="M 631 460 q 0 0 -97 103" stroke="brown" stroke-width="0.5" fill="none" /><path d="M 298 331 q 0 0 -113 302" stroke="blue" stroke-width="2.29175946923" fill="none" /><path d="M 502 682 q 0 0 -14 -77" stroke="brown" stroke-width="1.19314718056" fill="none" /><path d="M 603 612 q 0 0 -58 -75" stroke="brown" stroke-width="0.5" fill="none" /><path d="M 236 669 q 0 0 313 -159" stroke="brown" stroke-width="1.19314718056" fill="none" /><path d="M 502 682 q 0 0 12 -96" stroke="brown" stroke-width="0.5" fill="none" /><path d="M 298 331 q 0 0 246 152" stroke="brown" stroke-width="0.5" fill="none" /><path d="M 531 458 q 0 0 -346 175" stroke="brown" stroke-width="0.5" fill="none" /><path d="M 640 512 q 0 0 -130 -77" stroke="brown" stroke-width="0.5" fill="none" /><path d="M 502 342 q 0 0 -19 74" stroke="brown" stroke-width="0.5" fill="none" /><path d="M 640 512 q 0 0 -256 120" stroke="brown" stroke-width="0.5" fill="none" /><path d="M 640 512 q 0 0 -219 117" stroke="brown" stroke-width="0.5" fill="none" /><path d="M 384 632 q 0 0 37 -3" stroke="brown" stroke-width="0.5" fill="none" /><path d="M 236 669 q 0 0 215 -267" stroke="brown" stroke-width="1.88629436112" fill="none" /><path d="M 603 412 q 0 0 -188 -18" stroke="brown" stroke-width="1.19314718056" fill="none" /><path d="M 631 564 q 0 0 -82 -54" stroke="brown" stroke-width="0.5" fill="none" /><path d="M 631 460 q 0 0 -253 -68" stroke="brown" stroke-width="0.5" fill="none" /><path d="M 130 538 q 0 0 211 -142" stroke="brown" stroke-width="0.5" fill="none" /><path d="M 559 372 q 0 0 -252 34" stroke="brown" stroke-width="0.5" fill="none" /><path d="M 421 629 q 0 0 -37 3" stroke="brown" stroke-width="0.5" fill="none" /><path d="M 502 682 q 0 0 32 -119" stroke="brown" stroke-width="0.5" fill="none" /><path d="M 631 460 q 0 0 -355 -39" stroke="brown" stroke-width="0.5" fill="none" /><path d="M 631 460 q 0 0 -380 -19" stroke="brown" stroke-width="0.5" fill="none" /><path d="M 276 421 q 0 0 108 211" stroke="brown" stroke-width="0.5" fill="none" /><path d="M 276 421 q 0 0 -25 20" stroke="brown" stroke-width="0.5" fill="none" /><path d="M 384 632 q 0 0 -133 -191" stroke="brown" stroke-width="0.5" fill="none" /><path d="M 631 460 q 0 0 -399 5" stroke="brown" stroke-width="1.19314718056" fill="none" /><path d="M 236 355 q 0 0 -14 136" stroke="brown" stroke-width="0.5" fill="none" /><path d="M 502 342 q 0 0 -46 278" stroke="brown" stroke-width="0.5" fill="none" /><path d="M 502 342 q 0 0 -283 176" stroke="brown" stroke-width="0.5" fill="none" /><path d="M 631 460 q 0 0 -72 -88" stroke="blue" stroke-width="0.5" fill="none" /><path d="M 631 460 q 0 0 -406 85" stroke="brown" stroke-width="0.5" fill="none" /><path d="M 631 460 q 0 0 -391 110" stroke="brown" stroke-width="0.5" fill="none" /><path d="M 559 372 q 0 0 -327 93" stroke="brown" stroke-width="0.5" fill="none" /><path d="M 559 372 q 0 0 -334 173" stroke="brown" stroke-width="0.5" fill="none" /><path d="M 559 372 q 0 0 -319 198" stroke="brown" stroke-width="0.5" fill="none" /><path d="M 232 465 q 0 0 -7 80" stroke="brown" stroke-width="0.5" fill="none" /><path d="M 232 465 q 0 0 8 105" stroke="brown" stroke-width="0.5" fill="none" /><path d="M 225 545 q 0 0 15 25" stroke="brown" stroke-width="0.5" fill="none" /><path d="M 436 324 q 0 0 -175 268" stroke="brown" stroke-width="0.5" fill="none" /><path d="M 436 700 q 0 0 -147 -90" stroke="brown" stroke-width="0.5" fill="none" /><path d="M 603 412 q 0 0 -281 211" stroke="brown" stroke-width="0.5" fill="none" /><text x="510" y="180" fill="black" font-family="Arial, Tahoma, Verdana" font-size="10">UFPR</text>
			<text x="510" y="480" fill="black" font-family="Arial, Tahoma, Verdana" font-size="10">UFSCAR</text>
			
					</svg>