<?xml version="1.0" standalone="no"?>
					<!DOCTYPE svg PUBLIC "-//W3C//DTD SVG 1.1//EN" "http://www.w3.org/Graphics/SVG/1.1/DTD/svg11.dtd">
					<svg xmlns="http://www.w3.org/2000/svg" version="1.1" height="1024px" width="768px"> 
					<text x="10" y="20" fill="black" font-family="Arial, Tahoma, Verdana" font-size="20">Programas de Pós-Graduação em Ciência da Informação</text>
			<text x="284" y="432" fill="black" font-family="Arial, Tahoma, Verdana" font-size="14">UEL-PPGI</text>
			<circle cx="640" cy="512" r="2" stroke="black" stroke-width="grey" fill="white" />
			<text x="626" y="505" fill="grey" font-family="Arial, Tahoma, Verdana" font-size="14">P01</text>
			<circle cx="611" cy="601" r="2" stroke="black" stroke-width="grey" fill="white" />
			<text x="597" y="594" fill="grey" font-family="Arial, Tahoma, Verdana" font-size="14">P02</text>
			<circle cx="529" cy="670" r="2" stroke="black" stroke-width="grey" fill="white" />
			<text x="515" y="663" fill="grey" font-family="Arial, Tahoma, Verdana" font-size="14">P03</text>
			<circle cx="415" cy="703" r="2" stroke="black" stroke-width="grey" fill="white" />
			<text x="401" y="696" fill="grey" font-family="Arial, Tahoma, Verdana" font-size="14">P04</text>
			<circle cx="293" cy="692" r="2" stroke="black" stroke-width="grey" fill="white" />
			<text x="279" y="685" fill="grey" font-family="Arial, Tahoma, Verdana" font-size="14">P05</text>
			<circle cx="192" cy="639" r="2" stroke="black" stroke-width="grey" fill="white" />
			<text x="178" y="632" fill="grey" font-family="Arial, Tahoma, Verdana" font-size="14">P06</text>
			<circle cx="135" cy="558" r="2" stroke="black" stroke-width="grey" fill="white" />
			<text x="121" y="551" fill="grey" font-family="Arial, Tahoma, Verdana" font-size="14">P07</text>
			<circle cx="135" cy="466" r="2" stroke="black" stroke-width="grey" fill="white" />
			<text x="121" y="459" fill="grey" font-family="Arial, Tahoma, Verdana" font-size="14">P08</text>
			<circle cx="192" cy="385" r="2" stroke="black" stroke-width="grey" fill="white" />
			<text x="178" y="378" fill="grey" font-family="Arial, Tahoma, Verdana" font-size="14">P09</text>
			<circle cx="293" cy="332" r="2" stroke="black" stroke-width="grey" fill="white" />
			<text x="279" y="325" fill="grey" font-family="Arial, Tahoma, Verdana" font-size="14">P10</text>
			<circle cx="415" cy="321" r="2" stroke="black" stroke-width="grey" fill="white" />
			<text x="401" y="314" fill="grey" font-family="Arial, Tahoma, Verdana" font-size="14">P11</text>
			<circle cx="529" cy="354" r="2" stroke="black" stroke-width="grey" fill="white" />
			<text x="515" y="347" fill="grey" font-family="Arial, Tahoma, Verdana" font-size="14">P12</text>
			<circle cx="611" cy="423" r="2" stroke="black" stroke-width="grey" fill="white" />
			<text x="597" y="416" fill="grey" font-family="Arial, Tahoma, Verdana" font-size="14">P13</text>
			<circle cx="384" cy="632" r="2" stroke="black" stroke-width="brown" fill="white" />
			<text x="376" y="630" fill="brown" font-family="Arial, Tahoma, Verdana" font-size="8">A01</text>
			<circle cx="384" cy="632" r="2" stroke="black" stroke-width="brown" fill="white" />
			<text x="376" y="630" fill="brown" font-family="Arial, Tahoma, Verdana" font-size="8">A02</text>
			<circle cx="421" cy="629" r="2" stroke="black" stroke-width="brown" fill="white" />
			<text x="413" y="627" fill="brown" font-family="Arial, Tahoma, Verdana" font-size="8">A03</text>
			<circle cx="456" cy="620" r="2" stroke="black" stroke-width="brown" fill="white" />
			<text x="448" y="618" fill="brown" font-family="Arial, Tahoma, Verdana" font-size="8">A04</text>
			<circle cx="488" cy="605" r="2" stroke="black" stroke-width="brown" fill="white" />
			<text x="480" y="603" fill="brown" font-family="Arial, Tahoma, Verdana" font-size="8">A05</text>
			<circle cx="514" cy="586" r="2" stroke="black" stroke-width="brown" fill="white" />
			<text x="506" y="584" fill="brown" font-family="Arial, Tahoma, Verdana" font-size="8">A06</text>
			<circle cx="534" cy="563" r="2" stroke="black" stroke-width="brown" fill="white" />
			<text x="526" y="561" fill="brown" font-family="Arial, Tahoma, Verdana" font-size="8">A07</text>
			<circle cx="545" cy="537" r="2" stroke="black" stroke-width="brown" fill="white" />
			<text x="537" y="535" fill="brown" font-family="Arial, Tahoma, Verdana" font-size="8">A08</text>
			<circle cx="549" cy="510" r="2" stroke="black" stroke-width="brown" fill="white" />
			<text x="541" y="508" fill="brown" font-family="Arial, Tahoma, Verdana" font-size="8">A09</text>
			<circle cx="544" cy="483" r="2" stroke="black" stroke-width="brown" fill="white" />
			<text x="536" y="481" fill="brown" font-family="Arial, Tahoma, Verdana" font-size="8">A10</text>
			<circle cx="531" cy="458" r="2" stroke="black" stroke-width="brown" fill="white" />
			<text x="523" y="456" fill="brown" font-family="Arial, Tahoma, Verdana" font-size="8">A11</text>
			<circle cx="510" cy="435" r="2" stroke="black" stroke-width="brown" fill="white" />
			<text x="502" y="433" fill="brown" font-family="Arial, Tahoma, Verdana" font-size="8">A12</text>
			<circle cx="483" cy="416" r="2" stroke="black" stroke-width="brown" fill="white" />
			<text x="475" y="414" fill="brown" font-family="Arial, Tahoma, Verdana" font-size="8">A13</text>
			<circle cx="421" cy="629" r="2" stroke="black" stroke-width="brown" fill="white" />
			<text x="413" y="627" fill="brown" font-family="Arial, Tahoma, Verdana" font-size="8">A14</text>
			<circle cx="451" cy="402" r="2" stroke="black" stroke-width="brown" fill="white" />
			<text x="443" y="400" fill="brown" font-family="Arial, Tahoma, Verdana" font-size="8">A15</text>
			<circle cx="415" cy="394" r="2" stroke="black" stroke-width="brown" fill="white" />
			<text x="407" y="392" fill="brown" font-family="Arial, Tahoma, Verdana" font-size="8">A16</text>
			<circle cx="378" cy="392" r="2" stroke="black" stroke-width="brown" fill="white" />
			<text x="370" y="390" fill="brown" font-family="Arial, Tahoma, Verdana" font-size="8">A17</text>
			<circle cx="341" cy="396" r="2" stroke="black" stroke-width="brown" fill="white" />
			<text x="333" y="394" fill="brown" font-family="Arial, Tahoma, Verdana" font-size="8">A18</text>
			<circle cx="307" cy="406" r="2" stroke="black" stroke-width="brown" fill="white" />
			<text x="299" y="404" fill="brown" font-family="Arial, Tahoma, Verdana" font-size="8">A19</text>
			<circle cx="276" cy="421" r="2" stroke="black" stroke-width="brown" fill="white" />
			<text x="268" y="419" fill="brown" font-family="Arial, Tahoma, Verdana" font-size="8">A20</text>
			<circle cx="251" cy="441" r="2" stroke="black" stroke-width="brown" fill="white" />
			<text x="243" y="439" fill="brown" font-family="Arial, Tahoma, Verdana" font-size="8">A21</text>
			<path d="M 611 423 q 0 0 -227 209" stroke="brown" stroke-width="1.59861228867" fill="none" /><path d="M 529 354 q 0 0 -145 278" stroke="brown" stroke-width="0.5" fill="none" /><path d="M 640 512 q 0 0 -256 120" stroke="brown" stroke-width="0.5" fill="none" /><path d="M 611 423 q 0 0 -190 206" stroke="brown" stroke-width="0.5" fill="none" /><path d="M 611 423 q 0 0 -155 197" stroke="brown" stroke-width="0.5" fill="none" /><path d="M 611 423 q 0 0 -123 182" stroke="brown" stroke-width="0.5" fill="none" /><path d="M 611 423 q 0 0 -97 163" stroke="brown" stroke-width="0.5" fill="none" /><path d="M 456 620 q 0 0 32 -15" stroke="brown" stroke-width="0.5" fill="none" /><path d="M 456 620 q 0 0 58 -34" stroke="brown" stroke-width="0.5" fill="none" /><path d="M 488 605 q 0 0 26 -19" stroke="brown" stroke-width="0.5" fill="none" /><path d="M 611 423 q 0 0 -77 140" stroke="brown" stroke-width="0.5" fill="none" /><path d="M 545 537 q 0 0 -130 -216" stroke="brown" stroke-width="0.5" fill="none" /><path d="M 545 537 q 0 0 4 -27" stroke="brown" stroke-width="0.5" fill="none" /><path d="M 415 321 q 0 0 134 189" stroke="brown" stroke-width="0.5" fill="none" /><path d="M 611 423 q 0 0 -67 60" stroke="brown" stroke-width="0.5" fill="none" /><path d="M 192 639 q 0 0 339 -181" stroke="brown" stroke-width="1.19314718056" fill="none" /><path d="M 192 639 q 0 0 318 -204" stroke="brown" stroke-width="0.5" fill="none" /><path d="M 531 458 q 0 0 -21 -23" stroke="brown" stroke-width="0.5" fill="none" /><path d="M 611 423 q 0 0 -128 -7" stroke="brown" stroke-width="0.5" fill="none" /><path d="M 640 512 q 0 0 -219 117" stroke="brown" stroke-width="0.5" fill="none" /><path d="M 192 639 q 0 0 259 -237" stroke="brown" stroke-width="0.5" fill="none" /><path d="M 611 423 q 0 0 -196 -29" stroke="brown" stroke-width="1.19314718056" fill="none" /><path d="M 640 512 q 0 0 -262 -120" stroke="brown" stroke-width="0.5" fill="none" /><path d="M 640 512 q 0 0 -299 -116" stroke="brown" stroke-width="0.5" fill="none" /><path d="M 378 392 q 0 0 -37 4" stroke="brown" stroke-width="0.5" fill="none" /><path d="M 192 639 q 0 0 337 -285" stroke="blue" stroke-width="0.5" fill="none" /><path d="M 529 354 q 0 0 2 104" stroke="brown" stroke-width="0.5" fill="none" /><path d="M 611 423 q 0 0 -304 -17" stroke="brown" stroke-width="0.5" fill="none" /><path d="M 293 332 q 0 0 -17 89" stroke="brown" stroke-width="0.5" fill="none" /><path d="M 293 332 q 0 0 -42 109" stroke="brown" stroke-width="0.5" fill="none" /><text x="510" y="180" fill="black" font-family="Arial, Tahoma, Verdana" font-size="10">UFPR</text>
			<text x="510" y="480" fill="black" font-family="Arial, Tahoma, Verdana" font-size="10">UFSCAR</text>
			
					</svg>