<?xml version="1.0" standalone="no"?>
					<!DOCTYPE svg PUBLIC "-//W3C//DTD SVG 1.1//EN" "http://www.w3.org/Graphics/SVG/1.1/DTD/svg11.dtd">
					<svg xmlns="http://www.w3.org/2000/svg" version="1.1" height="1024px" width="768px"> 
					<text x="10" y="20" fill="black" font-family="Arial, Tahoma, Verdana" font-size="20">Programas de Pós-Graduação em Ciência da Informação</text>
			<text x="284" y="432" fill="black" font-family="Arial, Tahoma, Verdana" font-size="14">UFPE-PPGCI</text>
			<circle cx="640" cy="512" r="2" stroke="black" stroke-width="grey" fill="white" />
			<text x="626" y="505" fill="grey" font-family="Arial, Tahoma, Verdana" font-size="14">P01</text>
			<circle cx="621" cy="585" r="2" stroke="black" stroke-width="grey" fill="white" />
			<text x="607" y="578" fill="grey" font-family="Arial, Tahoma, Verdana" font-size="14">P02</text>
			<circle cx="565" cy="648" r="2" stroke="black" stroke-width="grey" fill="white" />
			<text x="551" y="641" fill="grey" font-family="Arial, Tahoma, Verdana" font-size="14">P03</text>
			<circle cx="482" cy="689" r="2" stroke="black" stroke-width="grey" fill="white" />
			<text x="468" y="682" fill="grey" font-family="Arial, Tahoma, Verdana" font-size="14">P04</text>
			<circle cx="384" cy="704" r="2" stroke="black" stroke-width="grey" fill="white" />
			<text x="370" y="697" fill="grey" font-family="Arial, Tahoma, Verdana" font-size="14">P05</text>
			<circle cx="286" cy="689" r="2" stroke="black" stroke-width="grey" fill="white" />
			<text x="272" y="682" fill="grey" font-family="Arial, Tahoma, Verdana" font-size="14">P06</text>
			<circle cx="203" cy="648" r="2" stroke="black" stroke-width="grey" fill="white" />
			<text x="189" y="641" fill="grey" font-family="Arial, Tahoma, Verdana" font-size="14">P07</text>
			<circle cx="147" cy="585" r="2" stroke="black" stroke-width="grey" fill="white" />
			<text x="133" y="578" fill="grey" font-family="Arial, Tahoma, Verdana" font-size="14">P08</text>
			<circle cx="128" cy="512" r="2" stroke="black" stroke-width="grey" fill="white" />
			<text x="114" y="505" fill="grey" font-family="Arial, Tahoma, Verdana" font-size="14">P09</text>
			<circle cx="147" cy="439" r="2" stroke="black" stroke-width="grey" fill="white" />
			<text x="133" y="432" fill="grey" font-family="Arial, Tahoma, Verdana" font-size="14">P10</text>
			<circle cx="203" cy="376" r="2" stroke="black" stroke-width="grey" fill="white" />
			<text x="189" y="369" fill="grey" font-family="Arial, Tahoma, Verdana" font-size="14">P11</text>
			<circle cx="286" cy="335" r="2" stroke="black" stroke-width="grey" fill="white" />
			<text x="272" y="328" fill="grey" font-family="Arial, Tahoma, Verdana" font-size="14">P12</text>
			<circle cx="384" cy="320" r="2" stroke="black" stroke-width="grey" fill="white" />
			<text x="370" y="313" fill="grey" font-family="Arial, Tahoma, Verdana" font-size="14">P13</text>
			<circle cx="482" cy="335" r="2" stroke="black" stroke-width="grey" fill="white" />
			<text x="468" y="328" fill="grey" font-family="Arial, Tahoma, Verdana" font-size="14">P14</text>
			<circle cx="565" cy="376" r="2" stroke="black" stroke-width="grey" fill="white" />
			<text x="551" y="369" fill="grey" font-family="Arial, Tahoma, Verdana" font-size="14">P15</text>
			<circle cx="621" cy="439" r="2" stroke="black" stroke-width="grey" fill="white" />
			<text x="607" y="432" fill="grey" font-family="Arial, Tahoma, Verdana" font-size="14">P16</text>
			<circle cx="384" cy="632" r="2" stroke="black" stroke-width="brown" fill="white" />
			<text x="376" y="630" fill="brown" font-family="Arial, Tahoma, Verdana" font-size="8">A01</text>
			<circle cx="384" cy="632" r="2" stroke="black" stroke-width="brown" fill="white" />
			<text x="376" y="630" fill="brown" font-family="Arial, Tahoma, Verdana" font-size="8">A02</text>
			<circle cx="384" cy="632" r="2" stroke="black" stroke-width="brown" fill="white" />
			<text x="376" y="630" fill="brown" font-family="Arial, Tahoma, Verdana" font-size="8">A03</text>
			<circle cx="384" cy="632" r="2" stroke="black" stroke-width="brown" fill="white" />
			<text x="376" y="630" fill="brown" font-family="Arial, Tahoma, Verdana" font-size="8">A04</text>
			<circle cx="384" cy="632" r="2" stroke="black" stroke-width="brown" fill="white" />
			<text x="376" y="630" fill="brown" font-family="Arial, Tahoma, Verdana" font-size="8">A05</text>
			<circle cx="421" cy="629" r="2" stroke="black" stroke-width="brown" fill="white" />
			<text x="413" y="627" fill="brown" font-family="Arial, Tahoma, Verdana" font-size="8">A06</text>
			<circle cx="421" cy="629" r="2" stroke="black" stroke-width="brown" fill="white" />
			<text x="413" y="627" fill="brown" font-family="Arial, Tahoma, Verdana" font-size="8">A07</text>
			<circle cx="456" cy="620" r="2" stroke="black" stroke-width="brown" fill="white" />
			<text x="448" y="618" fill="brown" font-family="Arial, Tahoma, Verdana" font-size="8">A08</text>
			<circle cx="384" cy="632" r="2" stroke="black" stroke-width="brown" fill="white" />
			<text x="376" y="630" fill="brown" font-family="Arial, Tahoma, Verdana" font-size="8">A09</text>
			<circle cx="421" cy="629" r="2" stroke="black" stroke-width="brown" fill="white" />
			<text x="413" y="627" fill="brown" font-family="Arial, Tahoma, Verdana" font-size="8">A10</text>
			<circle cx="456" cy="620" r="2" stroke="black" stroke-width="brown" fill="white" />
			<text x="448" y="618" fill="brown" font-family="Arial, Tahoma, Verdana" font-size="8">A11</text>
			<circle cx="384" cy="632" r="2" stroke="black" stroke-width="brown" fill="white" />
			<text x="376" y="630" fill="brown" font-family="Arial, Tahoma, Verdana" font-size="8">A12</text>
			<circle cx="488" cy="605" r="2" stroke="black" stroke-width="brown" fill="white" />
			<text x="480" y="603" fill="brown" font-family="Arial, Tahoma, Verdana" font-size="8">A13</text>
			<circle cx="488" cy="605" r="2" stroke="black" stroke-width="brown" fill="white" />
			<text x="480" y="603" fill="brown" font-family="Arial, Tahoma, Verdana" font-size="8">A14</text>
			<circle cx="384" cy="632" r="2" stroke="black" stroke-width="brown" fill="white" />
			<text x="376" y="630" fill="brown" font-family="Arial, Tahoma, Verdana" font-size="8">A15</text>
			<circle cx="421" cy="629" r="2" stroke="black" stroke-width="brown" fill="white" />
			<text x="413" y="627" fill="brown" font-family="Arial, Tahoma, Verdana" font-size="8">A16</text>
			<circle cx="456" cy="620" r="2" stroke="black" stroke-width="brown" fill="white" />
			<text x="448" y="618" fill="brown" font-family="Arial, Tahoma, Verdana" font-size="8">A17</text>
			<circle cx="488" cy="605" r="2" stroke="black" stroke-width="brown" fill="white" />
			<text x="480" y="603" fill="brown" font-family="Arial, Tahoma, Verdana" font-size="8">A18</text>
			<circle cx="514" cy="586" r="2" stroke="black" stroke-width="brown" fill="white" />
			<text x="506" y="584" fill="brown" font-family="Arial, Tahoma, Verdana" font-size="8">A19</text>
			<circle cx="534" cy="563" r="2" stroke="black" stroke-width="brown" fill="white" />
			<text x="526" y="561" fill="brown" font-family="Arial, Tahoma, Verdana" font-size="8">A20</text>
			<circle cx="514" cy="586" r="2" stroke="black" stroke-width="brown" fill="white" />
			<text x="506" y="584" fill="brown" font-family="Arial, Tahoma, Verdana" font-size="8">A21</text>
			<circle cx="514" cy="586" r="2" stroke="black" stroke-width="brown" fill="white" />
			<text x="506" y="584" fill="brown" font-family="Arial, Tahoma, Verdana" font-size="8">A22</text>
			<circle cx="534" cy="563" r="2" stroke="black" stroke-width="brown" fill="white" />
			<text x="526" y="561" fill="brown" font-family="Arial, Tahoma, Verdana" font-size="8">A23</text>
			<circle cx="421" cy="629" r="2" stroke="black" stroke-width="brown" fill="white" />
			<text x="413" y="627" fill="brown" font-family="Arial, Tahoma, Verdana" font-size="8">A24</text>
			<circle cx="456" cy="620" r="2" stroke="black" stroke-width="brown" fill="white" />
			<text x="448" y="618" fill="brown" font-family="Arial, Tahoma, Verdana" font-size="8">A25</text>
			<circle cx="488" cy="605" r="2" stroke="black" stroke-width="brown" fill="white" />
			<text x="480" y="603" fill="brown" font-family="Arial, Tahoma, Verdana" font-size="8">A26</text>
			<circle cx="514" cy="586" r="2" stroke="black" stroke-width="brown" fill="white" />
			<text x="506" y="584" fill="brown" font-family="Arial, Tahoma, Verdana" font-size="8">A27</text>
			<circle cx="534" cy="563" r="2" stroke="black" stroke-width="brown" fill="white" />
			<text x="526" y="561" fill="brown" font-family="Arial, Tahoma, Verdana" font-size="8">A28</text>
			<circle cx="545" cy="537" r="2" stroke="black" stroke-width="brown" fill="white" />
			<text x="537" y="535" fill="brown" font-family="Arial, Tahoma, Verdana" font-size="8">A29</text>
			<circle cx="545" cy="537" r="2" stroke="black" stroke-width="brown" fill="white" />
			<text x="537" y="535" fill="brown" font-family="Arial, Tahoma, Verdana" font-size="8">A30</text>
			<circle cx="549" cy="510" r="2" stroke="black" stroke-width="brown" fill="white" />
			<text x="541" y="508" fill="brown" font-family="Arial, Tahoma, Verdana" font-size="8">A31</text>
			<circle cx="544" cy="483" r="2" stroke="black" stroke-width="brown" fill="white" />
			<text x="536" y="481" fill="brown" font-family="Arial, Tahoma, Verdana" font-size="8">A32</text>
			<circle cx="545" cy="537" r="2" stroke="black" stroke-width="brown" fill="white" />
			<text x="537" y="535" fill="brown" font-family="Arial, Tahoma, Verdana" font-size="8">A33</text>
			<circle cx="531" cy="458" r="2" stroke="black" stroke-width="brown" fill="white" />
			<text x="523" y="456" fill="brown" font-family="Arial, Tahoma, Verdana" font-size="8">A34</text>
			<circle cx="549" cy="510" r="2" stroke="black" stroke-width="brown" fill="white" />
			<text x="541" y="508" fill="brown" font-family="Arial, Tahoma, Verdana" font-size="8">A35</text>
			<circle cx="544" cy="483" r="2" stroke="black" stroke-width="brown" fill="white" />
			<text x="536" y="481" fill="brown" font-family="Arial, Tahoma, Verdana" font-size="8">A36</text>
			<circle cx="531" cy="458" r="2" stroke="black" stroke-width="brown" fill="white" />
			<text x="523" y="456" fill="brown" font-family="Arial, Tahoma, Verdana" font-size="8">A37</text>
			<circle cx="510" cy="435" r="2" stroke="black" stroke-width="brown" fill="white" />
			<text x="502" y="433" fill="brown" font-family="Arial, Tahoma, Verdana" font-size="8">A38</text>
			<circle cx="483" cy="416" r="2" stroke="black" stroke-width="brown" fill="white" />
			<text x="475" y="414" fill="brown" font-family="Arial, Tahoma, Verdana" font-size="8">A39</text>
			<circle cx="456" cy="620" r="2" stroke="black" stroke-width="brown" fill="white" />
			<text x="448" y="618" fill="brown" font-family="Arial, Tahoma, Verdana" font-size="8">A40</text>
			<circle cx="549" cy="510" r="2" stroke="black" stroke-width="brown" fill="white" />
			<text x="541" y="508" fill="brown" font-family="Arial, Tahoma, Verdana" font-size="8">A41</text>
			<circle cx="384" cy="632" r="2" stroke="black" stroke-width="brown" fill="white" />
			<text x="376" y="630" fill="brown" font-family="Arial, Tahoma, Verdana" font-size="8">A42</text>
			<circle cx="421" cy="629" r="2" stroke="black" stroke-width="brown" fill="white" />
			<text x="413" y="627" fill="brown" font-family="Arial, Tahoma, Verdana" font-size="8">A43</text>
			<circle cx="451" cy="402" r="2" stroke="black" stroke-width="brown" fill="white" />
			<text x="443" y="400" fill="brown" font-family="Arial, Tahoma, Verdana" font-size="8">A44</text>
			<circle cx="415" cy="394" r="2" stroke="black" stroke-width="brown" fill="white" />
			<text x="407" y="392" fill="brown" font-family="Arial, Tahoma, Verdana" font-size="8">A45</text>
			<circle cx="378" cy="392" r="2" stroke="black" stroke-width="brown" fill="white" />
			<text x="370" y="390" fill="brown" font-family="Arial, Tahoma, Verdana" font-size="8">A46</text>
			<circle cx="341" cy="396" r="2" stroke="black" stroke-width="brown" fill="white" />
			<text x="333" y="394" fill="brown" font-family="Arial, Tahoma, Verdana" font-size="8">A47</text>
			<circle cx="307" cy="406" r="2" stroke="black" stroke-width="brown" fill="white" />
			<text x="299" y="404" fill="brown" font-family="Arial, Tahoma, Verdana" font-size="8">A48</text>
			<circle cx="276" cy="421" r="2" stroke="black" stroke-width="brown" fill="white" />
			<text x="268" y="419" fill="brown" font-family="Arial, Tahoma, Verdana" font-size="8">A49</text>
			<circle cx="534" cy="563" r="2" stroke="black" stroke-width="brown" fill="white" />
			<text x="526" y="561" fill="brown" font-family="Arial, Tahoma, Verdana" font-size="8">A50</text>
			<circle cx="251" cy="441" r="2" stroke="black" stroke-width="brown" fill="white" />
			<text x="243" y="439" fill="brown" font-family="Arial, Tahoma, Verdana" font-size="8">A51</text>
			<circle cx="232" cy="465" r="2" stroke="black" stroke-width="brown" fill="white" />
			<text x="224" y="463" fill="brown" font-family="Arial, Tahoma, Verdana" font-size="8">A52</text>
			<circle cx="222" cy="491" r="2" stroke="black" stroke-width="brown" fill="white" />
			<text x="214" y="489" fill="brown" font-family="Arial, Tahoma, Verdana" font-size="8">A53</text>
			<circle cx="544" cy="483" r="2" stroke="black" stroke-width="brown" fill="white" />
			<text x="536" y="481" fill="brown" font-family="Arial, Tahoma, Verdana" font-size="8">A54</text>
			<circle cx="219" cy="518" r="2" stroke="black" stroke-width="brown" fill="white" />
			<text x="211" y="516" fill="brown" font-family="Arial, Tahoma, Verdana" font-size="8">A55</text>
			<path d="M 640 512 q 0 0 -256 120" stroke="brown" stroke-width="0.5" fill="none" /><path d="M 621 585 q 0 0 -237 47" stroke="brown" stroke-width="0.5" fill="none" /><path d="M 621 585 q 0 0 -237 47" stroke="brown" stroke-width="1.88629436112" fill="none" /><path d="M 286 689 q 0 0 98 -57" stroke="brown" stroke-width="0.5" fill="none" /><path d="M 384 320 q 0 0 0 312" stroke="brown" stroke-width="0.5" fill="none" /><path d="M 384 320 q 0 0 37 309" stroke="brown" stroke-width="0.5" fill="none" /><path d="M 621 585 q 0 0 -200 44" stroke="brown" stroke-width="1.19314718056" fill="none" /><path d="M 621 585 q 0 0 -165 35" stroke="brown" stroke-width="1.19314718056" fill="none" /><path d="M 421 629 q 0 0 35 -9" stroke="brown" stroke-width="0.5" fill="none" /><path d="M 565 648 q 0 0 -181 -16" stroke="brown" stroke-width="0.5" fill="none" /><path d="M 565 648 q 0 0 -144 -19" stroke="brown" stroke-width="0.5" fill="none" /><path d="M 565 648 q 0 0 -109 -28" stroke="brown" stroke-width="0.5" fill="none" /><path d="M 384 632 q 0 0 37 -3" stroke="brown" stroke-width="0.5" fill="none" /><path d="M 384 632 q 0 0 72 -12" stroke="brown" stroke-width="0.5" fill="none" /><path d="M 421 629 q 0 0 35 -9" stroke="brown" stroke-width="0.5" fill="none" /><path d="M 286 689 q 0 0 98 -57" stroke="brown" stroke-width="1.59861228867" fill="none" /><path d="M 488 605 q 0 0 77 43" stroke="brown" stroke-width="0.5" fill="none" /><path d="M 384 320 q 0 0 -98 15" stroke="blue" stroke-width="1.59861228867" fill="none" /><path d="M 621 585 q 0 0 -133 20" stroke="brown" stroke-width="1.19314718056" fill="none" /><path d="M 384 632 q 0 0 -181 16" stroke="brown" stroke-width="1.19314718056" fill="none" /><path d="M 384 632 q 0 0 37 -3" stroke="brown" stroke-width="0.5" fill="none" /><path d="M 384 632 q 0 0 72 -12" stroke="brown" stroke-width="0.5" fill="none" /><path d="M 203 648 q 0 0 218 -19" stroke="brown" stroke-width="0.5" fill="none" /><path d="M 203 648 q 0 0 253 -28" stroke="brown" stroke-width="0.5" fill="none" /><path d="M 421 629 q 0 0 35 -9" stroke="brown" stroke-width="0.5" fill="none" /><path d="M 203 648 q 0 0 285 -43" stroke="brown" stroke-width="0.5" fill="none" /><path d="M 203 648 q 0 0 311 -62" stroke="brown" stroke-width="0.5" fill="none" /><path d="M 488 605 q 0 0 26 -19" stroke="brown" stroke-width="0.5" fill="none" /><path d="M 203 648 q 0 0 331 -85" stroke="brown" stroke-width="0.5" fill="none" /><path d="M 621 585 q 0 0 -107 1" stroke="brown" stroke-width="0.5" fill="none" /><path d="M 384 704 q 0 0 130 -118" stroke="brown" stroke-width="0.5" fill="none" /><path d="M 384 704 q 0 0 150 -141" stroke="brown" stroke-width="0.5" fill="none" /><path d="M 514 586 q 0 0 20 -23" stroke="brown" stroke-width="0.5" fill="none" /><path d="M 640 512 q 0 0 -219 117" stroke="brown" stroke-width="0.5" fill="none" /><path d="M 286 689 q 0 0 170 -69" stroke="brown" stroke-width="0.5" fill="none" /><path d="M 286 689 q 0 0 202 -84" stroke="brown" stroke-width="0.5" fill="none" /><path d="M 286 689 q 0 0 228 -103" stroke="brown" stroke-width="0.5" fill="none" /><path d="M 456 620 q 0 0 32 -15" stroke="brown" stroke-width="0.5" fill="none" /><path d="M 456 620 q 0 0 58 -34" stroke="brown" stroke-width="0.5" fill="none" /><path d="M 488 605 q 0 0 26 -19" stroke="brown" stroke-width="0.5" fill="none" /><path d="M 286 689 q 0 0 248 -126" stroke="brown" stroke-width="0.5" fill="none" /><path d="M 640 512 q 0 0 -95 25" stroke="brown" stroke-width="0.5" fill="none" /><path d="M 203 648 q 0 0 342 -111" stroke="brown" stroke-width="0.5" fill="none" /><path d="M 203 648 q 0 0 346 -138" stroke="brown" stroke-width="0.5" fill="none" /><path d="M 203 648 q 0 0 341 -165" stroke="brown" stroke-width="0.5" fill="none" /><path d="M 545 537 q 0 0 4 -27" stroke="brown" stroke-width="0.5" fill="none" /><path d="M 545 537 q 0 0 -1 -54" stroke="brown" stroke-width="0.5" fill="none" /><path d="M 549 510 q 0 0 -5 -27" stroke="brown" stroke-width="0.5" fill="none" /><path d="M 286 335 q 0 0 259 202" stroke="brown" stroke-width="0.5" fill="none" /><path d="M 384 632 q 0 0 147 -174" stroke="brown" stroke-width="0.5" fill="none" /><path d="M 203 648 q 0 0 328 -190" stroke="brown" stroke-width="0.5" fill="none" /><path d="M 565 376 q 0 0 -16 134" stroke="brown" stroke-width="1.19314718056" fill="none" /><path d="M 565 376 q 0 0 -21 107" stroke="brown" stroke-width="0.5" fill="none" /><path d="M 565 376 q 0 0 -34 82" stroke="brown" stroke-width="0.5" fill="none" /><path d="M 549 510 q 0 0 -5 -27" stroke="brown" stroke-width="0.5" fill="none" /><path d="M 549 510 q 0 0 -18 -52" stroke="brown" stroke-width="0.5" fill="none" /><path d="M 544 483 q 0 0 -13 -25" stroke="brown" stroke-width="0.5" fill="none" /><path d="M 510 435 q 0 0 -224 -100" stroke="brown" stroke-width="0.5" fill="none" /><path d="M 510 435 q 0 0 -27 -19" stroke="brown" stroke-width="0.5" fill="none" /><path d="M 286 335 q 0 0 197 81" stroke="brown" stroke-width="0.5" fill="none" /><path d="M 384 320 q 0 0 72 300" stroke="brown" stroke-width="0.5" fill="none" /><path d="M 286 335 q 0 0 170 285" stroke="brown" stroke-width="0.5" fill="none" /><path d="M 286 689 q 0 0 263 -179" stroke="brown" stroke-width="0.5" fill="none" /><path d="M 286 335 q 0 0 98 297" stroke="brown" stroke-width="0.5" fill="none" /><path d="M 286 335 q 0 0 135 294" stroke="brown" stroke-width="0.5" fill="none" /><path d="M 384 632 q 0 0 37 -3" stroke="brown" stroke-width="0.5" fill="none" /><path d="M 565 376 q 0 0 -114 26" stroke="brown" stroke-width="0.5" fill="none" /><path d="M 565 376 q 0 0 -150 18" stroke="brown" stroke-width="0.5" fill="none" /><path d="M 549 510 q 0 0 -98 -108" stroke="brown" stroke-width="0.5" fill="none" /><path d="M 549 510 q 0 0 -134 -116" stroke="brown" stroke-width="0.5" fill="none" /><path d="M 451 402 q 0 0 -36 -8" stroke="brown" stroke-width="0.5" fill="none" /><path d="M 286 689 q 0 0 92 -297" stroke="brown" stroke-width="0.5" fill="none" /><path d="M 286 689 q 0 0 55 -293" stroke="brown" stroke-width="0.5" fill="none" /><path d="M 286 689 q 0 0 21 -283" stroke="brown" stroke-width="0.5" fill="none" /><path d="M 378 392 q 0 0 -37 4" stroke="brown" stroke-width="0.5" fill="none" /><path d="M 378 392 q 0 0 -71 14" stroke="brown" stroke-width="0.5" fill="none" /><path d="M 341 396 q 0 0 -34 10" stroke="brown" stroke-width="0.5" fill="none" /><path d="M 286 335 q 0 0 -10 86" stroke="brown" stroke-width="0.5" fill="none" /><path d="M 421 629 q 0 0 -37 3" stroke="brown" stroke-width="0.5" fill="none" /><path d="M 621 585 q 0 0 -87 -22" stroke="brown" stroke-width="0.5" fill="none" /><path d="M 384 320 q 0 0 -133 121" stroke="brown" stroke-width="0.5" fill="none" /><path d="M 147 439 q 0 0 336 -23" stroke="brown" stroke-width="0.5" fill="none" /><path d="M 147 439 q 0 0 85 26" stroke="brown" stroke-width="0.5" fill="none" /><path d="M 147 439 q 0 0 75 52" stroke="brown" stroke-width="0.5" fill="none" /><path d="M 232 465 q 0 0 -10 26" stroke="brown" stroke-width="0.5" fill="none" /><path d="M 286 689 q 0 0 258 -206" stroke="brown" stroke-width="0.5" fill="none" /><path d="M 384 320 q 0 0 -165 198" stroke="brown" stroke-width="0.5" fill="none" /><path d="M 286 335 q 0 0 -67 183" stroke="brown" stroke-width="0.5" fill="none" /><text x="510" y="180" fill="black" font-family="Arial, Tahoma, Verdana" font-size="10">UFPR</text>
			<text x="510" y="480" fill="black" font-family="Arial, Tahoma, Verdana" font-size="10">UFSCAR</text>
			
					</svg>