<?xml version="1.0" standalone="no"?>
					<!DOCTYPE svg PUBLIC "-//W3C//DTD SVG 1.1//EN" "http://www.w3.org/Graphics/SVG/1.1/DTD/svg11.dtd">
					<svg xmlns="http://www.w3.org/2000/svg" version="1.1" height="1024px" width="768px"> 
					<text x="10" y="20" fill="black" font-family="Arial, Tahoma, Verdana" font-size="20">Programas de Pós-Graduação em Ciência da Informação</text>
			<text x="284" y="432" fill="black" font-family="Arial, Tahoma, Verdana" font-size="14">UFF-PGCI</text>
			<circle cx="640" cy="512" r="2" stroke="black" stroke-width="grey" fill="white" />
			<text x="626" y="505" fill="grey" font-family="Arial, Tahoma, Verdana" font-size="14">P01</text>
			<circle cx="618" cy="590" r="2" stroke="black" stroke-width="grey" fill="white" />
			<text x="604" y="583" fill="grey" font-family="Arial, Tahoma, Verdana" font-size="14">P02</text>
			<circle cx="555" cy="655" r="2" stroke="black" stroke-width="grey" fill="white" />
			<text x="541" y="648" fill="grey" font-family="Arial, Tahoma, Verdana" font-size="14">P03</text>
			<circle cx="463" cy="695" r="2" stroke="black" stroke-width="grey" fill="white" />
			<text x="449" y="688" fill="grey" font-family="Arial, Tahoma, Verdana" font-size="14">P04</text>
			<circle cx="357" cy="703" r="2" stroke="black" stroke-width="grey" fill="white" />
			<text x="343" y="696" fill="grey" font-family="Arial, Tahoma, Verdana" font-size="14">P05</text>
			<circle cx="256" cy="678" r="2" stroke="black" stroke-width="grey" fill="white" />
			<text x="242" y="671" fill="grey" font-family="Arial, Tahoma, Verdana" font-size="14">P06</text>
			<circle cx="177" cy="625" r="2" stroke="black" stroke-width="grey" fill="white" />
			<text x="163" y="618" fill="grey" font-family="Arial, Tahoma, Verdana" font-size="14">P07</text>
			<circle cx="134" cy="552" r="2" stroke="black" stroke-width="grey" fill="white" />
			<text x="120" y="545" fill="grey" font-family="Arial, Tahoma, Verdana" font-size="14">P08</text>
			<circle cx="134" cy="472" r="2" stroke="black" stroke-width="grey" fill="white" />
			<text x="120" y="465" fill="grey" font-family="Arial, Tahoma, Verdana" font-size="14">P09</text>
			<circle cx="177" cy="399" r="2" stroke="black" stroke-width="grey" fill="white" />
			<text x="163" y="392" fill="grey" font-family="Arial, Tahoma, Verdana" font-size="14">P10</text>
			<circle cx="256" cy="346" r="2" stroke="black" stroke-width="grey" fill="white" />
			<text x="242" y="339" fill="grey" font-family="Arial, Tahoma, Verdana" font-size="14">P11</text>
			<circle cx="357" cy="321" r="2" stroke="black" stroke-width="grey" fill="white" />
			<text x="343" y="314" fill="grey" font-family="Arial, Tahoma, Verdana" font-size="14">P12</text>
			<circle cx="463" cy="329" r="2" stroke="black" stroke-width="grey" fill="white" />
			<text x="449" y="322" fill="grey" font-family="Arial, Tahoma, Verdana" font-size="14">P13</text>
			<circle cx="555" cy="369" r="2" stroke="black" stroke-width="grey" fill="white" />
			<text x="541" y="362" fill="grey" font-family="Arial, Tahoma, Verdana" font-size="14">P14</text>
			<circle cx="618" cy="434" r="2" stroke="black" stroke-width="grey" fill="white" />
			<text x="604" y="427" fill="grey" font-family="Arial, Tahoma, Verdana" font-size="14">P15</text>
			<circle cx="384" cy="632" r="2" stroke="black" stroke-width="brown" fill="white" />
			<text x="376" y="630" fill="brown" font-family="Arial, Tahoma, Verdana" font-size="8">A01</text>
			<circle cx="384" cy="632" r="2" stroke="black" stroke-width="brown" fill="white" />
			<text x="376" y="630" fill="brown" font-family="Arial, Tahoma, Verdana" font-size="8">A02</text>
			<circle cx="421" cy="629" r="2" stroke="black" stroke-width="brown" fill="white" />
			<text x="413" y="627" fill="brown" font-family="Arial, Tahoma, Verdana" font-size="8">A03</text>
			<circle cx="456" cy="620" r="2" stroke="black" stroke-width="brown" fill="white" />
			<text x="448" y="618" fill="brown" font-family="Arial, Tahoma, Verdana" font-size="8">A04</text>
			<circle cx="488" cy="605" r="2" stroke="black" stroke-width="brown" fill="white" />
			<text x="480" y="603" fill="brown" font-family="Arial, Tahoma, Verdana" font-size="8">A05</text>
			<circle cx="514" cy="586" r="2" stroke="black" stroke-width="brown" fill="white" />
			<text x="506" y="584" fill="brown" font-family="Arial, Tahoma, Verdana" font-size="8">A06</text>
			<circle cx="534" cy="563" r="2" stroke="black" stroke-width="brown" fill="white" />
			<text x="526" y="561" fill="brown" font-family="Arial, Tahoma, Verdana" font-size="8">A07</text>
			<circle cx="545" cy="537" r="2" stroke="black" stroke-width="brown" fill="white" />
			<text x="537" y="535" fill="brown" font-family="Arial, Tahoma, Verdana" font-size="8">A08</text>
			<circle cx="549" cy="510" r="2" stroke="black" stroke-width="brown" fill="white" />
			<text x="541" y="508" fill="brown" font-family="Arial, Tahoma, Verdana" font-size="8">A09</text>
			<circle cx="544" cy="483" r="2" stroke="black" stroke-width="brown" fill="white" />
			<text x="536" y="481" fill="brown" font-family="Arial, Tahoma, Verdana" font-size="8">A10</text>
			<circle cx="531" cy="458" r="2" stroke="black" stroke-width="brown" fill="white" />
			<text x="523" y="456" fill="brown" font-family="Arial, Tahoma, Verdana" font-size="8">A11</text>
			<circle cx="510" cy="435" r="2" stroke="black" stroke-width="brown" fill="white" />
			<text x="502" y="433" fill="brown" font-family="Arial, Tahoma, Verdana" font-size="8">A12</text>
			<circle cx="384" cy="632" r="2" stroke="black" stroke-width="brown" fill="white" />
			<text x="376" y="630" fill="brown" font-family="Arial, Tahoma, Verdana" font-size="8">A13</text>
			<circle cx="421" cy="629" r="2" stroke="black" stroke-width="brown" fill="white" />
			<text x="413" y="627" fill="brown" font-family="Arial, Tahoma, Verdana" font-size="8">A14</text>
			<circle cx="483" cy="416" r="2" stroke="black" stroke-width="brown" fill="white" />
			<text x="475" y="414" fill="brown" font-family="Arial, Tahoma, Verdana" font-size="8">A15</text>
			<path d="M 555 655 q 0 0 -171 -23" stroke="brown" stroke-width="0.5" fill="none" /><path d="M 618 590 q 0 0 -234 42" stroke="brown" stroke-width="0.5" fill="none" /><path d="M 618 590 q 0 0 -197 39" stroke="brown" stroke-width="0.5" fill="none" /><path d="M 384 632 q 0 0 37 -3" stroke="brown" stroke-width="0.5" fill="none" /><path d="M 555 655 q 0 0 -99 -35" stroke="brown" stroke-width="1.19314718056" fill="none" /><path d="M 256 346 q 0 0 232 259" stroke="brown" stroke-width="0.5" fill="none" /><path d="M 134 472 q 0 0 380 114" stroke="brown" stroke-width="0.5" fill="none" /><path d="M 134 472 q 0 0 400 91" stroke="brown" stroke-width="0.5" fill="none" /><path d="M 134 472 q 0 0 411 65" stroke="brown" stroke-width="0.5" fill="none" /><path d="M 134 472 q 0 0 415 38" stroke="brown" stroke-width="0.5" fill="none" /><path d="M 134 472 q 0 0 410 11" stroke="brown" stroke-width="0.5" fill="none" /><path d="M 134 472 q 0 0 397 -14" stroke="brown" stroke-width="0.5" fill="none" /><path d="M 134 472 q 0 0 376 -37" stroke="brown" stroke-width="0.5" fill="none" /><path d="M 514 586 q 0 0 20 -23" stroke="brown" stroke-width="0.5" fill="none" /><path d="M 514 586 q 0 0 31 -49" stroke="brown" stroke-width="0.5" fill="none" /><path d="M 514 586 q 0 0 35 -76" stroke="brown" stroke-width="0.5" fill="none" /><path d="M 514 586 q 0 0 30 -103" stroke="brown" stroke-width="0.5" fill="none" /><path d="M 514 586 q 0 0 17 -128" stroke="brown" stroke-width="0.5" fill="none" /><path d="M 514 586 q 0 0 -4 -151" stroke="brown" stroke-width="0.5" fill="none" /><path d="M 534 563 q 0 0 11 -26" stroke="brown" stroke-width="0.5" fill="none" /><path d="M 534 563 q 0 0 15 -53" stroke="brown" stroke-width="0.5" fill="none" /><path d="M 534 563 q 0 0 10 -80" stroke="brown" stroke-width="0.5" fill="none" /><path d="M 534 563 q 0 0 -3 -105" stroke="brown" stroke-width="0.5" fill="none" /><path d="M 534 563 q 0 0 -24 -128" stroke="brown" stroke-width="0.5" fill="none" /><path d="M 545 537 q 0 0 4 -27" stroke="brown" stroke-width="0.5" fill="none" /><path d="M 545 537 q 0 0 -1 -54" stroke="brown" stroke-width="0.5" fill="none" /><path d="M 545 537 q 0 0 -14 -79" stroke="brown" stroke-width="0.5" fill="none" /><path d="M 545 537 q 0 0 -35 -102" stroke="brown" stroke-width="0.5" fill="none" /><path d="M 549 510 q 0 0 -5 -27" stroke="brown" stroke-width="0.5" fill="none" /><path d="M 549 510 q 0 0 -18 -52" stroke="brown" stroke-width="0.5" fill="none" /><path d="M 549 510 q 0 0 -39 -75" stroke="brown" stroke-width="0.5" fill="none" /><path d="M 544 483 q 0 0 -13 -25" stroke="brown" stroke-width="0.5" fill="none" /><path d="M 544 483 q 0 0 -34 -48" stroke="brown" stroke-width="0.5" fill="none" /><path d="M 531 458 q 0 0 -21 -23" stroke="brown" stroke-width="0.5" fill="none" /><path d="M 177 399 q 0 0 207 233" stroke="brown" stroke-width="0.5" fill="none" /><path d="M 421 629 q 0 0 42 -300" stroke="brown" stroke-width="0.5" fill="none" /><path d="M 555 369 q 0 0 -72 47" stroke="brown" stroke-width="0.5" fill="none" /><text x="510" y="180" fill="black" font-family="Arial, Tahoma, Verdana" font-size="10">UFPR</text>
			<text x="510" y="480" fill="black" font-family="Arial, Tahoma, Verdana" font-size="10">UFSCAR</text>
			
					</svg>