<?xml version="1.0" standalone="no"?>
					<!DOCTYPE svg PUBLIC "-//W3C//DTD SVG 1.1//EN" "http://www.w3.org/Graphics/SVG/1.1/DTD/svg11.dtd">
					<svg xmlns="http://www.w3.org/2000/svg" version="1.1" height="1024px" width="768px"> 
					<text x="10" y="20" fill="black" font-family="Arial, Tahoma, Verdana" font-size="20">Programas de Pós-Graduação em Ciência da Informação</text>
			<text x="284" y="432" fill="black" font-family="Arial, Tahoma, Verdana" font-size="14">UFRGS-PPGCOM</text>
			<circle cx="640" cy="512" r="2" stroke="black" stroke-width="grey" fill="white" />
			<text x="626" y="505" fill="grey" font-family="Arial, Tahoma, Verdana" font-size="14">P01</text>
			<circle cx="629" cy="569" r="2" stroke="black" stroke-width="grey" fill="white" />
			<text x="615" y="562" fill="grey" font-family="Arial, Tahoma, Verdana" font-size="14">P02</text>
			<circle cx="596" cy="620" r="2" stroke="black" stroke-width="grey" fill="white" />
			<text x="582" y="613" fill="grey" font-family="Arial, Tahoma, Verdana" font-size="14">P03</text>
			<circle cx="544" cy="662" r="2" stroke="black" stroke-width="grey" fill="white" />
			<text x="530" y="655" fill="grey" font-family="Arial, Tahoma, Verdana" font-size="14">P04</text>
			<circle cx="478" cy="691" r="2" stroke="black" stroke-width="grey" fill="white" />
			<text x="464" y="684" fill="grey" font-family="Arial, Tahoma, Verdana" font-size="14">P05</text>
			<circle cx="403" cy="703" r="2" stroke="black" stroke-width="grey" fill="white" />
			<text x="389" y="696" fill="grey" font-family="Arial, Tahoma, Verdana" font-size="14">P06</text>
			<circle cx="327" cy="699" r="2" stroke="black" stroke-width="grey" fill="white" />
			<text x="313" y="692" fill="grey" font-family="Arial, Tahoma, Verdana" font-size="14">P07</text>
			<circle cx="256" cy="678" r="2" stroke="black" stroke-width="grey" fill="white" />
			<text x="242" y="671" fill="grey" font-family="Arial, Tahoma, Verdana" font-size="14">P08</text>
			<circle cx="196" cy="643" r="2" stroke="black" stroke-width="grey" fill="white" />
			<text x="182" y="636" fill="grey" font-family="Arial, Tahoma, Verdana" font-size="14">P09</text>
			<circle cx="153" cy="595" r="2" stroke="black" stroke-width="grey" fill="white" />
			<text x="139" y="588" fill="grey" font-family="Arial, Tahoma, Verdana" font-size="14">P10</text>
			<circle cx="131" cy="541" r="2" stroke="black" stroke-width="grey" fill="white" />
			<text x="117" y="534" fill="grey" font-family="Arial, Tahoma, Verdana" font-size="14">P11</text>
			<circle cx="131" cy="483" r="2" stroke="black" stroke-width="grey" fill="white" />
			<text x="117" y="476" fill="grey" font-family="Arial, Tahoma, Verdana" font-size="14">P12</text>
			<circle cx="153" cy="429" r="2" stroke="black" stroke-width="grey" fill="white" />
			<text x="139" y="422" fill="grey" font-family="Arial, Tahoma, Verdana" font-size="14">P13</text>
			<circle cx="196" cy="381" r="2" stroke="black" stroke-width="grey" fill="white" />
			<text x="182" y="374" fill="grey" font-family="Arial, Tahoma, Verdana" font-size="14">P14</text>
			<circle cx="256" cy="346" r="2" stroke="black" stroke-width="grey" fill="white" />
			<text x="242" y="339" fill="grey" font-family="Arial, Tahoma, Verdana" font-size="14">P15</text>
			<circle cx="327" cy="325" r="2" stroke="black" stroke-width="grey" fill="white" />
			<text x="313" y="318" fill="grey" font-family="Arial, Tahoma, Verdana" font-size="14">P16</text>
			<circle cx="403" cy="321" r="2" stroke="black" stroke-width="grey" fill="white" />
			<text x="389" y="314" fill="grey" font-family="Arial, Tahoma, Verdana" font-size="14">P17</text>
			<circle cx="478" cy="333" r="2" stroke="black" stroke-width="grey" fill="white" />
			<text x="464" y="326" fill="grey" font-family="Arial, Tahoma, Verdana" font-size="14">P18</text>
			<circle cx="544" cy="362" r="2" stroke="black" stroke-width="grey" fill="white" />
			<text x="530" y="355" fill="grey" font-family="Arial, Tahoma, Verdana" font-size="14">P19</text>
			<circle cx="596" cy="404" r="2" stroke="black" stroke-width="grey" fill="white" />
			<text x="582" y="397" fill="grey" font-family="Arial, Tahoma, Verdana" font-size="14">P20</text>
			<circle cx="629" cy="455" r="2" stroke="black" stroke-width="grey" fill="white" />
			<text x="615" y="448" fill="grey" font-family="Arial, Tahoma, Verdana" font-size="14">P21</text>
			<circle cx="384" cy="632" r="2" stroke="black" stroke-width="brown" fill="white" />
			<text x="376" y="630" fill="brown" font-family="Arial, Tahoma, Verdana" font-size="8">A01</text>
			<circle cx="421" cy="629" r="2" stroke="black" stroke-width="brown" fill="white" />
			<text x="413" y="627" fill="brown" font-family="Arial, Tahoma, Verdana" font-size="8">A02</text>
			<circle cx="456" cy="620" r="2" stroke="black" stroke-width="brown" fill="white" />
			<text x="448" y="618" fill="brown" font-family="Arial, Tahoma, Verdana" font-size="8">A03</text>
			<circle cx="488" cy="605" r="2" stroke="black" stroke-width="brown" fill="white" />
			<text x="480" y="603" fill="brown" font-family="Arial, Tahoma, Verdana" font-size="8">A04</text>
			<circle cx="514" cy="586" r="2" stroke="black" stroke-width="brown" fill="white" />
			<text x="506" y="584" fill="brown" font-family="Arial, Tahoma, Verdana" font-size="8">A05</text>
			<circle cx="534" cy="563" r="2" stroke="black" stroke-width="brown" fill="white" />
			<text x="526" y="561" fill="brown" font-family="Arial, Tahoma, Verdana" font-size="8">A06</text>
			<circle cx="545" cy="537" r="2" stroke="black" stroke-width="brown" fill="white" />
			<text x="537" y="535" fill="brown" font-family="Arial, Tahoma, Verdana" font-size="8">A07</text>
			<circle cx="549" cy="510" r="2" stroke="black" stroke-width="brown" fill="white" />
			<text x="541" y="508" fill="brown" font-family="Arial, Tahoma, Verdana" font-size="8">A08</text>
			<circle cx="544" cy="483" r="2" stroke="black" stroke-width="brown" fill="white" />
			<text x="536" y="481" fill="brown" font-family="Arial, Tahoma, Verdana" font-size="8">A09</text>
			<circle cx="531" cy="458" r="2" stroke="black" stroke-width="brown" fill="white" />
			<text x="523" y="456" fill="brown" font-family="Arial, Tahoma, Verdana" font-size="8">A10</text>
			<circle cx="510" cy="435" r="2" stroke="black" stroke-width="brown" fill="white" />
			<text x="502" y="433" fill="brown" font-family="Arial, Tahoma, Verdana" font-size="8">A11</text>
			<path d="M 544 662 q 0 0 -160 -30" stroke="brown" stroke-width="1.19314718056" fill="none" /><path d="M 596 404 q 0 0 -175 225" stroke="brown" stroke-width="1.59861228867" fill="none" /><path d="M 131 541 q 0 0 325 79" stroke="brown" stroke-width="0.5" fill="none" /><path d="M 403 703 q 0 0 85 -98" stroke="brown" stroke-width="0.5" fill="none" /><path d="M 544 662 q 0 0 -30 -76" stroke="brown" stroke-width="0.5" fill="none" /><path d="M 544 662 q 0 0 -10 -99" stroke="brown" stroke-width="0.5" fill="none" /><path d="M 478 333 q 0 0 67 204" stroke="brown" stroke-width="0.5" fill="none" /><path d="M 544 662 q 0 0 5 -152" stroke="brown" stroke-width="0.5" fill="none" /><path d="M 544 662 q 0 0 0 -179" stroke="brown" stroke-width="0.5" fill="none" /><path d="M 549 510 q 0 0 -5 -27" stroke="brown" stroke-width="0.5" fill="none" /><path d="M 596 404 q 0 0 -65 54" stroke="brown" stroke-width="0.5" fill="none" /><path d="M 421 629 q 0 0 110 -171" stroke="brown" stroke-width="0.5" fill="none" /><path d="M 327 325 q 0 0 183 110" stroke="brown" stroke-width="0.5" fill="none" /><text x="510" y="180" fill="black" font-family="Arial, Tahoma, Verdana" font-size="10">UFPR</text>
			<text x="510" y="480" fill="black" font-family="Arial, Tahoma, Verdana" font-size="10">UFSCAR</text>
			
					</svg>