<?xml version="1.0" standalone="no"?>
					<!DOCTYPE svg PUBLIC "-//W3C//DTD SVG 1.1//EN" "http://www.w3.org/Graphics/SVG/1.1/DTD/svg11.dtd">
					<svg xmlns="http://www.w3.org/2000/svg" version="1.1" height="1024px" width="768px"> 
					<text x="10" y="20" fill="black" font-family="Arial, Tahoma, Verdana" font-size="20">Programas de Pós-Graduação em Ciência da Informação</text>
			<text x="284" y="432" fill="black" font-family="Arial, Tahoma, Verdana" font-size="14">UFPB-PPGCI</text>
			<circle cx="640" cy="512" r="2" stroke="black" stroke-width="grey" fill="white" />
			<text x="626" y="505" fill="grey" font-family="Arial, Tahoma, Verdana" font-size="14">P01</text>
			<circle cx="630" cy="566" r="2" stroke="black" stroke-width="grey" fill="white" />
			<text x="616" y="559" fill="grey" font-family="Arial, Tahoma, Verdana" font-size="14">P02</text>
			<circle cx="599" cy="616" r="2" stroke="black" stroke-width="grey" fill="white" />
			<text x="585" y="609" fill="grey" font-family="Arial, Tahoma, Verdana" font-size="14">P03</text>
			<circle cx="552" cy="657" r="2" stroke="black" stroke-width="grey" fill="white" />
			<text x="538" y="650" fill="grey" font-family="Arial, Tahoma, Verdana" font-size="14">P04</text>
			<circle cx="490" cy="687" r="2" stroke="black" stroke-width="grey" fill="white" />
			<text x="476" y="680" fill="grey" font-family="Arial, Tahoma, Verdana" font-size="14">P05</text>
			<circle cx="420" cy="702" r="2" stroke="black" stroke-width="grey" fill="white" />
			<text x="406" y="695" fill="grey" font-family="Arial, Tahoma, Verdana" font-size="14">P06</text>
			<circle cx="348" cy="702" r="2" stroke="black" stroke-width="grey" fill="white" />
			<text x="334" y="695" fill="grey" font-family="Arial, Tahoma, Verdana" font-size="14">P07</text>
			<circle cx="278" cy="687" r="2" stroke="black" stroke-width="grey" fill="white" />
			<text x="264" y="680" fill="grey" font-family="Arial, Tahoma, Verdana" font-size="14">P08</text>
			<circle cx="216" cy="657" r="2" stroke="black" stroke-width="grey" fill="white" />
			<text x="202" y="650" fill="grey" font-family="Arial, Tahoma, Verdana" font-size="14">P09</text>
			<circle cx="169" cy="616" r="2" stroke="black" stroke-width="grey" fill="white" />
			<text x="155" y="609" fill="grey" font-family="Arial, Tahoma, Verdana" font-size="14">P10</text>
			<circle cx="138" cy="566" r="2" stroke="black" stroke-width="grey" fill="white" />
			<text x="124" y="559" fill="grey" font-family="Arial, Tahoma, Verdana" font-size="14">P11</text>
			<circle cx="128" cy="512" r="2" stroke="black" stroke-width="grey" fill="white" />
			<text x="114" y="505" fill="grey" font-family="Arial, Tahoma, Verdana" font-size="14">P12</text>
			<circle cx="138" cy="458" r="2" stroke="black" stroke-width="grey" fill="white" />
			<text x="124" y="451" fill="grey" font-family="Arial, Tahoma, Verdana" font-size="14">P13</text>
			<circle cx="169" cy="408" r="2" stroke="black" stroke-width="grey" fill="white" />
			<text x="155" y="401" fill="grey" font-family="Arial, Tahoma, Verdana" font-size="14">P14</text>
			<circle cx="216" cy="367" r="2" stroke="black" stroke-width="grey" fill="white" />
			<text x="202" y="360" fill="grey" font-family="Arial, Tahoma, Verdana" font-size="14">P15</text>
			<circle cx="278" cy="337" r="2" stroke="black" stroke-width="grey" fill="white" />
			<text x="264" y="330" fill="grey" font-family="Arial, Tahoma, Verdana" font-size="14">P16</text>
			<circle cx="348" cy="322" r="2" stroke="black" stroke-width="grey" fill="white" />
			<text x="334" y="315" fill="grey" font-family="Arial, Tahoma, Verdana" font-size="14">P17</text>
			<circle cx="420" cy="322" r="2" stroke="black" stroke-width="grey" fill="white" />
			<text x="406" y="315" fill="grey" font-family="Arial, Tahoma, Verdana" font-size="14">P18</text>
			<circle cx="490" cy="337" r="2" stroke="black" stroke-width="grey" fill="white" />
			<text x="476" y="330" fill="grey" font-family="Arial, Tahoma, Verdana" font-size="14">P19</text>
			<circle cx="552" cy="367" r="2" stroke="black" stroke-width="grey" fill="white" />
			<text x="538" y="360" fill="grey" font-family="Arial, Tahoma, Verdana" font-size="14">P20</text>
			<circle cx="599" cy="408" r="2" stroke="black" stroke-width="grey" fill="white" />
			<text x="585" y="401" fill="grey" font-family="Arial, Tahoma, Verdana" font-size="14">P21</text>
			<circle cx="630" cy="458" r="2" stroke="black" stroke-width="grey" fill="white" />
			<text x="616" y="451" fill="grey" font-family="Arial, Tahoma, Verdana" font-size="14">P22</text>
			<circle cx="384" cy="632" r="2" stroke="black" stroke-width="brown" fill="white" />
			<text x="376" y="630" fill="brown" font-family="Arial, Tahoma, Verdana" font-size="8">A01</text>
			<circle cx="421" cy="629" r="2" stroke="black" stroke-width="brown" fill="white" />
			<text x="413" y="627" fill="brown" font-family="Arial, Tahoma, Verdana" font-size="8">A02</text>
			<circle cx="456" cy="620" r="2" stroke="black" stroke-width="brown" fill="white" />
			<text x="448" y="618" fill="brown" font-family="Arial, Tahoma, Verdana" font-size="8">A03</text>
			<circle cx="488" cy="605" r="2" stroke="black" stroke-width="brown" fill="white" />
			<text x="480" y="603" fill="brown" font-family="Arial, Tahoma, Verdana" font-size="8">A04</text>
			<circle cx="514" cy="586" r="2" stroke="black" stroke-width="brown" fill="white" />
			<text x="506" y="584" fill="brown" font-family="Arial, Tahoma, Verdana" font-size="8">A05</text>
			<circle cx="534" cy="563" r="2" stroke="black" stroke-width="brown" fill="white" />
			<text x="526" y="561" fill="brown" font-family="Arial, Tahoma, Verdana" font-size="8">A06</text>
			<circle cx="384" cy="632" r="2" stroke="black" stroke-width="brown" fill="white" />
			<text x="376" y="630" fill="brown" font-family="Arial, Tahoma, Verdana" font-size="8">A07</text>
			<circle cx="545" cy="537" r="2" stroke="black" stroke-width="brown" fill="white" />
			<text x="537" y="535" fill="brown" font-family="Arial, Tahoma, Verdana" font-size="8">A08</text>
			<circle cx="549" cy="510" r="2" stroke="black" stroke-width="brown" fill="white" />
			<text x="541" y="508" fill="brown" font-family="Arial, Tahoma, Verdana" font-size="8">A09</text>
			<circle cx="544" cy="483" r="2" stroke="black" stroke-width="brown" fill="white" />
			<text x="536" y="481" fill="brown" font-family="Arial, Tahoma, Verdana" font-size="8">A10</text>
			<circle cx="531" cy="458" r="2" stroke="black" stroke-width="brown" fill="white" />
			<text x="523" y="456" fill="brown" font-family="Arial, Tahoma, Verdana" font-size="8">A11</text>
			<circle cx="384" cy="632" r="2" stroke="black" stroke-width="brown" fill="white" />
			<text x="376" y="630" fill="brown" font-family="Arial, Tahoma, Verdana" font-size="8">A12</text>
			<circle cx="510" cy="435" r="2" stroke="black" stroke-width="brown" fill="white" />
			<text x="502" y="433" fill="brown" font-family="Arial, Tahoma, Verdana" font-size="8">A13</text>
			<circle cx="384" cy="632" r="2" stroke="black" stroke-width="brown" fill="white" />
			<text x="376" y="630" fill="brown" font-family="Arial, Tahoma, Verdana" font-size="8">A14</text>
			<circle cx="483" cy="416" r="2" stroke="black" stroke-width="brown" fill="white" />
			<text x="475" y="414" fill="brown" font-family="Arial, Tahoma, Verdana" font-size="8">A15</text>
			<circle cx="451" cy="402" r="2" stroke="black" stroke-width="brown" fill="white" />
			<text x="443" y="400" fill="brown" font-family="Arial, Tahoma, Verdana" font-size="8">A16</text>
			<circle cx="415" cy="394" r="2" stroke="black" stroke-width="brown" fill="white" />
			<text x="407" y="392" fill="brown" font-family="Arial, Tahoma, Verdana" font-size="8">A17</text>
			<circle cx="378" cy="392" r="2" stroke="black" stroke-width="brown" fill="white" />
			<text x="370" y="390" fill="brown" font-family="Arial, Tahoma, Verdana" font-size="8">A18</text>
			<circle cx="341" cy="396" r="2" stroke="black" stroke-width="brown" fill="white" />
			<text x="333" y="394" fill="brown" font-family="Arial, Tahoma, Verdana" font-size="8">A19</text>
			<circle cx="307" cy="406" r="2" stroke="black" stroke-width="brown" fill="white" />
			<text x="299" y="404" fill="brown" font-family="Arial, Tahoma, Verdana" font-size="8">A20</text>
			<circle cx="276" cy="421" r="2" stroke="black" stroke-width="brown" fill="white" />
			<text x="268" y="419" fill="brown" font-family="Arial, Tahoma, Verdana" font-size="8">A21</text>
			<circle cx="251" cy="441" r="2" stroke="black" stroke-width="brown" fill="white" />
			<text x="243" y="439" fill="brown" font-family="Arial, Tahoma, Verdana" font-size="8">A22</text>
			<circle cx="232" cy="465" r="2" stroke="black" stroke-width="brown" fill="white" />
			<text x="224" y="463" fill="brown" font-family="Arial, Tahoma, Verdana" font-size="8">A23</text>
			<circle cx="222" cy="491" r="2" stroke="black" stroke-width="brown" fill="white" />
			<text x="214" y="489" fill="brown" font-family="Arial, Tahoma, Verdana" font-size="8">A24</text>
			<circle cx="219" cy="518" r="2" stroke="black" stroke-width="brown" fill="white" />
			<text x="211" y="516" fill="brown" font-family="Arial, Tahoma, Verdana" font-size="8">A25</text>
			<circle cx="225" cy="545" r="2" stroke="black" stroke-width="brown" fill="white" />
			<text x="217" y="543" fill="brown" font-family="Arial, Tahoma, Verdana" font-size="8">A26</text>
			<circle cx="240" cy="570" r="2" stroke="black" stroke-width="brown" fill="white" />
			<text x="232" y="568" fill="brown" font-family="Arial, Tahoma, Verdana" font-size="8">A27</text>
			<circle cx="261" cy="592" r="2" stroke="black" stroke-width="brown" fill="white" />
			<text x="253" y="590" fill="brown" font-family="Arial, Tahoma, Verdana" font-size="8">A28</text>
			<circle cx="289" cy="610" r="2" stroke="black" stroke-width="brown" fill="white" />
			<text x="281" y="608" fill="brown" font-family="Arial, Tahoma, Verdana" font-size="8">A29</text>
			<circle cx="322" cy="623" r="2" stroke="black" stroke-width="brown" fill="white" />
			<text x="314" y="621" fill="brown" font-family="Arial, Tahoma, Verdana" font-size="8">A30</text>
			<circle cx="358" cy="631" r="2" stroke="black" stroke-width="brown" fill="white" />
			<text x="350" y="629" fill="brown" font-family="Arial, Tahoma, Verdana" font-size="8">A31</text>
			<circle cx="396" cy="632" r="2" stroke="black" stroke-width="brown" fill="white" />
			<text x="388" y="630" fill="brown" font-family="Arial, Tahoma, Verdana" font-size="8">A32</text>
			<circle cx="432" cy="627" r="2" stroke="black" stroke-width="brown" fill="white" />
			<text x="424" y="625" fill="brown" font-family="Arial, Tahoma, Verdana" font-size="8">A33</text>
			<circle cx="467" cy="616" r="2" stroke="black" stroke-width="brown" fill="white" />
			<text x="459" y="614" fill="brown" font-family="Arial, Tahoma, Verdana" font-size="8">A34</text>
			<circle cx="497" cy="600" r="2" stroke="black" stroke-width="brown" fill="white" />
			<text x="489" y="598" fill="brown" font-family="Arial, Tahoma, Verdana" font-size="8">A35</text>
			<circle cx="521" cy="579" r="2" stroke="black" stroke-width="brown" fill="white" />
			<text x="513" y="577" fill="brown" font-family="Arial, Tahoma, Verdana" font-size="8">A36</text>
			<circle cx="538" cy="555" r="2" stroke="black" stroke-width="brown" fill="white" />
			<text x="530" y="553" fill="brown" font-family="Arial, Tahoma, Verdana" font-size="8">A37</text>
			<circle cx="547" cy="529" r="2" stroke="black" stroke-width="brown" fill="white" />
			<text x="539" y="527" fill="brown" font-family="Arial, Tahoma, Verdana" font-size="8">A38</text>
			<circle cx="548" cy="502" r="2" stroke="black" stroke-width="brown" fill="white" />
			<text x="540" y="500" fill="brown" font-family="Arial, Tahoma, Verdana" font-size="8">A39</text>
			<circle cx="384" cy="632" r="2" stroke="black" stroke-width="brown" fill="white" />
			<text x="376" y="630" fill="brown" font-family="Arial, Tahoma, Verdana" font-size="8">A40</text>
			<circle cx="421" cy="629" r="2" stroke="black" stroke-width="brown" fill="white" />
			<text x="413" y="627" fill="brown" font-family="Arial, Tahoma, Verdana" font-size="8">A41</text>
			<circle cx="456" cy="620" r="2" stroke="black" stroke-width="brown" fill="white" />
			<text x="448" y="618" fill="brown" font-family="Arial, Tahoma, Verdana" font-size="8">A42</text>
			<circle cx="384" cy="632" r="2" stroke="black" stroke-width="brown" fill="white" />
			<text x="376" y="630" fill="brown" font-family="Arial, Tahoma, Verdana" font-size="8">A43</text>
			<circle cx="488" cy="605" r="2" stroke="black" stroke-width="brown" fill="white" />
			<text x="480" y="603" fill="brown" font-family="Arial, Tahoma, Verdana" font-size="8">A44</text>
			<circle cx="514" cy="586" r="2" stroke="black" stroke-width="brown" fill="white" />
			<text x="506" y="584" fill="brown" font-family="Arial, Tahoma, Verdana" font-size="8">A45</text>
			<circle cx="534" cy="563" r="2" stroke="black" stroke-width="brown" fill="white" />
			<text x="526" y="561" fill="brown" font-family="Arial, Tahoma, Verdana" font-size="8">A46</text>
			<circle cx="541" cy="475" r="2" stroke="black" stroke-width="brown" fill="white" />
			<text x="533" y="473" fill="brown" font-family="Arial, Tahoma, Verdana" font-size="8">A47</text>
			<circle cx="421" cy="629" r="2" stroke="black" stroke-width="brown" fill="white" />
			<text x="413" y="627" fill="brown" font-family="Arial, Tahoma, Verdana" font-size="8">A48</text>
			<circle cx="525" cy="450" r="2" stroke="black" stroke-width="brown" fill="white" />
			<text x="517" y="448" fill="brown" font-family="Arial, Tahoma, Verdana" font-size="8">A49</text>
			<circle cx="503" cy="429" r="2" stroke="black" stroke-width="brown" fill="white" />
			<text x="495" y="427" fill="brown" font-family="Arial, Tahoma, Verdana" font-size="8">A50</text>
			<circle cx="384" cy="632" r="2" stroke="black" stroke-width="brown" fill="white" />
			<text x="376" y="630" fill="brown" font-family="Arial, Tahoma, Verdana" font-size="8">A51</text>
			<circle cx="384" cy="632" r="2" stroke="black" stroke-width="brown" fill="white" />
			<text x="376" y="630" fill="brown" font-family="Arial, Tahoma, Verdana" font-size="8">A52</text>
			<circle cx="474" cy="411" r="2" stroke="black" stroke-width="brown" fill="white" />
			<text x="466" y="409" fill="brown" font-family="Arial, Tahoma, Verdana" font-size="8">A53</text>
			<circle cx="440" cy="399" r="2" stroke="black" stroke-width="brown" fill="white" />
			<text x="432" y="397" fill="brown" font-family="Arial, Tahoma, Verdana" font-size="8">A54</text>
			<circle cx="404" cy="393" r="2" stroke="black" stroke-width="brown" fill="white" />
			<text x="396" y="391" fill="brown" font-family="Arial, Tahoma, Verdana" font-size="8">A55</text>
			<circle cx="367" cy="393" r="2" stroke="black" stroke-width="brown" fill="white" />
			<text x="359" y="391" fill="brown" font-family="Arial, Tahoma, Verdana" font-size="8">A56</text>
			<circle cx="330" cy="399" r="2" stroke="black" stroke-width="brown" fill="white" />
			<text x="322" y="397" fill="brown" font-family="Arial, Tahoma, Verdana" font-size="8">A57</text>
			<circle cx="297" cy="410" r="2" stroke="black" stroke-width="brown" fill="white" />
			<text x="289" y="408" fill="brown" font-family="Arial, Tahoma, Verdana" font-size="8">A58</text>
			<circle cx="267" cy="427" r="2" stroke="black" stroke-width="brown" fill="white" />
			<text x="259" y="425" fill="brown" font-family="Arial, Tahoma, Verdana" font-size="8">A59</text>
			<circle cx="384" cy="632" r="2" stroke="black" stroke-width="brown" fill="white" />
			<text x="376" y="630" fill="brown" font-family="Arial, Tahoma, Verdana" font-size="8">A60</text>
			<circle cx="244" cy="448" r="2" stroke="black" stroke-width="brown" fill="white" />
			<text x="236" y="446" fill="brown" font-family="Arial, Tahoma, Verdana" font-size="8">A61</text>
			<circle cx="228" cy="473" r="2" stroke="black" stroke-width="brown" fill="white" />
			<text x="220" y="471" fill="brown" font-family="Arial, Tahoma, Verdana" font-size="8">A62</text>
			<circle cx="220" cy="499" r="2" stroke="black" stroke-width="brown" fill="white" />
			<text x="212" y="497" fill="brown" font-family="Arial, Tahoma, Verdana" font-size="8">A63</text>
			<path d="M 490 337 q 0 0 -106 295" stroke="brown" stroke-width="2.10943791243" fill="none" /><path d="M 278 687 q 0 0 143 -58" stroke="brown" stroke-width="0.5" fill="none" /><path d="M 169 616 q 0 0 287 4" stroke="brown" stroke-width="0.5" fill="none" /><path d="M 488 605 q 0 0 -350 -39" stroke="brown" stroke-width="0.5" fill="none" /><path d="M 488 605 q 0 0 -319 11" stroke="brown" stroke-width="0.5" fill="none" /><path d="M 488 605 q 0 0 26 -19" stroke="brown" stroke-width="0.5" fill="none" /><path d="M 138 566 q 0 0 31 50" stroke="blue" stroke-width="1.19314718056" fill="none" /><path d="M 138 566 q 0 0 376 20" stroke="brown" stroke-width="0.5" fill="none" /><path d="M 169 616 q 0 0 345 -30" stroke="brown" stroke-width="0.5" fill="none" /><path d="M 490 687 q 0 0 44 -124" stroke="brown" stroke-width="0.5" fill="none" /><path d="M 128 512 q 0 0 256 120" stroke="brown" stroke-width="0.5" fill="none" /><path d="M 490 337 q 0 0 55 200" stroke="brown" stroke-width="0.5" fill="none" /><path d="M 348 702 q 0 0 201 -192" stroke="brown" stroke-width="0.5" fill="none" /><path d="M 348 702 q 0 0 196 -219" stroke="brown" stroke-width="1.19314718056" fill="none" /><path d="M 348 702 q 0 0 183 -244" stroke="brown" stroke-width="0.5" fill="none" /><path d="M 549 510 q 0 0 -5 -27" stroke="brown" stroke-width="0.5" fill="none" /><path d="M 549 510 q 0 0 -18 -52" stroke="brown" stroke-width="0.5" fill="none" /><path d="M 544 483 q 0 0 -13 -25" stroke="brown" stroke-width="0.5" fill="none" /><path d="M 128 512 q 0 0 256 120" stroke="brown" stroke-width="1.59861228867" fill="none" /><path d="M 348 702 q 0 0 162 -267" stroke="brown" stroke-width="0.5" fill="none" /><path d="M 348 702 q 0 0 36 -70" stroke="brown" stroke-width="0.5" fill="none" /><path d="M 348 702 q 0 0 135 -286" stroke="brown" stroke-width="0.5" fill="none" /><path d="M 510 435 q 0 0 -126 197" stroke="brown" stroke-width="0.5" fill="none" /><path d="M 510 435 q 0 0 -27 -19" stroke="brown" stroke-width="0.5" fill="none" /><path d="M 384 632 q 0 0 99 -216" stroke="brown" stroke-width="0.5" fill="none" /><path d="M 128 512 q 0 0 424 -145" stroke="blue" stroke-width="0.5" fill="none" /><path d="M 138 566 q 0 0 313 -164" stroke="brown" stroke-width="1.19314718056" fill="none" /><path d="M 138 566 q 0 0 210 -244" stroke="blue" stroke-width="0.5" fill="none" /><path d="M 138 566 q 0 0 414 -199" stroke="blue" stroke-width="0.5" fill="none" /><path d="M 138 566 q 0 0 492 0" stroke="blue" stroke-width="0.5" fill="none" /><path d="M 348 322 q 0 0 204 45" stroke="blue" stroke-width="0.5" fill="none" /><path d="M 348 322 q 0 0 282 244" stroke="blue" stroke-width="0.5" fill="none" /><path d="M 552 367 q 0 0 78 199" stroke="blue" stroke-width="0.5" fill="none" /><path d="M 278 687 q 0 0 137 -293" stroke="brown" stroke-width="0.5" fill="none" /><path d="M 278 687 q 0 0 106 -55" stroke="brown" stroke-width="0.5" fill="none" /><path d="M 278 687 q 0 0 100 -295" stroke="brown" stroke-width="0.5" fill="none" /><path d="M 278 687 q 0 0 63 -291" stroke="brown" stroke-width="0.5" fill="none" /><path d="M 278 687 q 0 0 29 -281" stroke="brown" stroke-width="0.5" fill="none" /><path d="M 384 632 q 0 0 -6 -240" stroke="brown" stroke-width="0.5" fill="none" /><path d="M 384 632 q 0 0 -43 -236" stroke="brown" stroke-width="0.5" fill="none" /><path d="M 384 632 q 0 0 -77 -226" stroke="brown" stroke-width="0.5" fill="none" /><path d="M 378 392 q 0 0 -37 4" stroke="brown" stroke-width="0.5" fill="none" /><path d="M 378 392 q 0 0 -71 14" stroke="brown" stroke-width="0.5" fill="none" /><path d="M 341 396 q 0 0 -34 10" stroke="brown" stroke-width="1.19314718056" fill="none" /><path d="M 490 687 q 0 0 -214 -266" stroke="brown" stroke-width="0.5" fill="none" /><path d="M 278 687 q 0 0 -27 -246" stroke="brown" stroke-width="0.5" fill="none" /><path d="M 630 458 q 0 0 -398 7" stroke="brown" stroke-width="0.5" fill="none" /><path d="M 169 616 q 0 0 53 -125" stroke="brown" stroke-width="0.5" fill="none" /><path d="M 128 512 q 0 0 91 6" stroke="brown" stroke-width="0.5" fill="none" /><path d="M 128 512 q 0 0 97 33" stroke="brown" stroke-width="0.5" fill="none" /><path d="M 128 512 q 0 0 112 58" stroke="brown" stroke-width="0.5" fill="none" /><path d="M 219 518 q 0 0 6 27" stroke="brown" stroke-width="0.5" fill="none" /><path d="M 219 518 q 0 0 21 52" stroke="brown" stroke-width="0.5" fill="none" /><path d="M 225 545 q 0 0 15 25" stroke="brown" stroke-width="0.5" fill="none" /><path d="M 552 367 q 0 0 -291 225" stroke="brown" stroke-width="0.5" fill="none" /><path d="M 552 367 q 0 0 -263 243" stroke="brown" stroke-width="0.5" fill="none" /><path d="M 552 367 q 0 0 -230 256" stroke="brown" stroke-width="0.5" fill="none" /><path d="M 261 592 q 0 0 28 18" stroke="brown" stroke-width="0.5" fill="none" /><path d="M 261 592 q 0 0 61 31" stroke="brown" stroke-width="0.5" fill="none" /><path d="M 289 610 q 0 0 33 13" stroke="brown" stroke-width="0.5" fill="none" /><path d="M 552 657 q 0 0 -194 -26" stroke="brown" stroke-width="0.5" fill="none" /><path d="M 128 512 q 0 0 268 120" stroke="brown" stroke-width="0.5" fill="none" /><path d="M 138 566 q 0 0 81 -48" stroke="brown" stroke-width="0.5" fill="none" /><path d="M 138 566 q 0 0 294 61" stroke="brown" stroke-width="0.5" fill="none" /><path d="M 219 518 q 0 0 213 109" stroke="brown" stroke-width="0.5" fill="none" /><path d="M 169 616 q 0 0 56 -71" stroke="brown" stroke-width="0.5" fill="none" /><path d="M 348 702 q 0 0 119 -86" stroke="brown" stroke-width="0.5" fill="none" /><path d="M 278 687 q 0 0 219 -87" stroke="brown" stroke-width="0.5" fill="none" /><path d="M 630 566 q 0 0 -109 13" stroke="brown" stroke-width="0.5" fill="none" /><path d="M 169 408 q 0 0 369 147" stroke="brown" stroke-width="0.5" fill="none" /><path d="M 490 687 q 0 0 57 -158" stroke="brown" stroke-width="0.5" fill="none" /><path d="M 630 458 q 0 0 -502 54" stroke="blue" stroke-width="0.5" fill="none" /><path d="M 630 458 q 0 0 -82 44" stroke="brown" stroke-width="0.5" fill="none" /><path d="M 128 512 q 0 0 420 -10" stroke="brown" stroke-width="0.5" fill="none" /><path d="M 348 702 q 0 0 36 -70" stroke="brown" stroke-width="0.5" fill="none" /><path d="M 348 702 q 0 0 73 -73" stroke="brown" stroke-width="0.5" fill="none" /><path d="M 348 702 q 0 0 108 -82" stroke="brown" stroke-width="0.5" fill="none" /><path d="M 384 632 q 0 0 37 -3" stroke="brown" stroke-width="0.5" fill="none" /><path d="M 384 632 q 0 0 72 -12" stroke="brown" stroke-width="0.5" fill="none" /><path d="M 421 629 q 0 0 35 -9" stroke="brown" stroke-width="0.5" fill="none" /><path d="M 138 566 q 0 0 414 91" stroke="blue" stroke-width="0.5" fill="none" /><path d="M 138 566 q 0 0 246 66" stroke="brown" stroke-width="0.5" fill="none" /><path d="M 552 657 q 0 0 -168 -25" stroke="brown" stroke-width="0.5" fill="none" /><path d="M 128 512 q 0 0 360 93" stroke="brown" stroke-width="0.5" fill="none" /><path d="M 128 512 q 0 0 386 74" stroke="brown" stroke-width="0.5" fill="none" /><path d="M 128 512 q 0 0 406 51" stroke="brown" stroke-width="0.5" fill="none" /><path d="M 488 605 q 0 0 26 -19" stroke="brown" stroke-width="0.5" fill="none" /><path d="M 488 605 q 0 0 46 -42" stroke="brown" stroke-width="0.5" fill="none" /><path d="M 514 586 q 0 0 20 -23" stroke="brown" stroke-width="0.5" fill="none" /><path d="M 169 616 q 0 0 372 -141" stroke="brown" stroke-width="1.19314718056" fill="none" /><path d="M 278 687 q 0 0 143 -58" stroke="brown" stroke-width="0.5" fill="none" /><path d="M 640 512 q 0 0 -292 190" stroke="blue" stroke-width="0.5" fill="none" /><path d="M 169 616 q 0 0 356 -166" stroke="brown" stroke-width="0.5" fill="none" /><path d="M 169 616 q 0 0 334 -187" stroke="brown" stroke-width="0.5" fill="none" /><path d="M 169 616 q 0 0 215 16" stroke="brown" stroke-width="0.5" fill="none" /><path d="M 503 429 q 0 0 -119 203" stroke="brown" stroke-width="0.5" fill="none" /><path d="M 169 408 q 0 0 215 224" stroke="brown" stroke-width="0.5" fill="none" /><path d="M 552 657 q 0 0 -78 -246" stroke="brown" stroke-width="0.5" fill="none" /><path d="M 552 657 q 0 0 -112 -258" stroke="brown" stroke-width="0.5" fill="none" /><path d="M 474 411 q 0 0 -34 -12" stroke="brown" stroke-width="0.5" fill="none" /><path d="M 348 702 q 0 0 204 -45" stroke="blue" stroke-width="0.5" fill="none" /><path d="M 348 702 q 0 0 72 0" stroke="blue" stroke-width="0.5" fill="none" /><path d="M 348 702 q 0 0 56 -309" stroke="brown" stroke-width="0.5" fill="none" /><path d="M 348 702 q 0 0 19 -309" stroke="brown" stroke-width="0.5" fill="none" /><path d="M 552 657 q 0 0 -132 45" stroke="blue" stroke-width="0.5" fill="none" /><path d="M 552 657 q 0 0 -8 -174" stroke="brown" stroke-width="0.5" fill="none" /><path d="M 552 657 q 0 0 -148 -264" stroke="brown" stroke-width="0.5" fill="none" /><path d="M 552 657 q 0 0 -185 -264" stroke="brown" stroke-width="0.5" fill="none" /><path d="M 420 702 q 0 0 124 -219" stroke="brown" stroke-width="0.5" fill="none" /><path d="M 420 702 q 0 0 -16 -309" stroke="brown" stroke-width="0.5" fill="none" /><path d="M 420 702 q 0 0 -53 -309" stroke="brown" stroke-width="0.5" fill="none" /><path d="M 544 483 q 0 0 -140 -90" stroke="brown" stroke-width="0.5" fill="none" /><path d="M 544 483 q 0 0 -177 -90" stroke="brown" stroke-width="0.5" fill="none" /><path d="M 404 393 q 0 0 -37 0" stroke="brown" stroke-width="0.5" fill="none" /><path d="M 552 657 q 0 0 -211 -261" stroke="brown" stroke-width="0.5" fill="none" /><path d="M 552 657 q 0 0 -245 -251" stroke="brown" stroke-width="0.5" fill="none" /><path d="M 552 657 q 0 0 -222 -258" stroke="brown" stroke-width="0.5" fill="none" /><path d="M 341 396 q 0 0 -11 3" stroke="brown" stroke-width="0.5" fill="none" /><path d="M 307 406 q 0 0 23 -7" stroke="brown" stroke-width="0.5" fill="none" /><path d="M 348 702 q 0 0 204 -335" stroke="blue" stroke-width="0.5" fill="none" /><path d="M 348 702 q 0 0 -51 -292" stroke="brown" stroke-width="0.5" fill="none" /><path d="M 348 702 q 0 0 -81 -275" stroke="brown" stroke-width="0.5" fill="none" /><path d="M 552 367 q 0 0 -255 43" stroke="brown" stroke-width="0.5" fill="none" /><path d="M 552 367 q 0 0 -285 60" stroke="brown" stroke-width="0.5" fill="none" /><path d="M 297 410 q 0 0 -30 17" stroke="brown" stroke-width="0.5" fill="none" /><path d="M 630 458 q 0 0 -246 174" stroke="brown" stroke-width="0.5" fill="none" /><path d="M 278 687 q 0 0 -34 -239" stroke="brown" stroke-width="0.5" fill="none" /><path d="M 128 512 q 0 0 100 -39" stroke="brown" stroke-width="0.5" fill="none" /><path d="M 278 687 q 0 0 -58 -188" stroke="brown" stroke-width="0.5" fill="none" /><text x="510" y="180" fill="black" font-family="Arial, Tahoma, Verdana" font-size="10">UFPR</text>
			<text x="510" y="480" fill="black" font-family="Arial, Tahoma, Verdana" font-size="10">UFSCAR</text>
			
					</svg>