<?xml version="1.0" standalone="no"?>
					<!DOCTYPE svg PUBLIC "-//W3C//DTD SVG 1.1//EN" "http://www.w3.org/Graphics/SVG/1.1/DTD/svg11.dtd">
					<svg xmlns="http://www.w3.org/2000/svg" version="1.1" height="1024px" width="768px"> 
					<text x="10" y="20" fill="black" font-family="Arial, Tahoma, Verdana" font-size="20">Programas de Pós-Graduação em Ciência da Informação</text>
			<text x="284" y="432" fill="black" font-family="Arial, Tahoma, Verdana" font-size="14">UnB-PPGCINF</text>
			<circle cx="640" cy="512" r="2" stroke="black" stroke-width="grey" fill="white" />
			<text x="626" y="505" fill="grey" font-family="Arial, Tahoma, Verdana" font-size="14">P01</text>
			<circle cx="635" cy="548" r="2" stroke="black" stroke-width="grey" fill="white" />
			<text x="621" y="541" fill="grey" font-family="Arial, Tahoma, Verdana" font-size="14">P02</text>
			<circle cx="622" cy="583" r="2" stroke="black" stroke-width="grey" fill="white" />
			<text x="608" y="576" fill="grey" font-family="Arial, Tahoma, Verdana" font-size="14">P03</text>
			<circle cx="599" cy="616" r="2" stroke="black" stroke-width="grey" fill="white" />
			<text x="585" y="609" fill="grey" font-family="Arial, Tahoma, Verdana" font-size="14">P04</text>
			<circle cx="569" cy="644" r="2" stroke="black" stroke-width="grey" fill="white" />
			<text x="555" y="637" fill="grey" font-family="Arial, Tahoma, Verdana" font-size="14">P05</text>
			<circle cx="532" cy="668" r="2" stroke="black" stroke-width="grey" fill="white" />
			<text x="518" y="661" fill="grey" font-family="Arial, Tahoma, Verdana" font-size="14">P06</text>
			<circle cx="490" cy="687" r="2" stroke="black" stroke-width="grey" fill="white" />
			<text x="476" y="680" fill="grey" font-family="Arial, Tahoma, Verdana" font-size="14">P07</text>
			<circle cx="444" cy="699" r="2" stroke="black" stroke-width="grey" fill="white" />
			<text x="430" y="692" fill="grey" font-family="Arial, Tahoma, Verdana" font-size="14">P08</text>
			<circle cx="396" cy="704" r="2" stroke="black" stroke-width="grey" fill="white" />
			<text x="382" y="697" fill="grey" font-family="Arial, Tahoma, Verdana" font-size="14">P09</text>
			<circle cx="348" cy="702" r="2" stroke="black" stroke-width="grey" fill="white" />
			<text x="334" y="695" fill="grey" font-family="Arial, Tahoma, Verdana" font-size="14">P10</text>
			<circle cx="300" cy="693" r="2" stroke="black" stroke-width="grey" fill="white" />
			<text x="286" y="686" fill="grey" font-family="Arial, Tahoma, Verdana" font-size="14">P11</text>
			<circle cx="256" cy="678" r="2" stroke="black" stroke-width="grey" fill="white" />
			<text x="242" y="671" fill="grey" font-family="Arial, Tahoma, Verdana" font-size="14">P12</text>
			<circle cx="216" cy="657" r="2" stroke="black" stroke-width="grey" fill="white" />
			<text x="202" y="650" fill="grey" font-family="Arial, Tahoma, Verdana" font-size="14">P13</text>
			<circle cx="183" cy="631" r="2" stroke="black" stroke-width="grey" fill="white" />
			<text x="169" y="624" fill="grey" font-family="Arial, Tahoma, Verdana" font-size="14">P14</text>
			<circle cx="156" cy="600" r="2" stroke="black" stroke-width="grey" fill="white" />
			<text x="142" y="593" fill="grey" font-family="Arial, Tahoma, Verdana" font-size="14">P15</text>
			<circle cx="138" cy="566" r="2" stroke="black" stroke-width="grey" fill="white" />
			<text x="124" y="559" fill="grey" font-family="Arial, Tahoma, Verdana" font-size="14">P16</text>
			<circle cx="129" cy="530" r="2" stroke="black" stroke-width="grey" fill="white" />
			<text x="115" y="523" fill="grey" font-family="Arial, Tahoma, Verdana" font-size="14">P17</text>
			<circle cx="129" cy="494" r="2" stroke="black" stroke-width="grey" fill="white" />
			<text x="115" y="487" fill="grey" font-family="Arial, Tahoma, Verdana" font-size="14">P18</text>
			<circle cx="138" cy="458" r="2" stroke="black" stroke-width="grey" fill="white" />
			<text x="124" y="451" fill="grey" font-family="Arial, Tahoma, Verdana" font-size="14">P19</text>
			<circle cx="156" cy="424" r="2" stroke="black" stroke-width="grey" fill="white" />
			<text x="142" y="417" fill="grey" font-family="Arial, Tahoma, Verdana" font-size="14">P20</text>
			<circle cx="183" cy="393" r="2" stroke="black" stroke-width="grey" fill="white" />
			<text x="169" y="386" fill="grey" font-family="Arial, Tahoma, Verdana" font-size="14">P21</text>
			<circle cx="216" cy="367" r="2" stroke="black" stroke-width="grey" fill="white" />
			<text x="202" y="360" fill="grey" font-family="Arial, Tahoma, Verdana" font-size="14">P22</text>
			<circle cx="256" cy="346" r="2" stroke="black" stroke-width="grey" fill="white" />
			<text x="242" y="339" fill="grey" font-family="Arial, Tahoma, Verdana" font-size="14">P23</text>
			<circle cx="300" cy="331" r="2" stroke="black" stroke-width="grey" fill="white" />
			<text x="286" y="324" fill="grey" font-family="Arial, Tahoma, Verdana" font-size="14">P24</text>
			<circle cx="348" cy="322" r="2" stroke="black" stroke-width="grey" fill="white" />
			<text x="334" y="315" fill="grey" font-family="Arial, Tahoma, Verdana" font-size="14">P25</text>
			<circle cx="396" cy="320" r="2" stroke="black" stroke-width="grey" fill="white" />
			<text x="382" y="313" fill="grey" font-family="Arial, Tahoma, Verdana" font-size="14">P26</text>
			<circle cx="444" cy="325" r="2" stroke="black" stroke-width="grey" fill="white" />
			<text x="430" y="318" fill="grey" font-family="Arial, Tahoma, Verdana" font-size="14">P27</text>
			<circle cx="490" cy="337" r="2" stroke="black" stroke-width="grey" fill="white" />
			<text x="476" y="330" fill="grey" font-family="Arial, Tahoma, Verdana" font-size="14">P28</text>
			<circle cx="532" cy="356" r="2" stroke="black" stroke-width="grey" fill="white" />
			<text x="518" y="349" fill="grey" font-family="Arial, Tahoma, Verdana" font-size="14">P29</text>
			<circle cx="569" cy="380" r="2" stroke="black" stroke-width="grey" fill="white" />
			<text x="555" y="373" fill="grey" font-family="Arial, Tahoma, Verdana" font-size="14">P30</text>
			<circle cx="599" cy="408" r="2" stroke="black" stroke-width="grey" fill="white" />
			<text x="585" y="401" fill="grey" font-family="Arial, Tahoma, Verdana" font-size="14">P31</text>
			<circle cx="622" cy="441" r="2" stroke="black" stroke-width="grey" fill="white" />
			<text x="608" y="434" fill="grey" font-family="Arial, Tahoma, Verdana" font-size="14">P32</text>
			<circle cx="635" cy="476" r="2" stroke="black" stroke-width="grey" fill="white" />
			<text x="621" y="469" fill="grey" font-family="Arial, Tahoma, Verdana" font-size="14">P33</text>
			<circle cx="384" cy="632" r="2" stroke="black" stroke-width="brown" fill="white" />
			<text x="376" y="630" fill="brown" font-family="Arial, Tahoma, Verdana" font-size="8">A01</text>
			<circle cx="421" cy="629" r="2" stroke="black" stroke-width="brown" fill="white" />
			<text x="413" y="627" fill="brown" font-family="Arial, Tahoma, Verdana" font-size="8">A02</text>
			<circle cx="384" cy="632" r="2" stroke="black" stroke-width="brown" fill="white" />
			<text x="376" y="630" fill="brown" font-family="Arial, Tahoma, Verdana" font-size="8">A03</text>
			<circle cx="456" cy="620" r="2" stroke="black" stroke-width="brown" fill="white" />
			<text x="448" y="618" fill="brown" font-family="Arial, Tahoma, Verdana" font-size="8">A04</text>
			<circle cx="488" cy="605" r="2" stroke="black" stroke-width="brown" fill="white" />
			<text x="480" y="603" fill="brown" font-family="Arial, Tahoma, Verdana" font-size="8">A05</text>
			<circle cx="514" cy="586" r="2" stroke="black" stroke-width="brown" fill="white" />
			<text x="506" y="584" fill="brown" font-family="Arial, Tahoma, Verdana" font-size="8">A06</text>
			<circle cx="534" cy="563" r="2" stroke="black" stroke-width="brown" fill="white" />
			<text x="526" y="561" fill="brown" font-family="Arial, Tahoma, Verdana" font-size="8">A07</text>
			<circle cx="545" cy="537" r="2" stroke="black" stroke-width="brown" fill="white" />
			<text x="537" y="535" fill="brown" font-family="Arial, Tahoma, Verdana" font-size="8">A08</text>
			<circle cx="549" cy="510" r="2" stroke="black" stroke-width="brown" fill="white" />
			<text x="541" y="508" fill="brown" font-family="Arial, Tahoma, Verdana" font-size="8">A09</text>
			<circle cx="544" cy="483" r="2" stroke="black" stroke-width="brown" fill="white" />
			<text x="536" y="481" fill="brown" font-family="Arial, Tahoma, Verdana" font-size="8">A10</text>
			<circle cx="531" cy="458" r="2" stroke="black" stroke-width="brown" fill="white" />
			<text x="523" y="456" fill="brown" font-family="Arial, Tahoma, Verdana" font-size="8">A11</text>
			<circle cx="510" cy="435" r="2" stroke="black" stroke-width="brown" fill="white" />
			<text x="502" y="433" fill="brown" font-family="Arial, Tahoma, Verdana" font-size="8">A12</text>
			<circle cx="483" cy="416" r="2" stroke="black" stroke-width="brown" fill="white" />
			<text x="475" y="414" fill="brown" font-family="Arial, Tahoma, Verdana" font-size="8">A13</text>
			<circle cx="451" cy="402" r="2" stroke="black" stroke-width="brown" fill="white" />
			<text x="443" y="400" fill="brown" font-family="Arial, Tahoma, Verdana" font-size="8">A14</text>
			<circle cx="415" cy="394" r="2" stroke="black" stroke-width="brown" fill="white" />
			<text x="407" y="392" fill="brown" font-family="Arial, Tahoma, Verdana" font-size="8">A15</text>
			<circle cx="378" cy="392" r="2" stroke="black" stroke-width="brown" fill="white" />
			<text x="370" y="390" fill="brown" font-family="Arial, Tahoma, Verdana" font-size="8">A16</text>
			<circle cx="341" cy="396" r="2" stroke="black" stroke-width="brown" fill="white" />
			<text x="333" y="394" fill="brown" font-family="Arial, Tahoma, Verdana" font-size="8">A17</text>
			<circle cx="307" cy="406" r="2" stroke="black" stroke-width="brown" fill="white" />
			<text x="299" y="404" fill="brown" font-family="Arial, Tahoma, Verdana" font-size="8">A18</text>
			<circle cx="276" cy="421" r="2" stroke="black" stroke-width="brown" fill="white" />
			<text x="268" y="419" fill="brown" font-family="Arial, Tahoma, Verdana" font-size="8">A19</text>
			<circle cx="251" cy="441" r="2" stroke="black" stroke-width="brown" fill="white" />
			<text x="243" y="439" fill="brown" font-family="Arial, Tahoma, Verdana" font-size="8">A20</text>
			<circle cx="232" cy="465" r="2" stroke="black" stroke-width="brown" fill="white" />
			<text x="224" y="463" fill="brown" font-family="Arial, Tahoma, Verdana" font-size="8">A21</text>
			<circle cx="222" cy="491" r="2" stroke="black" stroke-width="brown" fill="white" />
			<text x="214" y="489" fill="brown" font-family="Arial, Tahoma, Verdana" font-size="8">A22</text>
			<circle cx="219" cy="518" r="2" stroke="black" stroke-width="brown" fill="white" />
			<text x="211" y="516" fill="brown" font-family="Arial, Tahoma, Verdana" font-size="8">A23</text>
			<circle cx="225" cy="545" r="2" stroke="black" stroke-width="brown" fill="white" />
			<text x="217" y="543" fill="brown" font-family="Arial, Tahoma, Verdana" font-size="8">A24</text>
			<circle cx="240" cy="570" r="2" stroke="black" stroke-width="brown" fill="white" />
			<text x="232" y="568" fill="brown" font-family="Arial, Tahoma, Verdana" font-size="8">A25</text>
			<circle cx="261" cy="592" r="2" stroke="black" stroke-width="brown" fill="white" />
			<text x="253" y="590" fill="brown" font-family="Arial, Tahoma, Verdana" font-size="8">A26</text>
			<circle cx="289" cy="610" r="2" stroke="black" stroke-width="brown" fill="white" />
			<text x="281" y="608" fill="brown" font-family="Arial, Tahoma, Verdana" font-size="8">A27</text>
			<circle cx="322" cy="623" r="2" stroke="black" stroke-width="brown" fill="white" />
			<text x="314" y="621" fill="brown" font-family="Arial, Tahoma, Verdana" font-size="8">A28</text>
			<path d="M 384 632 q 0 0 12 72" stroke="brown" stroke-width="0.5" fill="none" /><path d="M 421 629 q 0 0 219 -117" stroke="brown" stroke-width="0.5" fill="none" /><path d="M 384 632 q 0 0 -228 -208" stroke="brown" stroke-width="0.5" fill="none" /><path d="M 444 699 q 0 0 12 -79" stroke="brown" stroke-width="0.5" fill="none" /><path d="M 444 699 q 0 0 44 -94" stroke="brown" stroke-width="0.5" fill="none" /><path d="M 456 620 q 0 0 32 -15" stroke="brown" stroke-width="0.5" fill="none" /><path d="M 532 356 q 0 0 -18 230" stroke="brown" stroke-width="0.5" fill="none" /><path d="M 138 566 q 0 0 396 -3" stroke="brown" stroke-width="0.5" fill="none" /><path d="M 129 494 q 0 0 416 43" stroke="brown" stroke-width="0.5" fill="none" /><path d="M 129 494 q 0 0 420 16" stroke="brown" stroke-width="0.5" fill="none" /><path d="M 129 494 q 0 0 415 -11" stroke="brown" stroke-width="0.5" fill="none" /><path d="M 545 537 q 0 0 4 -27" stroke="brown" stroke-width="0.5" fill="none" /><path d="M 545 537 q 0 0 -1 -54" stroke="brown" stroke-width="0.5" fill="none" /><path d="M 549 510 q 0 0 -5 -27" stroke="brown" stroke-width="0.5" fill="none" /><path d="M 444 699 q 0 0 87 -241" stroke="brown" stroke-width="0.5" fill="none" /><path d="M 569 644 q 0 0 -59 -209" stroke="brown" stroke-width="0.5" fill="none" /><path d="M 483 416 q 0 0 139 25" stroke="brown" stroke-width="0.5" fill="none" /><path d="M 483 416 q 0 0 -32 -14" stroke="brown" stroke-width="0.5" fill="none" /><path d="M 622 441 q 0 0 -171 -39" stroke="brown" stroke-width="0.5" fill="none" /><path d="M 635 548 q 0 0 -220 -154" stroke="brown" stroke-width="0.5" fill="none" /><path d="M 532 668 q 0 0 -154 -276" stroke="brown" stroke-width="0.5" fill="none" /><path d="M 569 644 q 0 0 -228 -248" stroke="brown" stroke-width="0.5" fill="none" /><path d="M 444 699 q 0 0 -137 -293" stroke="brown" stroke-width="1.19314718056" fill="none" /><path d="M 276 421 q 0 0 323 195" stroke="brown" stroke-width="0.5" fill="none" /><path d="M 183 393 q 0 0 68 48" stroke="brown" stroke-width="1.88629436112" fill="none" /><path d="M 396 704 q 0 0 -164 -239" stroke="brown" stroke-width="0.5" fill="none" /><path d="M 222 491 q 0 0 347 153" stroke="brown" stroke-width="0.5" fill="none" /><path d="M 222 491 q 0 0 -3 27" stroke="brown" stroke-width="0.5" fill="none" /><path d="M 569 644 q 0 0 -350 -126" stroke="brown" stroke-width="1.19314718056" fill="none" /><path d="M 183 393 q 0 0 42 152" stroke="brown" stroke-width="1.19314718056" fill="none" /><path d="M 622 441 q 0 0 -322 -110" stroke="blue" stroke-width="0.5" fill="none" /><path d="M 348 702 q 0 0 -108 -132" stroke="brown" stroke-width="0.5" fill="none" /><path d="M 569 644 q 0 0 -308 -52" stroke="brown" stroke-width="0.5" fill="none" /><path d="M 444 699 q 0 0 -155 -89" stroke="brown" stroke-width="0.5" fill="none" /><path d="M 348 702 q 0 0 -26 -79" stroke="brown" stroke-width="0.5" fill="none" /><text x="510" y="180" fill="black" font-family="Arial, Tahoma, Verdana" font-size="10">UFPR</text>
			<text x="510" y="480" fill="black" font-family="Arial, Tahoma, Verdana" font-size="10">UFSCAR</text>
			
					</svg>