<?xml version="1.0" standalone="no"?>
					<!DOCTYPE svg PUBLIC "-//W3C//DTD SVG 1.1//EN" "http://www.w3.org/Graphics/SVG/1.1/DTD/svg11.dtd">
					<svg xmlns="http://www.w3.org/2000/svg" version="1.1" height="1024px" width="768px"> 
					<text x="10" y="20" fill="black" font-family="Arial, Tahoma, Verdana" font-size="20">Programas de Pós-Graduação em Ciência da Informação</text>
			<text x="284" y="432" fill="black" font-family="Arial, Tahoma, Verdana" font-size="14">UFRJ/IB-PPGCI</text>
			<circle cx="640" cy="512" r="2" stroke="black" stroke-width="grey" fill="white" />
			<text x="626" y="505" fill="grey" font-family="Arial, Tahoma, Verdana" font-size="14">P01</text>
			<circle cx="632" cy="560" r="2" stroke="black" stroke-width="grey" fill="white" />
			<text x="618" y="553" fill="grey" font-family="Arial, Tahoma, Verdana" font-size="14">P02</text>
			<circle cx="608" cy="604" r="2" stroke="black" stroke-width="grey" fill="white" />
			<text x="594" y="597" fill="grey" font-family="Arial, Tahoma, Verdana" font-size="14">P03</text>
			<circle cx="571" cy="643" r="2" stroke="black" stroke-width="grey" fill="white" />
			<text x="557" y="636" fill="grey" font-family="Arial, Tahoma, Verdana" font-size="14">P04</text>
			<circle cx="521" cy="674" r="2" stroke="black" stroke-width="grey" fill="white" />
			<text x="507" y="667" fill="grey" font-family="Arial, Tahoma, Verdana" font-size="14">P05</text>
			<circle cx="463" cy="695" r="2" stroke="black" stroke-width="grey" fill="white" />
			<text x="449" y="688" fill="grey" font-family="Arial, Tahoma, Verdana" font-size="14">P06</text>
			<circle cx="400" cy="704" r="2" stroke="black" stroke-width="grey" fill="white" />
			<text x="386" y="697" fill="grey" font-family="Arial, Tahoma, Verdana" font-size="14">P07</text>
			<circle cx="336" cy="701" r="2" stroke="black" stroke-width="grey" fill="white" />
			<text x="322" y="694" fill="grey" font-family="Arial, Tahoma, Verdana" font-size="14">P08</text>
			<circle cx="275" cy="686" r="2" stroke="black" stroke-width="grey" fill="white" />
			<text x="261" y="679" fill="grey" font-family="Arial, Tahoma, Verdana" font-size="14">P09</text>
			<circle cx="221" cy="660" r="2" stroke="black" stroke-width="grey" fill="white" />
			<text x="207" y="653" fill="grey" font-family="Arial, Tahoma, Verdana" font-size="14">P10</text>
			<circle cx="177" cy="625" r="2" stroke="black" stroke-width="grey" fill="white" />
			<text x="163" y="618" fill="grey" font-family="Arial, Tahoma, Verdana" font-size="14">P11</text>
			<circle cx="146" cy="583" r="2" stroke="black" stroke-width="grey" fill="white" />
			<text x="132" y="576" fill="grey" font-family="Arial, Tahoma, Verdana" font-size="14">P12</text>
			<circle cx="130" cy="536" r="2" stroke="black" stroke-width="grey" fill="white" />
			<text x="116" y="529" fill="grey" font-family="Arial, Tahoma, Verdana" font-size="14">P13</text>
			<circle cx="130" cy="488" r="2" stroke="black" stroke-width="grey" fill="white" />
			<text x="116" y="481" fill="grey" font-family="Arial, Tahoma, Verdana" font-size="14">P14</text>
			<circle cx="146" cy="441" r="2" stroke="black" stroke-width="grey" fill="white" />
			<text x="132" y="434" fill="grey" font-family="Arial, Tahoma, Verdana" font-size="14">P15</text>
			<circle cx="177" cy="399" r="2" stroke="black" stroke-width="grey" fill="white" />
			<text x="163" y="392" fill="grey" font-family="Arial, Tahoma, Verdana" font-size="14">P16</text>
			<circle cx="221" cy="364" r="2" stroke="black" stroke-width="grey" fill="white" />
			<text x="207" y="357" fill="grey" font-family="Arial, Tahoma, Verdana" font-size="14">P17</text>
			<circle cx="275" cy="338" r="2" stroke="black" stroke-width="grey" fill="white" />
			<text x="261" y="331" fill="grey" font-family="Arial, Tahoma, Verdana" font-size="14">P18</text>
			<circle cx="336" cy="323" r="2" stroke="black" stroke-width="grey" fill="white" />
			<text x="322" y="316" fill="grey" font-family="Arial, Tahoma, Verdana" font-size="14">P19</text>
			<circle cx="400" cy="320" r="2" stroke="black" stroke-width="grey" fill="white" />
			<text x="386" y="313" fill="grey" font-family="Arial, Tahoma, Verdana" font-size="14">P20</text>
			<circle cx="463" cy="329" r="2" stroke="black" stroke-width="grey" fill="white" />
			<text x="449" y="322" fill="grey" font-family="Arial, Tahoma, Verdana" font-size="14">P21</text>
			<circle cx="521" cy="350" r="2" stroke="black" stroke-width="grey" fill="white" />
			<text x="507" y="343" fill="grey" font-family="Arial, Tahoma, Verdana" font-size="14">P22</text>
			<circle cx="571" cy="381" r="2" stroke="black" stroke-width="grey" fill="white" />
			<text x="557" y="374" fill="grey" font-family="Arial, Tahoma, Verdana" font-size="14">P23</text>
			<circle cx="608" cy="420" r="2" stroke="black" stroke-width="grey" fill="white" />
			<text x="594" y="413" fill="grey" font-family="Arial, Tahoma, Verdana" font-size="14">P24</text>
			<circle cx="632" cy="464" r="2" stroke="black" stroke-width="grey" fill="white" />
			<text x="618" y="457" fill="grey" font-family="Arial, Tahoma, Verdana" font-size="14">P25</text>
			<circle cx="384" cy="632" r="2" stroke="black" stroke-width="brown" fill="white" />
			<text x="376" y="630" fill="brown" font-family="Arial, Tahoma, Verdana" font-size="8">A01</text>
			<circle cx="384" cy="632" r="2" stroke="black" stroke-width="brown" fill="white" />
			<text x="376" y="630" fill="brown" font-family="Arial, Tahoma, Verdana" font-size="8">A02</text>
			<circle cx="384" cy="632" r="2" stroke="black" stroke-width="brown" fill="white" />
			<text x="376" y="630" fill="brown" font-family="Arial, Tahoma, Verdana" font-size="8">A03</text>
			<circle cx="384" cy="632" r="2" stroke="black" stroke-width="brown" fill="white" />
			<text x="376" y="630" fill="brown" font-family="Arial, Tahoma, Verdana" font-size="8">A04</text>
			<circle cx="421" cy="629" r="2" stroke="black" stroke-width="brown" fill="white" />
			<text x="413" y="627" fill="brown" font-family="Arial, Tahoma, Verdana" font-size="8">A05</text>
			<circle cx="456" cy="620" r="2" stroke="black" stroke-width="brown" fill="white" />
			<text x="448" y="618" fill="brown" font-family="Arial, Tahoma, Verdana" font-size="8">A06</text>
			<circle cx="384" cy="632" r="2" stroke="black" stroke-width="brown" fill="white" />
			<text x="376" y="630" fill="brown" font-family="Arial, Tahoma, Verdana" font-size="8">A07</text>
			<circle cx="488" cy="605" r="2" stroke="black" stroke-width="brown" fill="white" />
			<text x="480" y="603" fill="brown" font-family="Arial, Tahoma, Verdana" font-size="8">A08</text>
			<circle cx="514" cy="586" r="2" stroke="black" stroke-width="brown" fill="white" />
			<text x="506" y="584" fill="brown" font-family="Arial, Tahoma, Verdana" font-size="8">A09</text>
			<circle cx="534" cy="563" r="2" stroke="black" stroke-width="brown" fill="white" />
			<text x="526" y="561" fill="brown" font-family="Arial, Tahoma, Verdana" font-size="8">A10</text>
			<circle cx="545" cy="537" r="2" stroke="black" stroke-width="brown" fill="white" />
			<text x="537" y="535" fill="brown" font-family="Arial, Tahoma, Verdana" font-size="8">A11</text>
			<circle cx="549" cy="510" r="2" stroke="black" stroke-width="brown" fill="white" />
			<text x="541" y="508" fill="brown" font-family="Arial, Tahoma, Verdana" font-size="8">A12</text>
			<circle cx="544" cy="483" r="2" stroke="black" stroke-width="brown" fill="white" />
			<text x="536" y="481" fill="brown" font-family="Arial, Tahoma, Verdana" font-size="8">A13</text>
			<path d="M 400 320 q 0 0 -16 312" stroke="brown" stroke-width="1.19314718056" fill="none" /><path d="M 177 625 q 0 0 207 7" stroke="brown" stroke-width="0.5" fill="none" /><path d="M 384 632 q 0 0 -207 -7" stroke="brown" stroke-width="0.5" fill="none" /><path d="M 571 643 q 0 0 -187 -11" stroke="brown" stroke-width="0.5" fill="none" /><path d="M 571 643 q 0 0 -150 -14" stroke="brown" stroke-width="0.5" fill="none" /><path d="M 571 643 q 0 0 -115 -23" stroke="brown" stroke-width="0.5" fill="none" /><path d="M 571 643 q 0 0 -187 -11" stroke="brown" stroke-width="0.5" fill="none" /><path d="M 421 629 q 0 0 35 -9" stroke="brown" stroke-width="0.5" fill="none" /><path d="M 421 629 q 0 0 -37 3" stroke="brown" stroke-width="0.5" fill="none" /><path d="M 456 620 q 0 0 -72 12" stroke="brown" stroke-width="0.5" fill="none" /><path d="M 275 686 q 0 0 213 -81" stroke="brown" stroke-width="0.5" fill="none" /><path d="M 275 686 q 0 0 239 -100" stroke="brown" stroke-width="0.5" fill="none" /><path d="M 488 605 q 0 0 26 -19" stroke="brown" stroke-width="0.5" fill="none" /><path d="M 640 512 q 0 0 -106 51" stroke="brown" stroke-width="0.5" fill="none" /><path d="M 640 512 q 0 0 -95 25" stroke="brown" stroke-width="0.5" fill="none" /><path d="M 400 320 q 0 0 149 190" stroke="brown" stroke-width="0.5" fill="none" /><path d="M 400 320 q 0 0 144 163" stroke="brown" stroke-width="0.5" fill="none" /><path d="M 549 510 q 0 0 -5 -27" stroke="brown" stroke-width="0.5" fill="none" /><text x="510" y="180" fill="black" font-family="Arial, Tahoma, Verdana" font-size="10">UFPR</text>
			<text x="510" y="480" fill="black" font-family="Arial, Tahoma, Verdana" font-size="10">UFSCAR</text>
			
					</svg>