<?xml version="1.0" standalone="no"?>
					<!DOCTYPE svg PUBLIC "-//W3C//DTD SVG 1.1//EN" "http://www.w3.org/Graphics/SVG/1.1/DTD/svg11.dtd">
					<svg xmlns="http://www.w3.org/2000/svg" version="1.1" height="1024px" width="768px"> 
					<text x="10" y="20" fill="black" font-family="Arial, Tahoma, Verdana" font-size="20">Programas de Pós-Graduação em Ciência da Informação</text>
			<text x="284" y="432" fill="black" font-family="Arial, Tahoma, Verdana" font-size="14">UFSC-PPGCI</text>
			<circle cx="640" cy="512" r="2" stroke="black" stroke-width="grey" fill="white" />
			<text x="626" y="505" fill="grey" font-family="Arial, Tahoma, Verdana" font-size="14">P01</text>
			<circle cx="615" cy="595" r="2" stroke="black" stroke-width="grey" fill="white" />
			<text x="601" y="588" fill="grey" font-family="Arial, Tahoma, Verdana" font-size="14">P02</text>
			<circle cx="544" cy="662" r="2" stroke="black" stroke-width="grey" fill="white" />
			<text x="530" y="655" fill="grey" font-family="Arial, Tahoma, Verdana" font-size="14">P03</text>
			<circle cx="441" cy="699" r="2" stroke="black" stroke-width="grey" fill="white" />
			<text x="427" y="692" fill="grey" font-family="Arial, Tahoma, Verdana" font-size="14">P04</text>
			<circle cx="327" cy="699" r="2" stroke="black" stroke-width="grey" fill="white" />
			<text x="313" y="692" fill="grey" font-family="Arial, Tahoma, Verdana" font-size="14">P05</text>
			<circle cx="224" cy="662" r="2" stroke="black" stroke-width="grey" fill="white" />
			<text x="210" y="655" fill="grey" font-family="Arial, Tahoma, Verdana" font-size="14">P06</text>
			<circle cx="153" cy="595" r="2" stroke="black" stroke-width="grey" fill="white" />
			<text x="139" y="588" fill="grey" font-family="Arial, Tahoma, Verdana" font-size="14">P07</text>
			<circle cx="128" cy="512" r="2" stroke="black" stroke-width="grey" fill="white" />
			<text x="114" y="505" fill="grey" font-family="Arial, Tahoma, Verdana" font-size="14">P08</text>
			<circle cx="153" cy="429" r="2" stroke="black" stroke-width="grey" fill="white" />
			<text x="139" y="422" fill="grey" font-family="Arial, Tahoma, Verdana" font-size="14">P09</text>
			<circle cx="224" cy="362" r="2" stroke="black" stroke-width="grey" fill="white" />
			<text x="210" y="355" fill="grey" font-family="Arial, Tahoma, Verdana" font-size="14">P10</text>
			<circle cx="327" cy="325" r="2" stroke="black" stroke-width="grey" fill="white" />
			<text x="313" y="318" fill="grey" font-family="Arial, Tahoma, Verdana" font-size="14">P11</text>
			<circle cx="441" cy="325" r="2" stroke="black" stroke-width="grey" fill="white" />
			<text x="427" y="318" fill="grey" font-family="Arial, Tahoma, Verdana" font-size="14">P12</text>
			<circle cx="544" cy="362" r="2" stroke="black" stroke-width="grey" fill="white" />
			<text x="530" y="355" fill="grey" font-family="Arial, Tahoma, Verdana" font-size="14">P13</text>
			<circle cx="615" cy="429" r="2" stroke="black" stroke-width="grey" fill="white" />
			<text x="601" y="422" fill="grey" font-family="Arial, Tahoma, Verdana" font-size="14">P14</text>
			<circle cx="384" cy="632" r="2" stroke="black" stroke-width="brown" fill="white" />
			<text x="376" y="630" fill="brown" font-family="Arial, Tahoma, Verdana" font-size="8">A01</text>
			<circle cx="421" cy="629" r="2" stroke="black" stroke-width="brown" fill="white" />
			<text x="413" y="627" fill="brown" font-family="Arial, Tahoma, Verdana" font-size="8">A02</text>
			<circle cx="456" cy="620" r="2" stroke="black" stroke-width="brown" fill="white" />
			<text x="448" y="618" fill="brown" font-family="Arial, Tahoma, Verdana" font-size="8">A03</text>
			<circle cx="488" cy="605" r="2" stroke="black" stroke-width="brown" fill="white" />
			<text x="480" y="603" fill="brown" font-family="Arial, Tahoma, Verdana" font-size="8">A04</text>
			<circle cx="514" cy="586" r="2" stroke="black" stroke-width="brown" fill="white" />
			<text x="506" y="584" fill="brown" font-family="Arial, Tahoma, Verdana" font-size="8">A05</text>
			<circle cx="384" cy="632" r="2" stroke="black" stroke-width="brown" fill="white" />
			<text x="376" y="630" fill="brown" font-family="Arial, Tahoma, Verdana" font-size="8">A06</text>
			<circle cx="534" cy="563" r="2" stroke="black" stroke-width="brown" fill="white" />
			<text x="526" y="561" fill="brown" font-family="Arial, Tahoma, Verdana" font-size="8">A07</text>
			<circle cx="545" cy="537" r="2" stroke="black" stroke-width="brown" fill="white" />
			<text x="537" y="535" fill="brown" font-family="Arial, Tahoma, Verdana" font-size="8">A08</text>
			<circle cx="549" cy="510" r="2" stroke="black" stroke-width="brown" fill="white" />
			<text x="541" y="508" fill="brown" font-family="Arial, Tahoma, Verdana" font-size="8">A09</text>
			<circle cx="544" cy="483" r="2" stroke="black" stroke-width="brown" fill="white" />
			<text x="536" y="481" fill="brown" font-family="Arial, Tahoma, Verdana" font-size="8">A10</text>
			<circle cx="531" cy="458" r="2" stroke="black" stroke-width="brown" fill="white" />
			<text x="523" y="456" fill="brown" font-family="Arial, Tahoma, Verdana" font-size="8">A11</text>
			<circle cx="510" cy="435" r="2" stroke="black" stroke-width="brown" fill="white" />
			<text x="502" y="433" fill="brown" font-family="Arial, Tahoma, Verdana" font-size="8">A12</text>
			<circle cx="384" cy="632" r="2" stroke="black" stroke-width="brown" fill="white" />
			<text x="376" y="630" fill="brown" font-family="Arial, Tahoma, Verdana" font-size="8">A13</text>
			<circle cx="483" cy="416" r="2" stroke="black" stroke-width="brown" fill="white" />
			<text x="475" y="414" fill="brown" font-family="Arial, Tahoma, Verdana" font-size="8">A14</text>
			<circle cx="384" cy="632" r="2" stroke="black" stroke-width="brown" fill="white" />
			<text x="376" y="630" fill="brown" font-family="Arial, Tahoma, Verdana" font-size="8">A15</text>
			<circle cx="451" cy="402" r="2" stroke="black" stroke-width="brown" fill="white" />
			<text x="443" y="400" fill="brown" font-family="Arial, Tahoma, Verdana" font-size="8">A16</text>
			<circle cx="415" cy="394" r="2" stroke="black" stroke-width="brown" fill="white" />
			<text x="407" y="392" fill="brown" font-family="Arial, Tahoma, Verdana" font-size="8">A17</text>
			<circle cx="378" cy="392" r="2" stroke="black" stroke-width="brown" fill="white" />
			<text x="370" y="390" fill="brown" font-family="Arial, Tahoma, Verdana" font-size="8">A18</text>
			<circle cx="341" cy="396" r="2" stroke="black" stroke-width="brown" fill="white" />
			<text x="333" y="394" fill="brown" font-family="Arial, Tahoma, Verdana" font-size="8">A19</text>
			<circle cx="307" cy="406" r="2" stroke="black" stroke-width="brown" fill="white" />
			<text x="299" y="404" fill="brown" font-family="Arial, Tahoma, Verdana" font-size="8">A20</text>
			<circle cx="276" cy="421" r="2" stroke="black" stroke-width="brown" fill="white" />
			<text x="268" y="419" fill="brown" font-family="Arial, Tahoma, Verdana" font-size="8">A21</text>
			<circle cx="251" cy="441" r="2" stroke="black" stroke-width="brown" fill="white" />
			<text x="243" y="439" fill="brown" font-family="Arial, Tahoma, Verdana" font-size="8">A22</text>
			<circle cx="232" cy="465" r="2" stroke="black" stroke-width="brown" fill="white" />
			<text x="224" y="463" fill="brown" font-family="Arial, Tahoma, Verdana" font-size="8">A23</text>
			<circle cx="222" cy="491" r="2" stroke="black" stroke-width="brown" fill="white" />
			<text x="214" y="489" fill="brown" font-family="Arial, Tahoma, Verdana" font-size="8">A24</text>
			<circle cx="219" cy="518" r="2" stroke="black" stroke-width="brown" fill="white" />
			<text x="211" y="516" fill="brown" font-family="Arial, Tahoma, Verdana" font-size="8">A25</text>
			<circle cx="225" cy="545" r="2" stroke="black" stroke-width="brown" fill="white" />
			<text x="217" y="543" fill="brown" font-family="Arial, Tahoma, Verdana" font-size="8">A26</text>
			<circle cx="240" cy="570" r="2" stroke="black" stroke-width="brown" fill="white" />
			<text x="232" y="568" fill="brown" font-family="Arial, Tahoma, Verdana" font-size="8">A27</text>
			<circle cx="261" cy="592" r="2" stroke="black" stroke-width="brown" fill="white" />
			<text x="253" y="590" fill="brown" font-family="Arial, Tahoma, Verdana" font-size="8">A28</text>
			<circle cx="289" cy="610" r="2" stroke="black" stroke-width="brown" fill="white" />
			<text x="281" y="608" fill="brown" font-family="Arial, Tahoma, Verdana" font-size="8">A29</text>
			<circle cx="384" cy="632" r="2" stroke="black" stroke-width="brown" fill="white" />
			<text x="376" y="630" fill="brown" font-family="Arial, Tahoma, Verdana" font-size="8">A30</text>
			<circle cx="421" cy="629" r="2" stroke="black" stroke-width="brown" fill="white" />
			<text x="413" y="627" fill="brown" font-family="Arial, Tahoma, Verdana" font-size="8">A31</text>
			<circle cx="421" cy="629" r="2" stroke="black" stroke-width="brown" fill="white" />
			<text x="413" y="627" fill="brown" font-family="Arial, Tahoma, Verdana" font-size="8">A32</text>
			<circle cx="322" cy="623" r="2" stroke="black" stroke-width="brown" fill="white" />
			<text x="314" y="621" fill="brown" font-family="Arial, Tahoma, Verdana" font-size="8">A33</text>
			<circle cx="421" cy="629" r="2" stroke="black" stroke-width="brown" fill="white" />
			<text x="413" y="627" fill="brown" font-family="Arial, Tahoma, Verdana" font-size="8">A34</text>
			<circle cx="456" cy="620" r="2" stroke="black" stroke-width="brown" fill="white" />
			<text x="448" y="618" fill="brown" font-family="Arial, Tahoma, Verdana" font-size="8">A35</text>
			<circle cx="488" cy="605" r="2" stroke="black" stroke-width="brown" fill="white" />
			<text x="480" y="603" fill="brown" font-family="Arial, Tahoma, Verdana" font-size="8">A36</text>
			<circle cx="358" cy="631" r="2" stroke="black" stroke-width="brown" fill="white" />
			<text x="350" y="629" fill="brown" font-family="Arial, Tahoma, Verdana" font-size="8">A37</text>
			<circle cx="396" cy="632" r="2" stroke="black" stroke-width="brown" fill="white" />
			<text x="388" y="630" fill="brown" font-family="Arial, Tahoma, Verdana" font-size="8">A38</text>
			<path d="M 384 632 q 0 0 -160 -270" stroke="brown" stroke-width="1.19314718056" fill="none" /><path d="M 544 362 q 0 0 -123 267" stroke="brown" stroke-width="0.5" fill="none" /><path d="M 327 325 q 0 0 129 295" stroke="brown" stroke-width="0.5" fill="none" /><path d="M 327 325 q 0 0 161 280" stroke="brown" stroke-width="0.5" fill="none" /><path d="M 327 325 q 0 0 187 261" stroke="brown" stroke-width="0.5" fill="none" /><path d="M 488 605 q 0 0 26 -19" stroke="brown" stroke-width="0.5" fill="none" /><path d="M 544 662 q 0 0 -160 -30" stroke="brown" stroke-width="1.19314718056" fill="none" /><path d="M 640 512 q 0 0 -106 51" stroke="brown" stroke-width="1.19314718056" fill="none" /><path d="M 224 362 q 0 0 321 175" stroke="brown" stroke-width="1.19314718056" fill="none" /><path d="M 544 662 q 0 0 -217 -337" stroke="blue" stroke-width="0.5" fill="none" /><path d="M 544 662 q 0 0 5 -152" stroke="brown" stroke-width="0.5" fill="none" /><path d="M 327 325 q 0 0 222 185" stroke="brown" stroke-width="0.5" fill="none" /><path d="M 224 362 q 0 0 320 121" stroke="brown" stroke-width="0.5" fill="none" /><path d="M 224 362 q 0 0 307 96" stroke="brown" stroke-width="0.5" fill="none" /><path d="M 544 483 q 0 0 -13 -25" stroke="brown" stroke-width="0.5" fill="none" /><path d="M 327 325 q 0 0 183 110" stroke="brown" stroke-width="0.5" fill="none" /><path d="M 544 662 q 0 0 71 -67" stroke="blue" stroke-width="1.19314718056" fill="none" /><path d="M 224 362 q 0 0 160 270" stroke="brown" stroke-width="0.5" fill="none" /><path d="M 544 362 q 0 0 -61 54" stroke="brown" stroke-width="0.5" fill="none" /><path d="M 615 429 q 0 0 -231 203" stroke="brown" stroke-width="0.5" fill="none" /><path d="M 128 512 q 0 0 323 -110" stroke="brown" stroke-width="0.5" fill="none" /><path d="M 128 512 q 0 0 287 -118" stroke="brown" stroke-width="0.5" fill="none" /><path d="M 128 512 q 0 0 250 -120" stroke="brown" stroke-width="0.5" fill="none" /><path d="M 451 402 q 0 0 -36 -8" stroke="brown" stroke-width="0.5" fill="none" /><path d="M 451 402 q 0 0 -73 -10" stroke="brown" stroke-width="0.5" fill="none" /><path d="M 415 394 q 0 0 -37 -2" stroke="brown" stroke-width="0.5" fill="none" /><path d="M 224 362 q 0 0 117 34" stroke="brown" stroke-width="1.19314718056" fill="none" /><path d="M 441 699 q 0 0 -134 -293" stroke="brown" stroke-width="0.5" fill="none" /><path d="M 615 429 q 0 0 -339 -8" stroke="brown" stroke-width="0.5" fill="none" /><path d="M 153 595 q 0 0 396 -85" stroke="brown" stroke-width="0.5" fill="none" /><path d="M 153 595 q 0 0 98 -154" stroke="brown" stroke-width="0.5" fill="none" /><path d="M 549 510 q 0 0 -298 -69" stroke="brown" stroke-width="0.5" fill="none" /><path d="M 640 512 q 0 0 -408 -47" stroke="brown" stroke-width="0.5" fill="none" /><path d="M 224 362 q 0 0 -2 129" stroke="brown" stroke-width="0.5" fill="none" /><path d="M 341 396 q 0 0 -119 95" stroke="brown" stroke-width="0.5" fill="none" /><path d="M 615 429 q 0 0 -396 89" stroke="brown" stroke-width="0.5" fill="none" /><path d="M 224 362 q 0 0 1 183" stroke="brown" stroke-width="0.5" fill="none" /><path d="M 128 512 q 0 0 112 58" stroke="brown" stroke-width="0.5" fill="none" /><path d="M 544 662 q 0 0 -283 -70" stroke="brown" stroke-width="0.5" fill="none" /><path d="M 544 662 q 0 0 -255 -52" stroke="brown" stroke-width="1.19314718056" fill="none" /><path d="M 615 595 q 0 0 -231 37" stroke="brown" stroke-width="1.88629436112" fill="none" /><path d="M 327 325 q 0 0 94 304" stroke="brown" stroke-width="0.5" fill="none" /><path d="M 615 595 q 0 0 -194 34" stroke="brown" stroke-width="1.19314718056" fill="none" /><path d="M 153 595 q 0 0 169 28" stroke="brown" stroke-width="0.5" fill="none" /><path d="M 128 512 q 0 0 293 117" stroke="brown" stroke-width="0.5" fill="none" /><path d="M 327 325 q 0 0 129 295" stroke="brown" stroke-width="0.5" fill="none" /><path d="M 327 325 q 0 0 161 280" stroke="brown" stroke-width="0.5" fill="none" /><path d="M 456 620 q 0 0 32 -15" stroke="brown" stroke-width="0.5" fill="none" /><path d="M 544 662 q 0 0 -186 -31" stroke="brown" stroke-width="0.5" fill="none" /><path d="M 289 610 q 0 0 69 21" stroke="brown" stroke-width="0.5" fill="none" /><path d="M 327 325 q 0 0 69 307" stroke="brown" stroke-width="0.5" fill="none" /><text x="510" y="180" fill="black" font-family="Arial, Tahoma, Verdana" font-size="10">UFPR</text>
			<text x="510" y="480" fill="black" font-family="Arial, Tahoma, Verdana" font-size="10">UFSCAR</text>
			
					</svg>